<?xml version="1.0" encoding="UTF-8" standalone="no"?>
<!-- Created with Inkscape (http://www.inkscape.org/) -->

<svg
   xmlns:dc="http://purl.org/dc/elements/1.1/"
   xmlns:cc="http://creativecommons.org/ns#"
   xmlns:rdf="http://www.w3.org/1999/02/22-rdf-syntax-ns#"
   xmlns:svg="http://www.w3.org/2000/svg"
   xmlns="http://www.w3.org/2000/svg"
   xmlns:sodipodi="http://sodipodi.sourceforge.net/DTD/sodipodi-0.dtd"
   xmlns:inkscape="http://www.inkscape.org/namespaces/inkscape"
   width="128"
   height="128"
   viewBox="0 0 128 128"
   version="1.1"
   id="svg8"
   inkscape:version="0.92.4 5da689c313, 2019-01-14"
   sodipodi:docname="robot_spritesheet.svg">
  <defs
     id="defs2">
    <radialGradient
       id="Gradient_1"
       gradientUnits="userSpaceOnUse"
       cx="0"
       cy="0"
       r="13.5875"
       fx="0"
       fy="0"
       spreadMethod="pad">
      <stop
         offset="0%"
         stop-color="#000000"
         stop-opacity="0.30196078431372547"
         id="stop2" />
      <stop
         offset="100%"
         stop-color="#000000"
         stop-opacity="0"
         id="stop4" />
    </radialGradient>
    <radialGradient
       id="radialGradient5286"
       gradientUnits="userSpaceOnUse"
       cx="0"
       cy="0"
       r="13.5875"
       fx="0"
       fy="0"
       spreadMethod="pad">
      <stop
         offset="0%"
         stop-color="#000000"
         stop-opacity="0.30196078431372547"
         id="stop5282" />
      <stop
         offset="100%"
         stop-color="#000000"
         stop-opacity="0"
         id="stop5284" />
    </radialGradient>
  </defs>
  <sodipodi:namedview
     id="base"
     pagecolor="#282828"
     bordercolor="#666666"
     borderopacity="1.0"
     inkscape:pageopacity="0"
     inkscape:pageshadow="2"
     inkscape:zoom="7.9195959"
     inkscape:cx="-80.856202"
     inkscape:cy="35.631333"
     inkscape:document-units="px"
     inkscape:current-layer="layer1"
     showgrid="true"
     units="px"
     inkscape:window-width="1920"
     inkscape:window-height="1022"
     inkscape:window-x="0"
     inkscape:window-y="30"
     inkscape:window-maximized="1"
     inkscape:snap-bbox="true"
     inkscape:bbox-paths="false"
     inkscape:bbox-nodes="true"
     inkscape:snap-nodes="false"
     inkscape:snap-others="false">
    <inkscape:grid
       type="xygrid"
       id="grid1064"
       spacingx="4"
       spacingy="4" />
  </sodipodi:namedview>
  <metadata
     id="metadata5">
    <rdf:RDF>
      <cc:Work
         rdf:about="">
        <dc:format>image/svg+xml</dc:format>
        <dc:type
           rdf:resource="http://purl.org/dc/dcmitype/StillImage" />
        <dc:title></dc:title>
      </cc:Work>
    </rdf:RDF>
  </metadata>
  <g
     inkscape:label="Layer 1"
     inkscape:groupmode="layer"
     id="layer1"
     transform="translate(0,-963.25)">
    <g
       id="g1542"
       transform="translate(-18.612732)">
      <g
         style="stroke-width:1.31971669;filter:url(#Filter_1)"
         transform="matrix(0.75773844,0,0,0.75773844,-39.455027,1058.3749)"
         id="g1517">
        <g
           id="g1515"
           style="stroke-width:1.31971669">
          <g
             id="g1513"
             style="stroke-width:1.31971669">
            <path
               style="fill:#477ca6;stroke:none;stroke-width:1.31971669"
               inkscape:connector-curvature="0"
               id="path1509"
               d="m 6.4,14.7 q -1.3080078,0 -2.45,-0.5 0.7417969,2.80957 0.85,6 0.05,1.6 1.35,2.75 1.2,1.1 2.9,1.05 1.7,-0.05 2.9,-1.25 1.1,-1.25 1.05,-2.85 -0.172266,-4.550977 -1.3,-8.5 -0.401758,0.924609 -1.2,1.7 -1.7,1.6 -4.1,1.6 m 0,-11.25 q 1.0324219,0 1.9,0.3 -2.9074219,-4.59921875 -7.7,-7.95 -1.4,-1 -3.1,-0.75 -1.7,0.25 -2.65,1.55 -1.05,1.3 -0.8,2.95 0.3,1.6 1.65,2.6 Q -1.2039062,4.3742187 0.85,7.3 1.2525391,6.0974609 2.25,5.1 4,3.45 6.4,3.45 M 5.05,7.1 Q 4.85,7.3 4.7,7.55 4.25,8.2 4.25,9.05 4.25,10.2 5.05,11 5.9,11.8 7.1,11.8 8,11.8 8.7,11.4 8.9,11.2 9.1,11 9.5,10.65 9.7,10.35 10,9.75 10,9.05 10,7.9 9.1,7.1 8.3,6.3 7.1,6.3 6.35,6.3 5.8,6.6 5.4,6.8 5.05,7.1 Z" />
            <path
               style="fill:#334e63;stroke:none;stroke-width:1.31971669"
               inkscape:connector-curvature="0"
               id="path1511"
               d="m 11.7,11.4 q 0.55,-1.049023 0.55,-2.3 0,-2.3 -1.75,-4 Q 9.53125,4.1597656 8.3,3.75 7.4324219,3.45 6.4,3.45 4,3.45 2.25,5.1 1.2525391,6.0974609 0.85,7.3 q -0.3,0.8494141 -0.3,1.8 0,2.3 1.7,4 0.7962891,0.72793 1.7,1.1 1.1419922,0.5 2.45,0.5 2.4,0 4.1,-1.6 0.798242,-0.775391 1.2,-1.7 M 4.7,7.55 Q 4.85,7.3 5.05,7.1 5.4,6.8 5.8,6.6 6.35,6.3 7.1,6.3 q 1.2,0 2,0.8 0.9,0.8 0.9,1.95 0,0.7 -0.3,1.3 Q 9.5,10.65 9.1,11 8.9,11.2 8.7,11.4 8,11.8 7.1,11.8 5.9,11.8 5.05,11 4.25,10.2 4.25,9.05 4.25,8.2 4.7,7.55 Z" />
          </g>
        </g>
      </g>
      <path
         style="fill:#334e63;stroke:none;stroke-width:1.00000012"
         d="m -43.092174,1059.3979 q -1.47759,-1.4397 -1.47759,-3.4856 0,-2.0459 1.47759,-3.4856 1.439703,-1.4397 3.485597,-1.4397 2.045893,0 3.44771,1.4397 1.439703,1.4397 1.439703,3.4856 0,2.0459 -1.439703,3.4856 -1.401817,1.4397 -3.44771,1.4397 -2.045894,0 -3.485597,-1.4397"
         id="path1519"
         inkscape:connector-curvature="0" />
      <g
         style="stroke-width:1.31971669;filter:url(#Filter_1)"
         transform="matrix(0.75773844,0,0,0.75773844,-32.938477,1075.1209)"
         id="g1529">
        <g
           id="g1527"
           style="stroke-width:1.31971669">
          <g
             id="g1525"
             style="stroke-width:1.31971669">
            <path
               style="fill:#bfd4e5;stroke:none;stroke-width:1.31971669"
               inkscape:connector-curvature="0"
               id="path1521"
               d="m -1.15,10.65 q -0.1,-0.1 -0.15,0.05 -0.1,0.15 -0.15,0.35 v 3.5 q 0,0.15 0.15,0.4 0.1,0.05 0.25,0.05 2.8,-0.05 4.8,-2.05 H 3.8 Q 5.9,10.85 6,7.85 6.05,4.8 4.05,2.7 L 3.9,2.55 Q 3.8726563,3.1056641 3.7,3.65 3.190625,5.5488281 1.5,6.6 1.75,7.146875 1.75,7.75 1.65,8.9 0.95,9.75 0.9,9.75 0.8,9.8 0.05,10.6 -1.15,10.65 M -5.7,-0.45 q -0.4146484,0.0912109 -0.85,0.2 -2.8,0.65 -4.4,3.25 -1.5,2.6 -0.85,5.5 0,0.05 0,0.1 0.75,2.75 3.1,4.25 0.15,0.1 0.3,0.1 0.1,-0.05 0.15,-0.2 L -6.3,9.7 Q -6.2,9.6 -6.2,9.5 -6.3,9.3 -6.4,9.2 -7.3,8.6 -7.6,7.5 -7.6,7.45 -7.6,7.4 -7.85,6.3 -7.25,5.3 -6.7638672,4.5146484 -6.05,4.15 -6.6167969,2.5091797 -6.2,0.8 -6.0076172,0.14257812 -5.7,-0.45 Z" />
            <path
               style="fill:#5393c5;stroke:none;stroke-width:1.31971669"
               inkscape:connector-curvature="0"
               id="path1523"
               d="m 3.25,-0.3 q -1,-1.85 -3.05,-2.5 -2,-0.6 -3.95,0.45 -1.2568359,0.7472656 -1.95,1.9 -0.3076172,0.59257812 -0.5,1.25 -0.4167969,1.7091797 0.15,3.35 0.1421875,0.3259766 0.3,0.65 1.05,1.85 3.1,2.45 Q -0.6,7.8 1.25,6.8 1.3902344,6.7189453 1.5,6.6 3.190625,5.5488281 3.7,3.65 3.8726563,3.1056641 3.9,2.55 4.0580078,1.0955078 3.25,-0.3 Z" />
          </g>
        </g>
      </g>
    </g>
    <g
       style="stroke-width:1.31971669;filter:url(#Filter_1)"
       transform="matrix(0.75773844,0,0,0.75773844,-64.69797,1072.8856)"
       id="g290">
      <g
         id="g288"
         style="stroke-width:1.31971669">
        <g
           id="use286"
           style="stroke-width:1.31971669">
          <path
             style="fill:#334e63;stroke:none;stroke-width:1.31971669"
             inkscape:connector-curvature="0"
             id="path976"
             d="M 11,20 5.25,14 h -5.8 V 9.65 Q -0.55,8.4 -1.45,7.5 -2.35,6.6 -3.6,6.6 h -0.05 q -1.25,0 -2.15,0.9 -0.45,0.45 -0.7,1 -0.2,0.55 -0.2,1.15 L -7,23 H 10.9 L 11,20 M -3.6,8.35 q 0.6,0 1.05,0.45 0.45,0.45 0.45,1.05 0,0.6 -0.45,1.05 -0.45,0.45 -1.05,0.45 -0.6,0 -1.05,-0.45 Q -5.1,10.45 -5.1,9.85 -5.1,9.25 -4.65,8.8 -4.2,8.35 -3.6,8.35 Z" />
          <path
             style="fill:#477ca6;stroke:none;stroke-width:1.31971669"
             inkscape:connector-curvature="0"
             id="path978"
             d="M -2.55,8.8 Q -3,8.35 -3.6,8.35 q -0.6,0 -1.05,0.45 -0.45,0.45 -0.45,1.05 0,0.6 0.45,1.05 0.45,0.45 1.05,0.45 0.6,0 1.05,-0.45 0.45,-0.45 0.45,-1.05 0,-0.6 -0.45,-1.05 m 8.45,-9 Q 5.9,-2.6 4,-4.3 2.15,-6 -0.55,-6 -3.2,-6 -5.1,-4.3 -7,-2.6 -7,-0.2 l 0.5,8.7 q 0.25,-0.55 0.7,-1 0.9,-0.9 2.15,-0.9 h 0.05 q 1.25,0 2.15,0.9 0.9,0.9 0.9,2.15 V 14 h 5.8 0.05 z" />
        </g>
      </g>
    </g>
    <g
       style="stroke-width:1.31971669;filter:url(#Filter_1)"
       transform="matrix(-0.75773844,0,0,0.75773844,-76.82179,1072.8856)"
       id="g296">
      <g
         id="g294"
         style="stroke-width:1.31971669">
        <g
           id="use292"
           style="stroke-width:1.31971669">
          <path
             style="fill:#334e63;stroke:none;stroke-width:1.31971669"
             inkscape:connector-curvature="0"
             id="path982"
             d="M 11,20 5.25,14 h -5.8 V 9.65 Q -0.55,8.4 -1.45,7.5 -2.35,6.6 -3.6,6.6 h -0.05 q -1.25,0 -2.15,0.9 -0.45,0.45 -0.7,1 -0.2,0.55 -0.2,1.15 L -7,23 H 10.9 L 11,20 M -3.6,8.35 q 0.6,0 1.05,0.45 0.45,0.45 0.45,1.05 0,0.6 -0.45,1.05 -0.45,0.45 -1.05,0.45 -0.6,0 -1.05,-0.45 Q -5.1,10.45 -5.1,9.85 -5.1,9.25 -4.65,8.8 -4.2,8.35 -3.6,8.35 Z" />
          <path
             style="fill:#477ca6;stroke:none;stroke-width:1.31971669"
             inkscape:connector-curvature="0"
             id="path984"
             d="M -2.55,8.8 Q -3,8.35 -3.6,8.35 q -0.6,0 -1.05,0.45 -0.45,0.45 -0.45,1.05 0,0.6 0.45,1.05 0.45,0.45 1.05,0.45 0.6,0 1.05,-0.45 0.45,-0.45 0.45,-1.05 0,-0.6 -0.45,-1.05 m 8.45,-9 Q 5.9,-2.6 4,-4.3 2.15,-6 -0.55,-6 -3.2,-6 -5.1,-4.3 -7,-2.6 -7,-0.2 l 0.5,8.7 q 0.25,-0.55 0.7,-1 0.9,-0.9 2.15,-0.9 h 0.05 q 1.25,0 2.15,0.9 0.9,0.9 0.9,2.15 V 14 h 5.8 0.05 z" />
        </g>
      </g>
    </g>
    <path
       style="fill:#477ca6;stroke:none;stroke-width:1.00000012"
       d="m 30.32632,1028.6259 q -0.95736,-0.2565 -1.69514,-0.8465 -0.008,2.2019 -0.55459,4.5583 -0.27718,1.1809 0.44876,2.2775 0.66258,1.0404 1.91665,1.3372 1.2541,0.2967 2.36772,-0.3462 1.05027,-0.6991 1.32743,-1.8799 0.76646,-3.3648 0.71551,-6.4763 -0.47538,0.5979 -1.21168,1.0089 -1.55806,0.8377 -3.31466,0.367"
       id="path1081"
       inkscape:connector-curvature="0" />
    <g
       id="g1086"
       transform="rotate(30,-21.59622,1094.9083)">
      <path
         inkscape:connector-curvature="0"
         id="path1079"
         d="m -14.016014,995.22596 q 0.782306,0 1.439703,0.22732 -2.203065,-3.48501 -5.834586,-6.02402 -1.060834,-0.75774 -2.348989,-0.56831 -1.288155,0.18944 -2.008007,1.1745 -0.795625,0.98506 -0.606191,2.23533 0.227322,1.21238 1.250269,1.97012 2.346029,1.68537 3.902353,3.90235 0.305019,-0.91121 1.060833,-1.66702 1.326043,-1.25027 3.144615,-1.25027"
         style="fill:#477ca6;stroke:none;stroke-width:1.00000012" />
      <path
         inkscape:connector-curvature="0"
         id="path988"
         d="m -15.038961,997.9917 q -0.151548,0.15155 -0.265208,0.34099 -0.340983,0.49253 -0.340983,1.1366 0,0.87141 0.606191,1.47761 0.644078,0.6062 1.553364,0.6062 0.681965,0 1.212381,-0.3031 0.151548,-0.1516 0.303096,-0.3031 0.303095,-0.2652 0.454643,-0.4925 0.227321,-0.45469 0.227321,-0.98511 0,-0.8714 -0.681964,-1.47759 -0.606191,-0.60619 -1.515477,-0.60619 -0.568304,0 -0.98506,0.22732 -0.303095,0.15155 -0.568304,0.37887 z"
         style="fill:#477ca6;stroke:none;stroke-width:1.00000012" />
      <path
         style="fill:#334e63;stroke:none;stroke-width:1.00000012"
         inkscape:connector-curvature="0"
         id="path990"
         d="m -10,1001.25 q 0.4167559,-0.7949 0.4167559,-1.74282 0,-1.7428 -1.3260419,-3.03095 -0.734059,-0.71246 -1.667025,-1.02295 -0.657397,-0.22732 -1.439703,-0.22732 -1.818572,0 -3.144615,1.25027 -0.755814,0.75581 -1.060833,1.66702 -0.227322,0.64363 -0.227322,1.36393 0,1.74282 1.288155,3.03092 0.603379,0.5516 1.288156,0.8335 0.865331,0.3789 1.856459,0.3789 1.818572,0 3.106728,-1.2124 0.604858,-0.5875 0.909286,-1.2881 m -5.304169,-2.91731 q 0.11366,-0.18944 0.265208,-0.34099 0.265209,-0.22732 0.568304,-0.37887 0.416756,-0.22732 0.98506,-0.22732 0.909286,0 1.515477,0.60619 0.681964,0.60619 0.681964,1.47759 0,0.53042 -0.227321,0.98511 -0.151548,0.2273 -0.454643,0.4925 -0.151548,0.1515 -0.303096,0.3031 -0.530416,0.3031 -1.212381,0.3031 -0.909286,0 -1.553364,-0.6062 -0.606191,-0.6062 -0.606191,-1.47761 0,-0.64407 0.340983,-1.1366 z" />
    </g>
    <g
       style="stroke-width:1.31971669;filter:url(#Filter_1)"
       transform="matrix(-0.75773844,0,0,0.75773844,-84.20974,1058.3749)"
       id="g308">
      <g
         id="g306"
         style="stroke-width:1.31971669">
        <g
           id="use304"
           style="stroke-width:1.31971669">
          <path
             style="fill:#477ca6;stroke:none;stroke-width:1.31971669"
             inkscape:connector-curvature="0"
             id="path994"
             d="m 6.4,14.7 q -1.3080078,0 -2.45,-0.5 0.7417969,2.80957 0.85,6 0.05,1.6 1.35,2.75 1.2,1.1 2.9,1.05 1.7,-0.05 2.9,-1.25 1.1,-1.25 1.05,-2.85 -0.172266,-4.550977 -1.3,-8.5 -0.401758,0.924609 -1.2,1.7 -1.7,1.6 -4.1,1.6 m 0,-11.25 q 1.0324219,0 1.9,0.3 -2.9074219,-4.59921875 -7.7,-7.95 -1.4,-1 -3.1,-0.75 -1.7,0.25 -2.65,1.55 -1.05,1.3 -0.8,2.95 0.3,1.6 1.65,2.6 Q -1.2039062,4.3742187 0.85,7.3 1.2525391,6.0974609 2.25,5.1 4,3.45 6.4,3.45 M 5.05,7.1 Q 4.85,7.3 4.7,7.55 4.25,8.2 4.25,9.05 4.25,10.2 5.05,11 5.9,11.8 7.1,11.8 8,11.8 8.7,11.4 8.9,11.2 9.1,11 9.5,10.65 9.7,10.35 10,9.75 10,9.05 10,7.9 9.1,7.1 8.3,6.3 7.1,6.3 6.35,6.3 5.8,6.6 5.4,6.8 5.05,7.1 Z" />
          <path
             style="fill:#334e63;stroke:none;stroke-width:1.31971669"
             inkscape:connector-curvature="0"
             id="path996"
             d="m 11.7,11.4 q 0.55,-1.049023 0.55,-2.3 0,-2.3 -1.75,-4 Q 9.53125,4.1597656 8.3,3.75 7.4324219,3.45 6.4,3.45 4,3.45 2.25,5.1 1.2525391,6.0974609 0.85,7.3 q -0.3,0.8494141 -0.3,1.8 0,2.3 1.7,4 0.7962891,0.72793 1.7,1.1 1.1419922,0.5 2.45,0.5 2.4,0 4.1,-1.6 0.798242,-0.775391 1.2,-1.7 M 4.7,7.55 Q 4.85,7.3 5.05,7.1 5.4,6.8 5.8,6.6 6.35,6.3 7.1,6.3 q 1.2,0 2,0.8 0.9,0.8 0.9,1.95 0,0.7 -0.3,1.3 Q 9.5,10.65 9.1,11 8.9,11.2 8.7,11.4 8,11.8 7.1,11.8 5.9,11.8 5.05,11 4.25,10.2 4.25,9.05 4.25,8.2 4.7,7.55 Z" />
        </g>
      </g>
    </g>
    <path
       style="fill:#334e63;stroke:none;stroke-width:1.00000012"
       d="m -80.572593,1059.3979 q 1.47759,-1.4397 1.47759,-3.4856 0,-2.0459 -1.47759,-3.4856 -1.439703,-1.4397 -3.485597,-1.4397 -2.045893,0 -3.44771,1.4397 -1.439703,1.4397 -1.439703,3.4856 0,2.0459 1.439703,3.4856 1.401817,1.4397 3.44771,1.4397 2.045894,0 3.485597,-1.4397"
       id="path1507"
       inkscape:connector-curvature="0" />
    <g
       style="stroke-width:1.31971669"
       id="g316"
       transform="matrix(0.75773844,0,0,0.75773844,-70.75988,1070.6882)">
      <g
         style="stroke-width:1.31971669"
         id="use314">
        <path
           d="M 12.9,8 Q 14.3,6.05 14.4,2.75 H -15.5 Q -15.4,6.05 -14,8 Z"
           id="path1000"
           inkscape:connector-curvature="0"
           style="fill:#5393c5;stroke:none;stroke-width:1.31971669" />
        <path
           d="m 7.75,-2.25 q 1.35,-2.2 1.35,-5 0,-4 -2.8,-6.85 -2.85,-2.85 -6.85,-2.85 -4,0 -6.85,2.85 -2.85,2.85 -2.85,6.85 0,2.8 1.4,5 h -6.65 v 5 h 29.9 v -5 H 7.75 M 4.5,-8.8 2.85,-3.55 Q 2.8,-3.35 2.6,-3.2 2.4,-3.05 2.15,-3.05 H -3.1 q -0.2,0 -0.4,-0.15 -0.25,-0.15 -0.3,-0.35 L -5.45,-8.8 q -0.05,-0.25 0,-0.5 0.1,-0.2 0.3,-0.4 l 4.3,-3.15 q 0.15,-0.15 0.4,-0.15 0.2,0 0.45,0.15 l 4.25,3.15 q 0.15,0.2 0.25,0.4 0.05,0.25 0,0.5 z"
           id="path1002"
           inkscape:connector-curvature="0"
           style="fill:#334e63;stroke:none;stroke-width:1.31971669" />
        <path
           d="M 2.85,-3.55 4.5,-8.8 Q 4.55,-9.05 4.5,-9.3 4.4,-9.5 4.25,-9.7 L 0,-12.85 Q -0.25,-13 -0.45,-13 q -0.25,0 -0.4,0.15 l -4.3,3.15 q -0.2,0.2 -0.3,0.4 -0.05,0.25 0,0.5 l 1.65,5.25 q 0.05,0.2 0.3,0.35 0.2,0.15 0.4,0.15 h 5.25 q 0.25,0 0.45,-0.15 0.2,-0.15 0.25,-0.35 z"
           id="path1004"
           inkscape:connector-curvature="0"
           style="fill:#ff6699;stroke:none;stroke-width:1.31971669" />
        <path
           d="m 17.65,-16 q 1.25,-5 -2.25,-5.25 h -5.35 q 0,-0.1 0,-0.25 0.05,-0.25 0.05,-0.5 0,-3.75 -3.05,-6.45 Q 3.9,-31 -0.5,-31 q -4.4,0 -7.55,2.55 -3.05,2.7 -3.05,6.45 0,0.25 0.05,0.5 0,0.15 0.05,0.25 h -5.15 q -3.65,-0.2 -2.6,5.25 l 3.25,13.75 h 6.65 q -1.4,-2.2 -1.4,-5 0,-4 2.85,-6.85 2.85,-2.85 6.85,-2.85 4,0 6.85,2.85 2.8,2.85 2.8,6.85 0,2.8 -1.35,5 h 6.65 z"
           id="path1006"
           inkscape:connector-curvature="0"
           style="fill:#477ca6;stroke:none;stroke-width:1.31971669" />
      </g>
    </g>
    <g
       style="stroke-width:1.31971669;filter:url(#Filter_1)"
       transform="matrix(0.72635743,-0.21580645,0.21580645,0.72635743,35.514637,1045.3212)"
       id="g324">
      <g
         id="g322"
         style="stroke-width:1.31971669"
         transform="translate(1.5012675,-5.0529391)">
        <g
           id="use320"
           style="stroke-width:1.31971669">
          <path
             style="fill:#bfd4e5;stroke:none;stroke-width:1.31971669"
             inkscape:connector-curvature="0"
             id="path964"
             d="m -1.15,10.65 q -0.1,-0.1 -0.15,0.05 -0.1,0.15 -0.15,0.35 v 3.5 q 0,0.15 0.15,0.4 0.1,0.05 0.25,0.05 2.8,-0.05 4.8,-2.05 H 3.8 Q 5.9,10.85 6,7.85 6.05,4.8 4.05,2.7 L 3.9,2.55 Q 3.8726563,3.1056641 3.7,3.65 3.190625,5.5488281 1.5,6.6 1.75,7.146875 1.75,7.75 1.65,8.9 0.95,9.75 0.9,9.75 0.8,9.8 0.05,10.6 -1.15,10.65 M -5.7,-0.45 q -0.4146484,0.0912109 -0.85,0.2 -2.8,0.65 -4.4,3.25 -1.5,2.6 -0.85,5.5 0,0.05 0,0.1 0.75,2.75 3.1,4.25 0.15,0.1 0.3,0.1 0.1,-0.05 0.15,-0.2 L -6.3,9.7 Q -6.2,9.6 -6.2,9.5 -6.3,9.3 -6.4,9.2 -7.3,8.6 -7.6,7.5 -7.6,7.45 -7.6,7.4 -7.85,6.3 -7.25,5.3 -6.7638672,4.5146484 -6.05,4.15 -6.6167969,2.5091797 -6.2,0.8 -6.0076172,0.14257812 -5.7,-0.45 Z" />
          <path
             style="fill:#5393c5;stroke:none;stroke-width:1.31971669"
             inkscape:connector-curvature="0"
             id="path966"
             d="m 3.25,-0.3 q -1,-1.85 -3.05,-2.5 -2,-0.6 -3.95,0.45 -1.2568359,0.7472656 -1.95,1.9 -0.3076172,0.59257812 -0.5,1.25 -0.4167969,1.7091797 0.15,3.35 0.1421875,0.3259766 0.3,0.65 1.05,1.85 3.1,2.45 Q -0.6,7.8 1.25,6.8 1.3902344,6.7189453 1.5,6.6 3.190625,5.5488281 3.7,3.65 3.8726563,3.1056641 3.9,2.55 4.0580078,1.0955078 3.25,-0.3 Z" />
        </g>
      </g>
    </g>
    <g
       style="stroke-width:1.31971669;filter:url(#Filter_1)"
       transform="matrix(-0.75773844,0,0,0.75773844,-90.72629,1075.1209)"
       id="g330">
      <g
         id="g328"
         style="stroke-width:1.31971669">
        <g
           id="use326"
           style="stroke-width:1.31971669">
          <path
             style="fill:#bfd4e5;stroke:none;stroke-width:1.31971669"
             inkscape:connector-curvature="0"
             id="path970"
             d="m -1.15,10.65 q -0.1,-0.1 -0.15,0.05 -0.1,0.15 -0.15,0.35 v 3.5 q 0,0.15 0.15,0.4 0.1,0.05 0.25,0.05 2.8,-0.05 4.8,-2.05 H 3.8 Q 5.9,10.85 6,7.85 6.05,4.8 4.05,2.7 L 3.9,2.55 Q 3.8726563,3.1056641 3.7,3.65 3.190625,5.5488281 1.5,6.6 1.75,7.146875 1.75,7.75 1.65,8.9 0.95,9.75 0.9,9.75 0.8,9.8 0.05,10.6 -1.15,10.65 M -5.7,-0.45 q -0.4146484,0.0912109 -0.85,0.2 -2.8,0.65 -4.4,3.25 -1.5,2.6 -0.85,5.5 0,0.05 0,0.1 0.75,2.75 3.1,4.25 0.15,0.1 0.3,0.1 0.1,-0.05 0.15,-0.2 L -6.3,9.7 Q -6.2,9.6 -6.2,9.5 -6.3,9.3 -6.4,9.2 -7.3,8.6 -7.6,7.5 -7.6,7.45 -7.6,7.4 -7.85,6.3 -7.25,5.3 -6.7638672,4.5146484 -6.05,4.15 -6.6167969,2.5091797 -6.2,0.8 -6.0076172,0.14257812 -5.7,-0.45 Z" />
          <path
             style="fill:#5393c5;stroke:none;stroke-width:1.31971669"
             inkscape:connector-curvature="0"
             id="path972"
             d="m 3.25,-0.3 q -1,-1.85 -3.05,-2.5 -2,-0.6 -3.95,0.45 -1.2568359,0.7472656 -1.95,1.9 -0.3076172,0.59257812 -0.5,1.25 -0.4167969,1.7091797 0.15,3.35 0.1421875,0.3259766 0.3,0.65 1.05,1.85 3.1,2.45 Q -0.6,7.8 1.25,6.8 1.3902344,6.7189453 1.5,6.6 3.190625,5.5488281 3.7,3.65 3.8726563,3.1056641 3.9,2.55 4.0580078,1.0955078 3.25,-0.3 Z" />
        </g>
      </g>
    </g>
    <g
       style="stroke-width:1.31971669;filter:url(#Filter_1)"
       transform="matrix(0.75773844,0,0,0.75773844,-70.077911,1049.5851)"
       id="g832">
      <g
         id="g798"
         style="stroke-width:1.31971669">
        <g
           id="use796"
           style="stroke-width:1.31971669">
          <path
             style="fill:#bfd4e5;stroke:none;stroke-width:1.31971669"
             inkscape:connector-curvature="0"
             id="path1016"
             d="M 11.85,-7.1 Q 17,-12.2 17,-19.45 17,-26.7 11.85,-31.85 6.7,-37 -0.55,-37 q -7.25,0 -12.4,5.15 -5.15,5.15 -5.15,12.4 0,7.25 5.15,12.35 5.15,5.2 12.4,5.2 7.25,0 12.4,-5.2 M 9.4,-19.45 q 0,4.1 -2.9,7 -2.95,2.95 -7.05,2.95 -4.1,0 -7,-2.95 -2.95,-2.9 -2.95,-7 0,-4.1 2.95,-7 2.9,-2.95 7,-2.95 4.1,0 7.05,2.95 2.9,2.9 2.9,7 z" />
          <path
             style="fill:#ffffff;stroke:none;stroke-width:1.31971669"
             inkscape:connector-curvature="0"
             id="path1018"
             d="m 6.5,-12.45 q 2.9,-2.9 2.9,-7 0,-4.1 -2.9,-7 -2.95,-2.95 -7.05,-2.95 -4.1,0 -7,2.95 -2.95,2.9 -2.95,7 0,4.1 2.95,7 2.9,2.95 7,2.95 4.1,0 7.05,-2.95 z" />
        </g>
      </g>
      <g
         id="g802"
         style="stroke-width:1.31971669">
        <g
           id="use800"
           style="stroke-width:1.31971669">
          <path
             style="fill:#477ca6;stroke:none;stroke-width:1.31971669"
             inkscape:connector-curvature="0"
             id="path1022"
             d="m -16,-30.45 q -0.95,0.55 -1.25,1.65 l -2.2,8.2 q -0.3,1.1 0.25,2.15 0.65,0.95 1.75,1.25 h 0.05 q 1.1,0.3 2.1,-0.2 1,-0.65 1.3,-1.75 l 2.15,-8.2 q 0.3,-1.1 -0.3,-2.1 -0.55,-1 -1.6,-1.3 h -0.05 q -1.1,-0.3 -2.2,0.3 z" />
        </g>
      </g>
      <g
         id="g806"
         style="stroke-width:1.31971669">
        <g
           id="use804"
           style="stroke-width:1.31971669">
          <path
             style="fill:#477ca6;stroke:none;stroke-width:1.31971669"
             inkscape:connector-curvature="0"
             id="path1026"
             d="m 16.3,-28.8 q -0.3,-1.1 -1.25,-1.65 -1.1,-0.6 -2.2,-0.3 H 12.8 q -1.1,0.3 -1.65,1.3 -0.6,1 -0.3,2.1 l 2.2,8.2 q 0.3,1.1 1.3,1.75 1,0.5 2.1,0.2 h 0.05 q 1.05,-0.3 1.7,-1.25 0.55,-1.05 0.25,-2.15 z" />
        </g>
      </g>
      <g
         id="g810"
         style="stroke-width:1.31971669">
        <g
           id="use808"
           style="stroke-width:1.31971669">
          <path
             style="fill:#5393c5;stroke:none;stroke-width:1.31971669"
             inkscape:connector-curvature="0"
             id="path1030"
             d="m -24.65,-11 q -2.35,2.35 -2.35,5.65 0,3.3 2.35,5.6 2.4,2.4 5.65,2.4 3.3,0 5.7,-2.4 2.3,-2.3 2.3,-5.6 0,-3.3 -2.3,-5.65 -2.4,-2.4 -5.7,-2.4 -3.25,0 -5.65,2.4 m 2.3,9.05 q -1.4,-1.4 -1.4,-3.4 0,-1.95 1.4,-3.4 1.4,-1.4 3.35,-1.4 2.05,0 3.45,1.4 1.4,1.45 1.4,3.4 0,2 -1.4,3.4 -1.4,1.45 -3.45,1.45 -1.95,0 -3.35,-1.45 M 12.35,-11 Q 10,-8.65 10,-5.35 q 0,3.3 2.35,5.6 2.4,2.4 5.65,2.4 3.3,0 5.7,-2.4 2.3,-2.3 2.3,-5.6 0,-3.3 -2.3,-5.65 -2.4,-2.4 -5.7,-2.4 -3.25,0 -5.65,2.4 m 2.3,2.25 q 1.4,-1.4 3.35,-1.4 2,0 3.45,1.4 1.4,1.45 1.4,3.4 0,2 -1.4,3.4 Q 20,-0.5 18,-0.5 q -1.95,0 -3.35,-1.45 -1.45,-1.4 -1.45,-3.4 0,-1.95 1.45,-3.4 z" />
          <path
             style="fill:#477ca6;stroke:none;stroke-width:1.31971669"
             inkscape:connector-curvature="0"
             id="path1032"
             d="m -23.75,-5.35 q 0,2 1.4,3.4 1.4,1.45 3.35,1.45 2.05,0 3.45,-1.45 1.4,-1.4 1.4,-3.4 0,-1.95 -1.4,-3.4 -1.4,-1.4 -3.45,-1.4 -1.95,0 -3.35,1.4 -1.4,1.45 -1.4,3.4 M 18,-10.15 q -1.95,0 -3.35,1.4 -1.45,1.45 -1.45,3.4 0,2 1.45,3.4 1.4,1.45 3.35,1.45 2,0 3.45,-1.45 1.4,-1.4 1.4,-3.4 0,-1.95 -1.4,-3.4 -1.45,-1.4 -3.45,-1.4 z" />
        </g>
      </g>
      <g
         id="g814"
         style="stroke-width:1.31971669">
        <g
           id="use812"
           style="stroke-width:1.31971669">
          <path
             style="fill:#334e63;stroke:none;stroke-width:1.31971669"
             inkscape:connector-curvature="0"
             id="path1036"
             d="m -18.2,8 h 8 q -0.05,-9.8 -9.3,-12.7 L -18.2,8 m 29.9,0 q 5.35,-0.7 6.1,-5.7 l 0.9,-8.75 Q 9.65,-1.8 9.3,8 Z" />
          <path
             style="fill:#5393c5;stroke:none;stroke-width:1.31971669"
             inkscape:connector-curvature="0"
             id="path1038"
             d="m 18.7,-6.45 1.75,-16.9 H -21.4 l 1.9,18.65 q 9.25,2.9 9.3,12.7 H 9.3 q 0.35,-9.8 9.4,-14.45 z" />
        </g>
      </g>
      <g
         id="g818"
         style="stroke-width:1.31971669">
        <g
           id="use816"
           style="stroke-width:1.31971669">
          <path
             style="fill:#477ca6;stroke:none;stroke-width:1.31971669"
             inkscape:connector-curvature="0"
             id="path1042"
             d="m 5.45,-4.6 q 2.35,-2.35 2.35,-5.65 0,-3.35 -2.35,-5.65 -2.35,-2.35 -5.65,-2.35 -3.35,0 -5.65,2.35 -2.35,2.3 -2.35,5.65 0,3.3 2.35,5.65 2.3,2.35 5.65,2.35 3.3,0 5.65,-2.35 m -0.3,-5.65 q 0,2.2 -1.6,3.75 -1.55,1.6 -3.75,1.6 -2.25,0 -3.85,-1.6 -1.55,-1.55 -1.55,-3.75 0,-2.25 1.55,-3.85 1.6,-1.5 3.85,-1.5 2.2,0 3.75,1.5 1.6,1.6 1.6,3.85 z" />
          <path
             style="fill:#ffcc00;stroke:none;stroke-width:1.31971669"
             inkscape:connector-curvature="0"
             id="path1044"
             d="m 3.55,-6.5 q 1.6,-1.55 1.6,-3.75 0,-2.25 -1.6,-3.85 -1.55,-1.5 -3.75,-1.5 -2.25,0 -3.85,1.5 -1.55,1.6 -1.55,3.85 0,2.2 1.55,3.75 1.6,1.6 3.85,1.6 2.2,0 3.75,-1.6 M 2.9,-10.25 q 0,0.9 -0.65,1.5 -0.55,0.65 -1.45,0.65 -0.9,0 -1.55,-0.65 -0.6,-0.6 -0.6,-1.5 0,-0.9 0.6,-1.55 0.65,-0.6 1.55,-0.6 0.9,0 1.45,0.6 0.65,0.65 0.65,1.55 z" />
          <path
             style="fill:#ffffff;stroke:none;stroke-width:1.31971669"
             inkscape:connector-curvature="0"
             id="path1046"
             d="m 2.25,-8.75 q 0.65,-0.6 0.65,-1.5 0,-0.9 -0.65,-1.55 -0.55,-0.6 -1.45,-0.6 -0.9,0 -1.55,0.6 -0.6,0.65 -0.6,1.55 0,0.9 0.6,1.5 0.65,0.65 1.55,0.65 0.9,0 1.45,-0.65 z" />
        </g>
      </g>
      <g
         id="g822"
         style="stroke-width:1.31971669">
        <g
           id="use820"
           style="stroke-width:1.31971669">
          <path
             style="fill:#bfd4e5;stroke:none;stroke-width:1.31971669"
             inkscape:connector-curvature="0"
             id="path1050"
             d="M 4.95,1.15 Q 4.95,0.85 4.9,0.6 4.55,0.5 4.15,0.5 H -5.3 Q -5.65,0.5 -6,0.6 -6.05,0.85 -6.05,1.15 V 1.2 q 0,0.95 0.6,1.6 0.7,0.7 1.65,0.7 h 6.45 q 0.95,0 1.6,-0.7 0.7,-0.65 0.7,-1.6 z" />
          <path
             style="fill:#334e63;stroke:none;stroke-width:1.31971669"
             inkscape:connector-curvature="0"
             id="path1052"
             d="M 7.1,3.45 Q 7.1,2.25 6.2,1.35 5.6,0.75 4.9,0.6 4.95,0.85 4.95,1.15 V 1.2 q 0,0.95 -0.7,1.6 Q 3.6,3.5 2.65,3.5 H -3.8 q -0.95,0 -1.65,-0.7 -0.6,-0.65 -0.6,-1.6 V 1.15 q 0,-0.3 0.05,-0.55 -0.75,0.15 -1.35,0.75 -0.85,0.9 -0.85,2.1 0,1.2 0.85,2.05 0.9,0.9 2.05,0.9 H 4.15 Q 5.35,6.4 6.2,5.5 7.1,4.65 7.1,3.45 Z" />
        </g>
      </g>
      <g
         id="g826"
         style="stroke-width:1.31971669">
        <g
           id="use824"
           style="stroke-width:1.31971669">
          <path
             style="fill:#477ca6;stroke:none;stroke-width:1.31971669"
             inkscape:connector-curvature="0"
             id="path1056"
             d="m 15.15,-7.9 q 0.9,-0.85 0.9,-2.05 0,-1.2 -0.9,-2.1 -0.85,-0.85 -2.05,-0.85 -1.2,0 -2.1,0.85 -0.85,0.9 -0.85,2.1 0,1.2 0.85,2.05 0.9,0.85 2.1,0.85 1.2,0 2.05,-0.85 z" />
        </g>
      </g>
      <g
         id="g830"
         style="stroke-width:1.31971669">
        <g
           id="use828"
           style="stroke-width:1.31971669">
          <path
             style="fill:#477ca6;stroke:none;stroke-width:1.31971669"
             inkscape:connector-curvature="0"
             id="path1060"
             d="m -11.55,-7.9 q 0.9,-0.85 0.9,-2.05 0,-1.2 -0.9,-2.1 -0.85,-0.85 -2,-0.85 -1.2,0 -2.1,0.85 -0.85,0.9 -0.85,2.1 0,1.2 0.85,2.05 0.9,0.85 2.1,0.85 1.15,0 2,-0.85 z" />
        </g>
      </g>
    </g>
    <g
       id="g1154"
       transform="matrix(0.75773844,0,0,0.75773844,76.458938,999.28632)"
       style="stroke-width:1.31971669;filter:url(#Filter_1)">
      <g
         style="stroke-width:1.31971669"
         id="g1094">
        <g
           style="stroke-width:1.31971669"
           id="g1092">
          <path
             d="M 11.85,-7.1 Q 17,-12.2 17,-19.45 17,-26.7 11.85,-31.85 6.7,-37 -0.55,-37 q -7.25,0 -12.4,5.15 -5.15,5.15 -5.15,12.4 0,7.25 5.15,12.35 5.15,5.2 12.4,5.2 7.25,0 12.4,-5.2 M 9.4,-19.45 q 0,4.1 -2.9,7 -2.95,2.95 -7.05,2.95 -4.1,0 -7,-2.95 -2.95,-2.9 -2.95,-7 0,-4.1 2.95,-7 2.9,-2.95 7,-2.95 4.1,0 7.05,2.95 2.9,2.9 2.9,7 z"
             id="path1088"
             inkscape:connector-curvature="0"
             style="fill:#bfd4e5;stroke:none;stroke-width:1.31971669" />
          <path
             d="m 6.5,-12.45 q 2.9,-2.9 2.9,-7 0,-4.1 -2.9,-7 -2.95,-2.95 -7.05,-2.95 -4.1,0 -7,2.95 -2.95,2.9 -2.95,7 0,4.1 2.95,7 2.9,2.95 7,2.95 4.1,0 7.05,-2.95 z"
             id="path1090"
             inkscape:connector-curvature="0"
             style="fill:#ffffff;stroke:none;stroke-width:1.31971669" />
        </g>
      </g>
      <g
         style="stroke-width:1.31971669"
         id="g1100">
        <g
           style="stroke-width:1.31971669"
           id="g1098">
          <path
             d="m -16,-30.45 q -0.95,0.55 -1.25,1.65 l -2.2,8.2 q -0.3,1.1 0.25,2.15 0.65,0.95 1.75,1.25 h 0.05 q 1.1,0.3 2.1,-0.2 1,-0.65 1.3,-1.75 l 2.15,-8.2 q 0.3,-1.1 -0.3,-2.1 -0.55,-1 -1.6,-1.3 h -0.05 q -1.1,-0.3 -2.2,0.3 z"
             id="path1096"
             inkscape:connector-curvature="0"
             style="fill:#477ca6;stroke:none;stroke-width:1.31971669" />
        </g>
      </g>
      <g
         style="stroke-width:1.31971669"
         id="g1106">
        <g
           style="stroke-width:1.31971669"
           id="g1104">
          <path
             d="m 16.3,-28.8 q -0.3,-1.1 -1.25,-1.65 -1.1,-0.6 -2.2,-0.3 H 12.8 q -1.1,0.3 -1.65,1.3 -0.6,1 -0.3,2.1 l 2.2,8.2 q 0.3,1.1 1.3,1.75 1,0.5 2.1,0.2 h 0.05 q 1.05,-0.3 1.7,-1.25 0.55,-1.05 0.25,-2.15 z"
             id="path1102"
             inkscape:connector-curvature="0"
             style="fill:#477ca6;stroke:none;stroke-width:1.31971669" />
        </g>
      </g>
      <g
         style="stroke-width:1.31971669"
         id="g1114">
        <g
           style="stroke-width:1.31971669"
           id="g1112">
          <path
             d="m -24.65,-11 q -2.35,2.35 -2.35,5.65 0,3.3 2.35,5.6 2.4,2.4 5.65,2.4 3.3,0 5.7,-2.4 2.3,-2.3 2.3,-5.6 0,-3.3 -2.3,-5.65 -2.4,-2.4 -5.7,-2.4 -3.25,0 -5.65,2.4 m 2.3,9.05 q -1.4,-1.4 -1.4,-3.4 0,-1.95 1.4,-3.4 1.4,-1.4 3.35,-1.4 2.05,0 3.45,1.4 1.4,1.45 1.4,3.4 0,2 -1.4,3.4 -1.4,1.45 -3.45,1.45 -1.95,0 -3.35,-1.45 M 12.35,-11 Q 10,-8.65 10,-5.35 q 0,3.3 2.35,5.6 2.4,2.4 5.65,2.4 3.3,0 5.7,-2.4 2.3,-2.3 2.3,-5.6 0,-3.3 -2.3,-5.65 -2.4,-2.4 -5.7,-2.4 -3.25,0 -5.65,2.4 m 2.3,2.25 q 1.4,-1.4 3.35,-1.4 2,0 3.45,1.4 1.4,1.45 1.4,3.4 0,2 -1.4,3.4 Q 20,-0.5 18,-0.5 q -1.95,0 -3.35,-1.45 -1.45,-1.4 -1.45,-3.4 0,-1.95 1.45,-3.4 z"
             id="path1108"
             inkscape:connector-curvature="0"
             style="fill:#5393c5;stroke:none;stroke-width:1.31971669" />
          <path
             d="m -23.75,-5.35 q 0,2 1.4,3.4 1.4,1.45 3.35,1.45 2.05,0 3.45,-1.45 1.4,-1.4 1.4,-3.4 0,-1.95 -1.4,-3.4 -1.4,-1.4 -3.45,-1.4 -1.95,0 -3.35,1.4 -1.4,1.45 -1.4,3.4 M 18,-10.15 q -1.95,0 -3.35,1.4 -1.45,1.45 -1.45,3.4 0,2 1.45,3.4 1.4,1.45 3.35,1.45 2,0 3.45,-1.45 1.4,-1.4 1.4,-3.4 0,-1.95 -1.4,-3.4 -1.45,-1.4 -3.45,-1.4 z"
             id="path1110"
             inkscape:connector-curvature="0"
             style="fill:#477ca6;stroke:none;stroke-width:1.31971669" />
        </g>
      </g>
      <g
         style="stroke-width:1.31971669"
         id="g1122">
        <g
           style="stroke-width:1.31971669"
           id="g1120">
          <path
             d="m -18.2,8 h 8 q -0.05,-9.8 -9.3,-12.7 L -18.2,8 m 29.9,0 q 5.35,-0.7 6.1,-5.7 l 0.9,-8.75 Q 9.65,-1.8 9.3,8 Z"
             id="path1116"
             inkscape:connector-curvature="0"
             style="fill:#334e63;stroke:none;stroke-width:1.31971669" />
          <path
             d="m 18.7,-6.45 1.75,-16.9 H -21.4 l 1.9,18.65 q 9.25,2.9 9.3,12.7 H 9.3 q 0.35,-9.8 9.4,-14.45 z"
             id="path1118"
             inkscape:connector-curvature="0"
             style="fill:#5393c5;stroke:none;stroke-width:1.31971669" />
        </g>
      </g>
      <g
         style="stroke-width:1.31971669"
         id="g1132">
        <g
           style="stroke-width:1.31971669"
           id="g1130">
          <path
             d="m 5.45,-4.6 q 2.35,-2.35 2.35,-5.65 0,-3.35 -2.35,-5.65 -2.35,-2.35 -5.65,-2.35 -3.35,0 -5.65,2.35 -2.35,2.3 -2.35,5.65 0,3.3 2.35,5.65 2.3,2.35 5.65,2.35 3.3,0 5.65,-2.35 m -0.3,-5.65 q 0,2.2 -1.6,3.75 -1.55,1.6 -3.75,1.6 -2.25,0 -3.85,-1.6 -1.55,-1.55 -1.55,-3.75 0,-2.25 1.55,-3.85 1.6,-1.5 3.85,-1.5 2.2,0 3.75,1.5 1.6,1.6 1.6,3.85 z"
             id="path1124"
             inkscape:connector-curvature="0"
             style="fill:#477ca6;stroke:none;stroke-width:1.31971669" />
          <path
             d="m 3.55,-6.5 q 1.6,-1.55 1.6,-3.75 0,-2.25 -1.6,-3.85 -1.55,-1.5 -3.75,-1.5 -2.25,0 -3.85,1.5 -1.55,1.6 -1.55,3.85 0,2.2 1.55,3.75 1.6,1.6 3.85,1.6 2.2,0 3.75,-1.6 M 2.9,-10.25 q 0,0.9 -0.65,1.5 -0.55,0.65 -1.45,0.65 -0.9,0 -1.55,-0.65 -0.6,-0.6 -0.6,-1.5 0,-0.9 0.6,-1.55 0.65,-0.6 1.55,-0.6 0.9,0 1.45,0.6 0.65,0.65 0.65,1.55 z"
             id="path1126"
             inkscape:connector-curvature="0"
             style="fill:#ffcc00;stroke:none;stroke-width:1.31971669" />
          <path
             d="m 2.25,-8.75 q 0.65,-0.6 0.65,-1.5 0,-0.9 -0.65,-1.55 -0.55,-0.6 -1.45,-0.6 -0.9,0 -1.55,0.6 -0.6,0.65 -0.6,1.55 0,0.9 0.6,1.5 0.65,0.65 1.55,0.65 0.9,0 1.45,-0.65 z"
             id="path1128"
             inkscape:connector-curvature="0"
             style="fill:#ffffff;stroke:none;stroke-width:1.31971669" />
        </g>
      </g>
      <g
         style="stroke-width:1.31971669"
         id="g1140">
        <g
           style="stroke-width:1.31971669"
           id="g1138">
          <path
             d="M 4.95,1.15 Q 4.95,0.85 4.9,0.6 4.55,0.5 4.15,0.5 H -5.3 Q -5.65,0.5 -6,0.6 -6.05,0.85 -6.05,1.15 V 1.2 q 0,0.95 0.6,1.6 0.7,0.7 1.65,0.7 h 6.45 q 0.95,0 1.6,-0.7 0.7,-0.65 0.7,-1.6 z"
             id="path1134"
             inkscape:connector-curvature="0"
             style="fill:#bfd4e5;stroke:none;stroke-width:1.31971669" />
          <path
             d="M 7.1,3.45 Q 7.1,2.25 6.2,1.35 5.6,0.75 4.9,0.6 4.95,0.85 4.95,1.15 V 1.2 q 0,0.95 -0.7,1.6 Q 3.6,3.5 2.65,3.5 H -3.8 q -0.95,0 -1.65,-0.7 -0.6,-0.65 -0.6,-1.6 V 1.15 q 0,-0.3 0.05,-0.55 -0.75,0.15 -1.35,0.75 -0.85,0.9 -0.85,2.1 0,1.2 0.85,2.05 0.9,0.9 2.05,0.9 H 4.15 Q 5.35,6.4 6.2,5.5 7.1,4.65 7.1,3.45 Z"
             id="path1136"
             inkscape:connector-curvature="0"
             style="fill:#334e63;stroke:none;stroke-width:1.31971669" />
        </g>
      </g>
      <g
         style="stroke-width:1.31971669"
         id="g1146">
        <g
           style="stroke-width:1.31971669"
           id="g1144">
          <path
             d="m 15.15,-7.9 q 0.9,-0.85 0.9,-2.05 0,-1.2 -0.9,-2.1 -0.85,-0.85 -2.05,-0.85 -1.2,0 -2.1,0.85 -0.85,0.9 -0.85,2.1 0,1.2 0.85,2.05 0.9,0.85 2.1,0.85 1.2,0 2.05,-0.85 z"
             id="path1142"
             inkscape:connector-curvature="0"
             style="fill:#477ca6;stroke:none;stroke-width:1.31971669" />
        </g>
      </g>
      <g
         style="stroke-width:1.31971669"
         id="g1152">
        <g
           style="stroke-width:1.31971669"
           id="g1150">
          <path
             d="m -11.55,-7.9 q 0.9,-0.85 0.9,-2.05 0,-1.2 -0.9,-2.1 -0.85,-0.85 -2,-0.85 -1.2,0 -2.1,0.85 -0.85,0.9 -0.85,2.1 0,1.2 0.85,2.05 0.9,0.85 2.1,0.85 1.15,0 2,-0.85 z"
             id="path1148"
             inkscape:connector-curvature="0"
             style="fill:#477ca6;stroke:none;stroke-width:1.31971669" />
        </g>
      </g>
    </g>
    <g
       id="g1194"
       transform="matrix(0.75773844,0,0,0.75773844,22.185723,990.73989)"
       style="stroke-width:1.31971669;filter:url(#Filter_1)">
      <g
         style="stroke-width:1.31971669"
         id="g1180">
        <g
           style="stroke-width:1.31971669"
           id="g1178">
          <path
             d="m -12.95,-14.9 q 1.95,-1.9 1.95,-4.6 0,-2.7 -1.95,-4.6 -1.9,-1.9 -4.6,-1.9 -2.7,0 -4.55,1.9 -1.9,1.9 -1.9,4.6 0,2.7 1.9,4.6 1.85,1.9 4.55,1.9 2.7,0 4.6,-1.9 m 34.05,0 q 1.9,-1.9 1.9,-4.6 0,-2.7 -1.9,-4.6 -1.9,-1.9 -4.6,-1.9 -2.7,0 -4.55,1.9 -1.95,1.9 -1.95,4.6 0,2.7 1.95,4.6 1.85,1.9 4.55,1.9 2.7,0 4.6,-1.9 z"
             id="path1176"
             inkscape:connector-curvature="0"
             style="fill:#334e63;stroke:none;stroke-width:1.31971669" />
        </g>
      </g>
      <g
         style="stroke-width:1.31971669"
         id="g1192">
        <g
           style="stroke-width:1.31971669"
           id="g1190">
          <path
             d="M 12.9,8 Q 14.3,6.05 14.4,2.75 H -15.5 Q -15.4,6.05 -14,8 Z"
             id="path1182"
             inkscape:connector-curvature="0"
             style="fill:#5393c5;stroke:none;stroke-width:1.31971669" />
          <path
             d="m 7.75,-2.25 q 1.35,-2.2 1.35,-5 0,-4 -2.8,-6.85 -2.85,-2.85 -6.85,-2.85 -4,0 -6.85,2.85 -2.85,2.85 -2.85,6.85 0,2.8 1.4,5 h -6.65 v 5 h 29.9 v -5 H 7.75 M 4.5,-8.8 2.85,-3.55 Q 2.8,-3.35 2.6,-3.2 2.4,-3.05 2.15,-3.05 H -3.1 q -0.2,0 -0.4,-0.15 -0.25,-0.15 -0.3,-0.35 L -5.45,-8.8 q -0.05,-0.25 0,-0.5 0.1,-0.2 0.3,-0.4 l 4.3,-3.15 q 0.15,-0.15 0.4,-0.15 0.2,0 0.45,0.15 l 4.25,3.15 q 0.15,0.2 0.25,0.4 0.05,0.25 0,0.5 z"
             id="path1184"
             inkscape:connector-curvature="0"
             style="fill:#334e63;stroke:none;stroke-width:1.31971669" />
          <path
             d="M 2.85,-3.55 4.5,-8.8 Q 4.55,-9.05 4.5,-9.3 4.4,-9.5 4.25,-9.7 L 0,-12.85 Q -0.25,-13 -0.45,-13 q -0.25,0 -0.4,0.15 l -4.3,3.15 q -0.2,0.2 -0.3,0.4 -0.05,0.25 0,0.5 l 1.65,5.25 q 0.05,0.2 0.3,0.35 0.2,0.15 0.4,0.15 h 5.25 q 0.25,0 0.45,-0.15 0.2,-0.15 0.25,-0.35 z"
             id="path1186"
             inkscape:connector-curvature="0"
             style="fill:#ff6699;stroke:none;stroke-width:1.31971669" />
          <path
             d="m 17.65,-16 q 1.25,-5 -2.25,-5.25 h -5.35 q 0,-0.1 0,-0.25 0.05,-0.25 0.05,-0.5 0,-3.75 -3.05,-6.45 Q 3.9,-31 -0.5,-31 q -4.4,0 -7.55,2.55 -3.05,2.7 -3.05,6.45 0,0.25 0.05,0.5 0,0.15 0.05,0.25 h -5.15 q -3.65,-0.2 -2.6,5.25 l 3.25,13.75 h 6.65 q -1.4,-2.2 -1.4,-5 0,-4 2.85,-6.85 2.85,-2.85 6.85,-2.85 4,0 6.85,2.85 2.8,2.85 2.8,6.85 0,2.8 -1.35,5 h 6.65 z"
             id="path1188"
             inkscape:connector-curvature="0"
             style="fill:#477ca6;stroke:none;stroke-width:1.31971669" />
        </g>
      </g>
    </g>
    <path
       style="fill:#334e63;stroke:none;stroke-width:1.00000012"
       inkscape:connector-curvature="0"
       id="path1196"
       d="m 41.63929,1088.9768 -4.35699,-4.5464 h -4.39489 v -3.2962 q 0,-0.9472 -0.68196,-1.6291 -0.68197,-0.682 -1.62914,-0.682 h -0.0379 q -0.94717,0 -1.62913,0.682 -0.34099,0.3409 -0.53042,0.7577 -0.15155,0.4167 -0.15155,0.8714 L 28,1091.25 h 13.56352 l 0.0758,-2.2732 m -11.06298,-8.8277 q 0.45464,0 0.79563,0.341 0.34098,0.341 0.34098,0.7956 0,0.4547 -0.34098,0.7957 -0.34099,0.3409 -0.79563,0.3409 -0.45464,0 -0.79562,-0.3409 -0.34099,-0.341 -0.34099,-0.7957 0,-0.4546 0.34099,-0.7956 0.34098,-0.341 0.79562,-0.341 z" />
    <path
       style="fill:#477ca6;stroke:none;stroke-width:1.00000012"
       inkscape:connector-curvature="0"
       id="path1198"
       d="m 33.59711,1070.4646 q -0.34099,-0.341 -0.79563,-0.341 -0.45464,0 -0.79562,0.341 -0.34099,0.3409 -0.34099,0.7956 0,0.4546 0.34099,0.7956 0.34098,0.341 0.79562,0.341 0.45464,0 0.79563,-0.341 0.34098,-0.341 0.34098,-0.7956 0,-0.4547 -0.34098,-0.7956 M 40,1063.6449 q 0,-1.8186 -1.43971,-3.1067 -1.40181,-1.2882 -3.44771,-1.2882 -2.008,0 -3.44771,1.2882 -1.4397,1.2881 -1.4397,3.1067 l 0.37887,6.5923 q 0.18943,-0.4167 0.53042,-0.7577 0.68196,-0.682 1.62913,-0.682 h 0.0379 q 0.94717,0 1.62914,0.682 0.68196,0.682 0.68196,1.6291 v 3.2962 h 4.39489 0.0379 z" />
    <g
       style="stroke-width:1.32498157;filter:url(#Filter_1)"
       transform="matrix(0.75471172,0.00474093,-0.00474093,0.75471172,76.35199,1041.1568)"
       id="g470">
      <g
         id="g432"
         style="stroke-width:1.32498157">
        <g
           id="use430"
           style="stroke-width:1.32498157">
          <path
             style="fill:#bfd4e5;stroke:none;stroke-width:1.32498157"
             inkscape:connector-curvature="0"
             id="path1286"
             d="M 11.85,-7.1 Q 17,-12.2 17,-19.45 17,-26.7 11.85,-31.85 6.7,-37 -0.55,-37 q -7.25,0 -12.4,5.15 -5.15,5.15 -5.15,12.4 0,7.25 5.15,12.35 5.15,5.2 12.4,5.2 7.25,0 12.4,-5.2 M 9.4,-19.45 q 0,4.1 -2.9,7 -2.95,2.95 -7.05,2.95 -4.1,0 -7,-2.95 -2.95,-2.9 -2.95,-7 0,-4.1 2.95,-7 2.9,-2.95 7,-2.95 4.1,0 7.05,2.95 2.9,2.9 2.9,7 z" />
          <path
             style="fill:#ffffff;stroke:none;stroke-width:1.32498157"
             inkscape:connector-curvature="0"
             id="path1288"
             d="m 6.5,-12.45 q 2.9,-2.9 2.9,-7 0,-4.1 -2.9,-7 -2.95,-2.95 -7.05,-2.95 -4.1,0 -7,2.95 -2.95,2.9 -2.95,7 0,4.1 2.95,7 2.9,2.95 7,2.95 4.1,0 7.05,-2.95 z" />
        </g>
      </g>
      <g
         id="g436"
         style="stroke-width:1.32498157">
        <g
           id="use434"
           style="stroke-width:1.32498157">
          <path
             style="fill:#477ca6;stroke:none;stroke-width:1.32498157"
             inkscape:connector-curvature="0"
             id="path1292"
             d="m -16,-30.45 q -0.95,0.55 -1.25,1.65 l -2.2,8.2 q -0.3,1.1 0.25,2.15 0.65,0.95 1.75,1.25 h 0.05 q 1.1,0.3 2.1,-0.2 1,-0.65 1.3,-1.75 l 2.15,-8.2 q 0.3,-1.1 -0.3,-2.1 -0.55,-1 -1.6,-1.3 h -0.05 q -1.1,-0.3 -2.2,0.3 z" />
        </g>
      </g>
      <g
         id="g440"
         style="stroke-width:1.32498157">
        <g
           id="use438"
           style="stroke-width:1.32498157">
          <path
             style="fill:#477ca6;stroke:none;stroke-width:1.32498157"
             inkscape:connector-curvature="0"
             id="path1296"
             d="m 16.3,-28.8 q -0.3,-1.1 -1.25,-1.65 -1.1,-0.6 -2.2,-0.3 H 12.8 q -1.1,0.3 -1.65,1.3 -0.6,1 -0.3,2.1 l 2.2,8.2 q 0.3,1.1 1.3,1.75 1,0.5 2.1,0.2 h 0.05 q 1.05,-0.3 1.7,-1.25 0.55,-1.05 0.25,-2.15 z" />
        </g>
      </g>
      <g
         id="g444"
         style="stroke-width:1.32498157">
        <g
           id="use442"
           style="stroke-width:1.32498157">
          <path
             style="fill:#5393c5;stroke:none;stroke-width:1.32498157"
             inkscape:connector-curvature="0"
             id="path1300"
             d="m -24.65,-11 q -2.35,2.35 -2.35,5.65 0,3.3 2.35,5.6 2.4,2.4 5.65,2.4 3.3,0 5.7,-2.4 2.3,-2.3 2.3,-5.6 0,-3.3 -2.3,-5.65 -2.4,-2.4 -5.7,-2.4 -3.25,0 -5.65,2.4 m 2.3,9.05 q -1.4,-1.4 -1.4,-3.4 0,-1.95 1.4,-3.4 1.4,-1.4 3.35,-1.4 2.05,0 3.45,1.4 1.4,1.45 1.4,3.4 0,2 -1.4,3.4 -1.4,1.45 -3.45,1.45 -1.95,0 -3.35,-1.45 M 18,-13.4 q -3.25,0 -5.65,2.4 -2.35,2.35 -2.35,5.65 0,3.3 2.35,5.6 2.4,2.4 5.65,2.4 3.3,0 5.7,-2.4 2.3,-2.3 2.3,-5.6 0,-3.3 -2.3,-5.65 -2.4,-2.4 -5.7,-2.4 m 0,12.9 q -1.95,0 -3.35,-1.45 -1.45,-1.4 -1.45,-3.4 0,-1.95 1.45,-3.4 1.4,-1.4 3.35,-1.4 2,0 3.45,1.4 1.4,1.45 1.4,3.4 0,2 -1.4,3.4 Q 20,-0.5 18,-0.5 Z" />
          <path
             style="fill:#477ca6;stroke:none;stroke-width:1.32498157"
             inkscape:connector-curvature="0"
             id="path1302"
             d="m -23.75,-5.35 q 0,2 1.4,3.4 1.4,1.45 3.35,1.45 2.05,0 3.45,-1.45 1.4,-1.4 1.4,-3.4 0,-1.95 -1.4,-3.4 -1.4,-1.4 -3.45,-1.4 -1.95,0 -3.35,1.4 -1.4,1.45 -1.4,3.4 m 38.4,3.4 q 1.4,1.45 3.35,1.45 2,0 3.45,-1.45 1.4,-1.4 1.4,-3.4 0,-1.95 -1.4,-3.4 -1.45,-1.4 -3.45,-1.4 -1.95,0 -3.35,1.4 -1.45,1.45 -1.45,3.4 0,2 1.45,3.4 z" />
        </g>
      </g>
      <g
         id="g448"
         style="stroke-width:1.32498157">
        <g
           id="use446"
           style="stroke-width:1.32498157">
          <path
             style="fill:#334e63;stroke:none;stroke-width:1.32498157"
             inkscape:connector-curvature="0"
             id="path1306"
             d="m -18.2,8 h 8 q -0.05,-9.8 -9.3,-12.7 L -18.2,8 m 29.9,0 q 5.35,-0.7 6.1,-5.7 l 0.9,-8.75 Q 9.65,-1.8 9.3,8 Z" />
          <path
             style="fill:#5393c5;stroke:none;stroke-width:1.32498157"
             inkscape:connector-curvature="0"
             id="path1308"
             d="m 18.7,-6.45 1.75,-16.9 H -21.4 l 1.9,18.65 q 9.25,2.9 9.3,12.7 H 9.3 q 0.35,-9.8 9.4,-14.45 z" />
        </g>
      </g>
      <g
         id="g452"
         style="stroke-width:1.32498157">
        <g
           id="use450"
           style="stroke-width:1.32498157">
          <path
             style="fill:#477ca6;stroke:none;stroke-width:1.32498157"
             inkscape:connector-curvature="0"
             id="path1312"
             d="m 5.45,-4.6 q 2.35,-2.35 2.35,-5.65 0,-3.35 -2.35,-5.65 -2.35,-2.35 -5.65,-2.35 -3.35,0 -5.65,2.35 -2.35,2.3 -2.35,5.65 0,3.3 2.35,5.65 2.3,2.35 5.65,2.35 3.3,0 5.65,-2.35 m -0.3,-5.65 q 0,2.2 -1.6,3.75 -1.55,1.6 -3.75,1.6 -2.25,0 -3.85,-1.6 -1.55,-1.55 -1.55,-3.75 0,-2.25 1.55,-3.85 1.6,-1.5 3.85,-1.5 2.2,0 3.75,1.5 1.6,1.6 1.6,3.85 z" />
          <path
             style="fill:#ffcc00;stroke:none;stroke-width:1.32498157"
             inkscape:connector-curvature="0"
             id="path1314"
             d="m 3.55,-6.5 q 1.6,-1.55 1.6,-3.75 0,-2.25 -1.6,-3.85 -1.55,-1.5 -3.75,-1.5 -2.25,0 -3.85,1.5 -1.55,1.6 -1.55,3.85 0,2.2 1.55,3.75 1.6,1.6 3.85,1.6 2.2,0 3.75,-1.6 M 2.9,-10.25 q 0,0.9 -0.65,1.5 -0.55,0.65 -1.45,0.65 -0.9,0 -1.55,-0.65 -0.6,-0.6 -0.6,-1.5 0,-0.9 0.6,-1.55 0.65,-0.6 1.55,-0.6 0.9,0 1.45,0.6 0.65,0.65 0.65,1.55 z" />
          <path
             style="fill:#ffffff;stroke:none;stroke-width:1.32498157"
             inkscape:connector-curvature="0"
             id="path1316"
             d="m 2.25,-8.75 q 0.65,-0.6 0.65,-1.5 0,-0.9 -0.65,-1.55 -0.55,-0.6 -1.45,-0.6 -0.9,0 -1.55,0.6 -0.6,0.65 -0.6,1.55 0,0.9 0.6,1.5 0.65,0.65 1.55,0.65 0.9,0 1.45,-0.65 z" />
        </g>
      </g>
      <g
         id="g456"
         style="stroke-width:1.32498157">
        <g
           id="use454"
           style="stroke-width:1.32498157">
          <path
             style="fill:#477ca6;stroke:none;stroke-width:1.32498157"
             inkscape:connector-curvature="0"
             id="path1320"
             d="m 15.15,-7.9 q 0.9,-0.85 0.9,-2.05 0,-1.2 -0.9,-2.1 -0.85,-0.85 -2.05,-0.85 -1.2,0 -2.1,0.85 -0.85,0.9 -0.85,2.1 0,1.2 0.85,2.05 0.9,0.85 2.1,0.85 1.2,0 2.05,-0.85 z" />
        </g>
      </g>
      <g
         id="g460"
         style="stroke-width:1.32498157">
        <g
           id="use458"
           style="stroke-width:1.32498157">
          <path
             style="fill:#477ca6;stroke:none;stroke-width:1.32498157"
             inkscape:connector-curvature="0"
             id="path1324"
             d="m -11.55,-7.9 q 0.9,-0.85 0.9,-2.05 0,-1.2 -0.9,-2.1 -0.85,-0.85 -2,-0.85 -1.2,0 -2.1,0.85 -0.85,0.9 -0.85,2.1 0,1.2 0.85,2.05 0.9,0.85 2.1,0.85 1.15,0 2,-0.85 z" />
        </g>
      </g>
      <g
         id="g464"
         style="stroke-width:1.32498157">
        <g
           id="use462"
           style="stroke-width:1.32498157">
          <path
             style="fill:#5393c5;stroke:none;stroke-width:1.32498157"
             inkscape:connector-curvature="0"
             id="path1328"
             d="m 10.2,-18.05 q -1.35,-1.1 -3.3,-1.1 H -6.8 q -1.95,0 -3.35,1.1 -1.35,1.15 -1.35,2.75 0,1.6 1.35,2.7 1.4,1.15 3.35,1.15 H 6.9 q 1.95,0 3.3,-1.15 1.4,-1.1 1.4,-2.7 0,-1.6 -1.4,-2.75 z" />
        </g>
      </g>
      <g
         id="g468"
         style="stroke-width:1.32498157">
        <g
           id="use466"
           style="stroke-width:1.32498157">
          <path
             style="fill:#334e63;stroke:none;stroke-width:1.32498157"
             inkscape:connector-curvature="0"
             id="path1332"
             d="M 0.85,2.15 Q 0.65,1.8 0.2,1.7 L -5.6,0.05 q -0.45,-0.15 -0.9,0.05 -0.35,0.25 -0.45,0.75 -0.15,0.5 0.05,0.9 0.25,0.4 0.7,0.55 l 5.8,1.65 Q 0.05,4.05 0.45,3.8 0.8,3.6 0.95,3.1 1.05,2.6 0.85,2.15 Z" />
        </g>
      </g>
    </g>
    <g
       style="stroke-width:1.32499921;filter:url(#Filter_1)"
       transform="matrix(0.75471698,4.5009508e-5,-4.5009508e-5,0.75471698,76.377118,1081.2117)"
       id="g702">
      <g
         id="g668"
         style="stroke-width:1.32499921">
        <g
           id="use666"
           style="stroke-width:1.32499921">
          <path
             style="fill:#bfd4e5;stroke:none;stroke-width:1.32499921"
             inkscape:connector-curvature="0"
             id="path1402"
             d="M 11.85,-7.1 Q 17,-12.2 17,-19.45 17,-26.7 11.85,-31.85 6.7,-37 -0.55,-37 q -7.25,0 -12.4,5.15 -5.15,5.15 -5.15,12.4 0,7.25 5.15,12.35 5.15,5.2 12.4,5.2 7.25,0 12.4,-5.2 M 9.4,-19.45 q 0,4.1 -2.9,7 -2.95,2.95 -7.05,2.95 -4.1,0 -7,-2.95 -2.95,-2.9 -2.95,-7 0,-4.1 2.95,-7 2.9,-2.95 7,-2.95 4.1,0 7.05,2.95 2.9,2.9 2.9,7 z" />
          <path
             style="fill:#ffffff;stroke:none;stroke-width:1.32499921"
             inkscape:connector-curvature="0"
             id="path1404"
             d="m 6.5,-12.45 q 2.9,-2.9 2.9,-7 0,-4.1 -2.9,-7 -2.95,-2.95 -7.05,-2.95 -4.1,0 -7,2.95 -2.95,2.9 -2.95,7 0,4.1 2.95,7 2.9,2.95 7,2.95 4.1,0 7.05,-2.95 z" />
        </g>
      </g>
      <g
         id="g672"
         style="stroke-width:1.32499921">
        <g
           id="use670"
           style="stroke-width:1.32499921">
          <path
             style="fill:#477ca6;stroke:none;stroke-width:1.32499921"
             inkscape:connector-curvature="0"
             id="path1408"
             d="m -16,-30.45 q -0.95,0.55 -1.25,1.65 l -2.2,8.2 q -0.3,1.1 0.25,2.15 0.65,0.95 1.75,1.25 h 0.05 q 1.1,0.3 2.1,-0.2 1,-0.65 1.3,-1.75 l 2.15,-8.2 q 0.3,-1.1 -0.3,-2.1 -0.55,-1 -1.6,-1.3 h -0.05 q -1.1,-0.3 -2.2,0.3 z" />
        </g>
      </g>
      <g
         id="g676"
         style="stroke-width:1.32499921">
        <g
           id="use674"
           style="stroke-width:1.32499921">
          <path
             style="fill:#477ca6;stroke:none;stroke-width:1.32499921"
             inkscape:connector-curvature="0"
             id="path1412"
             d="m 16.3,-28.8 q -0.3,-1.1 -1.25,-1.65 -1.1,-0.6 -2.2,-0.3 H 12.8 q -1.1,0.3 -1.65,1.3 -0.6,1 -0.3,2.1 l 2.2,8.2 q 0.3,1.1 1.3,1.75 1,0.5 2.1,0.2 h 0.05 q 1.05,-0.3 1.7,-1.25 0.55,-1.05 0.25,-2.15 z" />
        </g>
      </g>
      <g
         id="g680"
         style="stroke-width:1.32499921">
        <g
           id="use678"
           style="stroke-width:1.32499921">
          <path
             style="fill:#5393c5;stroke:none;stroke-width:1.32499921"
             inkscape:connector-curvature="0"
             id="path1416"
             d="m -24.65,-11 q -2.35,2.35 -2.35,5.65 0,3.3 2.35,5.6 2.4,2.4 5.65,2.4 3.3,0 5.7,-2.4 2.3,-2.3 2.3,-5.6 0,-3.3 -2.3,-5.65 -2.4,-2.4 -5.7,-2.4 -3.25,0 -5.65,2.4 m 2.3,9.05 q -1.4,-1.4 -1.4,-3.4 0,-1.95 1.4,-3.4 1.4,-1.4 3.35,-1.4 2.05,0 3.45,1.4 1.4,1.45 1.4,3.4 0,2 -1.4,3.4 -1.4,1.45 -3.45,1.45 -1.95,0 -3.35,-1.45 M 18,-13.4 q -3.25,0 -5.65,2.4 -2.35,2.35 -2.35,5.65 0,3.3 2.35,5.6 2.4,2.4 5.65,2.4 3.3,0 5.7,-2.4 2.3,-2.3 2.3,-5.6 0,-3.3 -2.3,-5.65 -2.4,-2.4 -5.7,-2.4 m 0,12.9 q -1.95,0 -3.35,-1.45 -1.45,-1.4 -1.45,-3.4 0,-1.95 1.45,-3.4 1.4,-1.4 3.35,-1.4 2,0 3.45,1.4 1.4,1.45 1.4,3.4 0,2 -1.4,3.4 Q 20,-0.5 18,-0.5 Z" />
          <path
             style="fill:#477ca6;stroke:none;stroke-width:1.32499921"
             inkscape:connector-curvature="0"
             id="path1418"
             d="m -23.75,-5.35 q 0,2 1.4,3.4 1.4,1.45 3.35,1.45 2.05,0 3.45,-1.45 1.4,-1.4 1.4,-3.4 0,-1.95 -1.4,-3.4 -1.4,-1.4 -3.45,-1.4 -1.95,0 -3.35,1.4 -1.4,1.45 -1.4,3.4 m 38.4,3.4 q 1.4,1.45 3.35,1.45 2,0 3.45,-1.45 1.4,-1.4 1.4,-3.4 0,-1.95 -1.4,-3.4 -1.45,-1.4 -3.45,-1.4 -1.95,0 -3.35,1.4 -1.45,1.45 -1.45,3.4 0,2 1.45,3.4 z" />
        </g>
      </g>
      <g
         id="g684"
         style="stroke-width:1.32499921">
        <g
           id="use682"
           style="stroke-width:1.32499921">
          <path
             style="fill:#334e63;stroke:none;stroke-width:1.32499921"
             inkscape:connector-curvature="0"
             id="path1422"
             d="m -18.2,8 h 8 q -0.05,-9.8 -9.3,-12.7 L -18.2,8 m 29.9,0 q 5.35,-0.7 6.1,-5.7 l 0.9,-8.75 Q 9.65,-1.8 9.3,8 Z" />
          <path
             style="fill:#5393c5;stroke:none;stroke-width:1.32499921"
             inkscape:connector-curvature="0"
             id="path1424"
             d="m 18.7,-6.45 1.75,-16.9 H -21.4 l 1.9,18.65 q 9.25,2.9 9.3,12.7 H 9.3 q 0.35,-9.8 9.4,-14.45 z" />
        </g>
      </g>
      <g
         id="g688"
         style="stroke-width:1.32499921">
        <g
           id="use686"
           style="stroke-width:1.32499921">
          <path
             style="fill:#477ca6;stroke:none;stroke-width:1.32499921"
             inkscape:connector-curvature="0"
             id="path1428"
             d="m 5.45,-4.6 q 2.35,-2.35 2.35,-5.65 0,-3.35 -2.35,-5.65 -2.35,-2.35 -5.65,-2.35 -3.35,0 -5.65,2.35 -2.35,2.3 -2.35,5.65 0,3.3 2.35,5.65 2.3,2.35 5.65,2.35 3.3,0 5.65,-2.35 m -0.3,-5.65 q 0,2.2 -1.6,3.75 -1.55,1.6 -3.75,1.6 -2.25,0 -3.85,-1.6 -1.55,-1.55 -1.55,-3.75 0,-2.25 1.55,-3.85 1.6,-1.5 3.85,-1.5 2.2,0 3.75,1.5 1.6,1.6 1.6,3.85 z" />
          <path
             style="fill:#ffcc00;stroke:none;stroke-width:1.32499921"
             inkscape:connector-curvature="0"
             id="path1430"
             d="m 3.55,-6.5 q 1.6,-1.55 1.6,-3.75 0,-2.25 -1.6,-3.85 -1.55,-1.5 -3.75,-1.5 -2.25,0 -3.85,1.5 -1.55,1.6 -1.55,3.85 0,2.2 1.55,3.75 1.6,1.6 3.85,1.6 2.2,0 3.75,-1.6 M 2.9,-10.25 q 0,0.9 -0.65,1.5 -0.55,0.65 -1.45,0.65 -0.9,0 -1.55,-0.65 -0.6,-0.6 -0.6,-1.5 0,-0.9 0.6,-1.55 0.65,-0.6 1.55,-0.6 0.9,0 1.45,0.6 0.65,0.65 0.65,1.55 z" />
          <path
             style="fill:#ffffff;stroke:none;stroke-width:1.32499921"
             inkscape:connector-curvature="0"
             id="path1432"
             d="m 2.25,-8.75 q 0.65,-0.6 0.65,-1.5 0,-0.9 -0.65,-1.55 -0.55,-0.6 -1.45,-0.6 -0.9,0 -1.55,0.6 -0.6,0.65 -0.6,1.55 0,0.9 0.6,1.5 0.65,0.65 1.55,0.65 0.9,0 1.45,-0.65 z" />
        </g>
      </g>
      <g
         id="g692"
         style="stroke-width:1.32499921">
        <g
           id="use690"
           style="stroke-width:1.32499921">
          <path
             style="fill:#477ca6;stroke:none;stroke-width:1.32499921"
             inkscape:connector-curvature="0"
             id="path1436"
             d="m 15.15,-7.9 q 0.9,-0.85 0.9,-2.05 0,-1.2 -0.9,-2.1 -0.85,-0.85 -2.05,-0.85 -1.2,0 -2.1,0.85 -0.85,0.9 -0.85,2.1 0,1.2 0.85,2.05 0.9,0.85 2.1,0.85 1.2,0 2.05,-0.85 z" />
        </g>
      </g>
      <g
         id="g696"
         style="stroke-width:1.32499921">
        <g
           id="use694"
           style="stroke-width:1.32499921">
          <path
             style="fill:#477ca6;stroke:none;stroke-width:1.32499921"
             inkscape:connector-curvature="0"
             id="path1440"
             d="m -11.55,-7.9 q 0.9,-0.85 0.9,-2.05 0,-1.2 -0.9,-2.1 -0.85,-0.85 -2,-0.85 -1.2,0 -2.1,0.85 -0.85,0.9 -0.85,2.1 0,1.2 0.85,2.05 0.9,0.85 2.1,0.85 1.15,0 2,-0.85 z" />
        </g>
      </g>
      <g
         id="g700"
         style="stroke-width:1.32499921">
        <g
           id="use698"
           style="stroke-width:1.32499921">
          <path
             style="fill:#334e63;stroke:none;stroke-width:1.32499921"
             inkscape:connector-curvature="0"
             id="path1444"
             d="m -8.35,0.8 q -0.8,0.8 -0.8,1.95 0,1.15 0.8,1.95 0.2078125,0.2078125 0.45,0.35 0.045313,-0.042578 0.1,-0.1 1,-0.95 1,-2.3 0,-1.3207031 -0.95,-2.3 -0.3242188,0.17421875 -0.6,0.45 M 8.5,2.75 Q 8.5,1.6 7.7,0.8 7.425,0.525 7.1,0.35 6.2,1.3298828 6.2,2.65 6.2,4 7.15,4.95 7.2064453,5.0064453 7.25,5.05 7.4935547,4.9064453 7.7,4.7 8.5,3.9 8.5,2.75 Z" />
          <path
             style="fill:#ffffff;stroke:none;stroke-width:1.32499921"
             inkscape:connector-curvature="0"
             id="path1446"
             d="M 7.1,0.35 Q 6.5046875,0 5.75,0 H -6.4 q -0.7537109,0 -1.35,0.35 0.95,0.9792969 0.95,2.3 0,1.35 -1,2.3 -0.054687,0.057422 -0.1,0.1 0.6488281,0.45 1.5,0.45 H 5.75 Q 6.6033203,5.5 7.25,5.05 7.2064453,5.0064453 7.15,4.95 6.2,4 6.2,2.65 6.2,1.3298828 7.1,0.35 Z" />
        </g>
      </g>
    </g>
    <path
       inkscape:connector-curvature="0"
       id="path1450"
       d="m 14.73352,1028.6259 q 0.95736,-0.2565 1.69514,-0.8465 0.008,2.2019 0.55459,4.5583 0.27718,1.1809 -0.44876,2.2775 -0.66258,1.0404 -1.91665,1.3372 -1.2541,0.2967 -2.36772,-0.3462 -1.05027,-0.6991 -1.32743,-1.8799 -0.76646,-3.3648 -0.71551,-6.4763 0.47538,0.5979 1.21168,1.0089 1.55806,0.8377 3.31466,0.367"
       style="fill:#477ca6;stroke:none;stroke-width:1.00000012" />
    <g
       transform="matrix(-0.8660254,0.5,0.5,0.8660254,-499.50096,157.488)"
       id="g1458">
      <path
         style="fill:#477ca6;stroke:none;stroke-width:1.00000012"
         d="m -14.016014,995.22596 q 0.782306,0 1.439703,0.22732 -2.203065,-3.48501 -5.834586,-6.02402 -1.060834,-0.75774 -2.348989,-0.56831 -1.288155,0.18944 -2.008007,1.1745 -0.795625,0.98506 -0.606191,2.23533 0.227322,1.21238 1.250269,1.97012 2.346029,1.68537 3.902353,3.90235 0.305019,-0.91121 1.060833,-1.66702 1.326043,-1.25027 3.144615,-1.25027"
         id="path1452"
         inkscape:connector-curvature="0" />
      <path
         style="fill:#477ca6;stroke:none;stroke-width:1.00000012"
         d="m -15.038961,997.9917 q -0.151548,0.15155 -0.265208,0.34099 -0.340983,0.49253 -0.340983,1.1366 0,0.87141 0.606191,1.47761 0.644078,0.6062 1.553364,0.6062 0.681965,0 1.212381,-0.3031 0.151548,-0.1516 0.303096,-0.3031 0.303095,-0.2652 0.454643,-0.4925 0.227321,-0.45469 0.227321,-0.98511 0,-0.8714 -0.681964,-1.47759 -0.606191,-0.60619 -1.515477,-0.60619 -0.568304,0 -0.98506,0.22732 -0.303095,0.15155 -0.568304,0.37887 z"
         id="path1454"
         inkscape:connector-curvature="0" />
      <path
         d="m -10,1001.25 q 0.4167559,-0.7949 0.4167559,-1.74282 0,-1.7428 -1.3260419,-3.03095 -0.734059,-0.71246 -1.667025,-1.02295 -0.657397,-0.22732 -1.439703,-0.22732 -1.818572,0 -3.144615,1.25027 -0.755814,0.75581 -1.060833,1.66702 -0.227322,0.64363 -0.227322,1.36393 0,1.74282 1.288155,3.03092 0.603379,0.5516 1.288156,0.8335 0.865331,0.3789 1.856459,0.3789 1.818572,0 3.106728,-1.2124 0.604858,-0.5875 0.909286,-1.2881 m -5.304169,-2.91731 q 0.11366,-0.18944 0.265208,-0.34099 0.265209,-0.22732 0.568304,-0.37887 0.416756,-0.22732 0.98506,-0.22732 0.909286,0 1.515477,0.60619 0.681964,0.60619 0.681964,1.47759 0,0.53042 -0.227321,0.98511 -0.151548,0.2273 -0.454643,0.4925 -0.151548,0.1515 -0.303096,0.3031 -0.530416,0.3031 -1.212381,0.3031 -0.909286,0 -1.553364,-0.6062 -0.606191,-0.6062 -0.606191,-1.47761 0,-0.64407 0.340983,-1.1366 z"
         id="path1456"
         inkscape:connector-curvature="0"
         style="fill:#334e63;stroke:none;stroke-width:1.00000012" />
    </g>
    <g
       id="g1468"
       transform="matrix(-0.72635743,-0.21580645,-0.21580645,0.72635743,9.5452026,1041.3212)"
       style="stroke-width:1.31971669;filter:url(#Filter_1)">
      <g
         style="stroke-width:1.31971669"
         id="g1466">
        <g
           style="stroke-width:1.31971669"
           id="g1464">
          <path
             d="m -1.15,10.65 q -0.1,-0.1 -0.15,0.05 -0.1,0.15 -0.15,0.35 v 3.5 q 0,0.15 0.15,0.4 0.1,0.05 0.25,0.05 2.8,-0.05 4.8,-2.05 H 3.8 Q 5.9,10.85 6,7.85 6.05,4.8 4.05,2.7 L 3.9,2.55 Q 3.8726563,3.1056641 3.7,3.65 3.190625,5.5488281 1.5,6.6 1.75,7.146875 1.75,7.75 1.65,8.9 0.95,9.75 0.9,9.75 0.8,9.8 0.05,10.6 -1.15,10.65 M -5.7,-0.45 q -0.4146484,0.0912109 -0.85,0.2 -2.8,0.65 -4.4,3.25 -1.5,2.6 -0.85,5.5 0,0.05 0,0.1 0.75,2.75 3.1,4.25 0.15,0.1 0.3,0.1 0.1,-0.05 0.15,-0.2 L -6.3,9.7 Q -6.2,9.6 -6.2,9.5 -6.3,9.3 -6.4,9.2 -7.3,8.6 -7.6,7.5 -7.6,7.45 -7.6,7.4 -7.85,6.3 -7.25,5.3 -6.7638672,4.5146484 -6.05,4.15 -6.6167969,2.5091797 -6.2,0.8 -6.0076172,0.14257812 -5.7,-0.45 Z"
             id="path1460"
             inkscape:connector-curvature="0"
             style="fill:#bfd4e5;stroke:none;stroke-width:1.31971669" />
          <path
             d="m 3.25,-0.3 q -1,-1.85 -3.05,-2.5 -2,-0.6 -3.95,0.45 -1.2568359,0.7472656 -1.95,1.9 -0.3076172,0.59257812 -0.5,1.25 -0.4167969,1.7091797 0.15,3.35 0.1421875,0.3259766 0.3,0.65 1.05,1.85 3.1,2.45 Q -0.6,7.8 1.25,6.8 1.3902344,6.7189453 1.5,6.6 3.190625,5.5488281 3.7,3.65 3.8726563,3.1056641 3.9,2.55 4.0580078,1.0955078 3.25,-0.3 Z"
             id="path1462"
             inkscape:connector-curvature="0"
             style="fill:#5393c5;stroke:none;stroke-width:1.31971669" />
        </g>
      </g>
    </g>
    <path
       d="m 3.4205496,1088.9768 4.35699,-4.5464 H 12.17243 v -3.2962 q 0,-0.9472 0.68196,-1.6291 0.68197,-0.682 1.62914,-0.682 h 0.0379 q 0.94717,0 1.62913,0.682 0.34099,0.3409 0.53042,0.7577 0.15155,0.4167 0.15155,0.8714 l 0.22731,10.1158 H 3.4963196 l -0.0758,-2.2732 M 14.4835,1080.1491 q -0.45464,0 -0.79563,0.341 -0.34098,0.341 -0.34098,0.7956 0,0.4547 0.34098,0.7957 0.34099,0.3409 0.79563,0.3409 0.45464,0 0.79562,-0.3409 0.34099,-0.341 0.34099,-0.7957 0,-0.4546 -0.34099,-0.7956 -0.34098,-0.341 -0.79562,-0.341 z"
       id="path1470"
       inkscape:connector-curvature="0"
       style="fill:#334e63;stroke:none;stroke-width:1.00000012" />
    <path
       d="m 11.46273,1070.4646 q 0.34099,-0.341 0.79563,-0.341 0.45464,0 0.79562,0.341 0.34099,0.3409 0.34099,0.7956 0,0.4546 -0.34099,0.7956 -0.34098,0.341 -0.79562,0.341 -0.45464,0 -0.79563,-0.341 -0.34098,-0.341 -0.34098,-0.7956 0,-0.4547 0.34098,-0.7956 m -6.4028904,-6.8197 q 0,-1.8186 1.43971,-3.1067 1.40181,-1.2882 3.44771,-1.2882 2.0080004,0 3.4477104,1.2882 1.4397,1.2881 1.4397,3.1067 l -0.37887,6.5923 q -0.18943,-0.4167 -0.53042,-0.7577 -0.68196,-0.682 -1.62913,-0.682 h -0.0379 q -0.94717,0 -1.62914,0.682 -0.6819604,0.682 -0.6819604,1.6291 v 3.2962 h -4.39489 -0.0379 z"
       id="path1472"
       inkscape:connector-curvature="0"
       style="fill:#477ca6;stroke:none;stroke-width:1.00000012" />
  </g>
</svg>
