<?xml version="1.0" encoding="UTF-8" standalone="no"?>
<svg
   xmlns:dc="http://purl.org/dc/elements/1.1/"
   xmlns:cc="http://creativecommons.org/ns#"
   xmlns:rdf="http://www.w3.org/1999/02/22-rdf-syntax-ns#"
   xmlns:svg="http://www.w3.org/2000/svg"
   xmlns="http://www.w3.org/2000/svg"
   xmlns:sodipodi="http://sodipodi.sourceforge.net/DTD/sodipodi-0.dtd"
   xmlns:inkscape="http://www.inkscape.org/namespaces/inkscape"
   version="1.1"
   id="svg374"
   sodipodi:docname="platform_mushrooms.svg"
   width="950"
   height="310"
   inkscape:version="0.92.4 5da689c313, 2019-01-14">
  <metadata
     id="metadata378">
    <rdf:RDF>
      <cc:Work
         rdf:about="">
        <dc:format>image/svg+xml</dc:format>
        <dc:type
           rdf:resource="http://purl.org/dc/dcmitype/StillImage" />
        <dc:title></dc:title>
      </cc:Work>
    </rdf:RDF>
  </metadata>
  <sodipodi:namedview
     pagecolor="#ffffff"
     bordercolor="#666666"
     borderopacity="1"
     objecttolerance="10"
     gridtolerance="10"
     guidetolerance="10"
     inkscape:pageopacity="0"
     inkscape:pageshadow="2"
     inkscape:window-width="1920"
     inkscape:window-height="1022"
     id="namedview376"
     showgrid="false"
     inkscape:snap-bbox="true"
     inkscape:bbox-nodes="true"
     inkscape:snap-page="true"
     inkscape:bbox-paths="true"
     inkscape:zoom="1.18"
     inkscape:cx="752.34313"
     inkscape:cy="245.61795"
     inkscape:window-x="0"
     inkscape:window-y="30"
     inkscape:window-maximized="1"
     inkscape:current-layer="svg374" />
  <defs
     id="defs2" />
  <g
     id="g1443"
     transform="translate(0,29.999993)">
    <path
       d="M 160,2 V 0 h 70 v 2 h -70"
       id="path4"
       inkscape:connector-curvature="0"
       style="fill:#ef975c;stroke:none" />
    <path
       d="m 160,2 h 70 v 4 h -0.3 q -3.2,0 -5.45,2.25 -2.25,2.25 -2.25,5.45 0,3.2 2.25,5.45 2.25,2.25 5.45,2.25 H 230 V 37 q -8.45,-1.75 -16.8,-2.65 l 1.2,-0.95 q 1.6,-1.6 1.6,-3.9 0,-2.25 -1.6,-3.9 -1.65,-1.6 -3.9,-1.6 -2.3,0 -3.9,1.6 -1.6,1.65 -1.6,3.9 0,2.3 1.6,3.9 l 0.4,0.35 Q 183.2,32 160,37 V 21.4 q 3,-0.1 5.15,-2.25 2.25,-2.25 2.25,-5.45 0,-3.2 -2.25,-5.45 Q 163,6.1 160,6 V 2 m 38.5,15 q 2.3,0 3.95,-1.6 Q 204,13.8 204,11.5 204,9.2 202.45,7.55 200.8,6 198.5,6 196.2,6 194.6,7.55 193,9.2 193,11.5 q 0,2.3 1.6,3.9 1.6,1.6 3.9,1.6 M 181.85,27.85 Q 183,26.7 183,25 183,23.35 181.85,22.15 180.65,21 179,21 q -1.7,0 -2.8,1.15 -1.2,1.2 -1.2,2.85 0,1.7 1.2,2.85 1.1,1.15 2.8,1.15 1.65,0 2.85,-1.15"
       id="path6"
       inkscape:connector-curvature="0"
       style="fill:#e86a17;stroke:none" />
    <path
       d="M 181.85,27.85 Q 180.65,29 179,29 177.3,29 176.2,27.85 175,26.7 175,25 q 0,-1.65 1.2,-2.85 1.1,-1.15 2.8,-1.15 1.65,0 2.85,1.15 1.15,1.2 1.15,2.85 0,1.7 -1.15,2.85 M 230,6 v 15.4 h -0.3 q -3.2,0 -5.45,-2.25 Q 222,16.9 222,13.7 222,10.5 224.25,8.25 226.5,6 229.7,6 H 230 M 160,21.4 V 6 q 3,0.1 5.15,2.25 2.25,2.25 2.25,5.45 0,3.2 -2.25,5.45 Q 163,21.3 160,21.4 M 198.5,17 q -2.3,0 -3.9,-1.6 -1.6,-1.6 -1.6,-3.9 0,-2.3 1.6,-3.95 1.6,-1.55 3.9,-1.55 2.3,0 3.95,1.55 1.55,1.65 1.55,3.95 0,2.3 -1.55,3.9 -1.65,1.6 -3.95,1.6 m 8.5,16.75 -0.4,-0.35 q -1.6,-1.6 -1.6,-3.9 0,-2.25 1.6,-3.9 1.6,-1.6 3.9,-1.6 2.25,0 3.9,1.6 1.6,1.65 1.6,3.9 0,2.3 -1.6,3.9 l -1.2,0.95 -6.2,-0.6"
       id="path8"
       inkscape:connector-curvature="0"
       style="fill:#fca66c;stroke:none" />
    <path
       d="m 207,33.75 6.2,0.6 q 8.35,0.9 16.8,2.65 v 3 h -70 v -3 q 23.2,-5 47,-3.25"
       id="path10"
       inkscape:connector-curvature="0"
       style="fill:#e1d7bf;stroke:none" />
  </g>
  <g
     id="g1450"
     transform="translate(0,29.999993)">
    <path
       d="M 240,2 V 0 h 60.35 q 7.6,0 9.25,6 l 0.4,3.2 v 0.45 h -0.15 Q 309.6,7.55 308.8,6.05 306.6,2 300.35,2 H 240"
       id="path12"
       inkscape:connector-curvature="0"
       style="fill:#ef975c;stroke:none" />
    <path
       d="m 240,2 h 60.35 q 6.25,0 8.45,4.05 -2.65,0.3 -4.55,2.2 -2.25,2.25 -2.25,5.4 0,3.2 2.25,5.45 2.25,2.25 5.45,2.25 h 0.3 v 9.55 l -0.2,2.1 -0.05,0.2 -2.1,2.1 q -2.1,2.05 -8.5,1.7 H 240 V 21.35 q 3,-0.1 5.15,-2.25 2.25,-2.25 2.25,-5.45 0,-3.15 -2.25,-5.4 Q 243,6.1 240,6 V 2 m 19,26.9 q 1.65,0 2.85,-1.15 1.15,-1.15 1.15,-2.8 0,-1.65 -1.15,-2.85 -1.2,-1.15 -2.85,-1.15 -1.7,0 -2.8,1.15 -1.2,1.2 -1.2,2.85 0,1.65 1.2,2.8 1.1,1.15 2.8,1.15 m 27.6,-3.35 q -1.6,1.6 -1.6,3.85 0,2.3 1.6,3.9 1.6,1.6 3.9,1.6 2.25,0 3.9,-1.6 1.6,-1.6 1.6,-3.9 0,-2.25 -1.6,-3.85 -1.65,-1.6 -3.9,-1.6 -2.3,0 -3.9,1.6 M 284,11.5 Q 284,9.2 282.45,7.55 280.8,6 278.5,6 276.2,6 274.6,7.55 273,9.2 273,11.5 q 0,2.25 1.6,3.85 1.6,1.6 3.9,1.6 2.3,0 3.95,-1.6 1.55,-1.6 1.55,-3.85"
       id="path14"
       inkscape:connector-curvature="0"
       style="fill:#e86a17;stroke:none" />
    <path
       d="m 284,11.5 q 0,2.25 -1.55,3.85 -1.65,1.6 -3.95,1.6 -2.3,0 -3.9,-1.6 Q 273,13.75 273,11.5 273,9.2 274.6,7.55 276.2,6 278.5,6 280.8,6 282.45,7.55 284,9.2 284,11.5 m 26,-1.2 v 11.05 h -0.3 q -3.2,0 -5.45,-2.25 -2.25,-2.25 -2.25,-5.45 0,-3.15 2.25,-5.4 1.9,-1.9 4.55,-2.2 0.8,1.5 1.05,3.6 L 310,10.3 M 240,21.35 V 6 q 3,0.1 5.15,2.25 2.25,2.25 2.25,5.4 0,3.2 -2.25,5.45 -2.15,2.15 -5.15,2.25 m 46.6,4.2 q 1.6,-1.6 3.9,-1.6 2.25,0 3.9,1.6 1.6,1.6 1.6,3.85 0,2.3 -1.6,3.9 -1.65,1.6 -3.9,1.6 -2.3,0 -3.9,-1.6 -1.6,-1.6 -1.6,-3.9 0,-2.25 1.6,-3.85 M 259,28.9 q -1.7,0 -2.8,-1.15 -1.2,-1.15 -1.2,-2.8 0,-1.65 1.2,-2.85 1.1,-1.15 2.8,-1.15 1.65,0 2.85,1.15 1.15,1.2 1.15,2.85 0,1.65 -1.15,2.8 -1.2,1.15 -2.85,1.15"
       id="path16"
       inkscape:connector-curvature="0"
       style="fill:#fca66c;stroke:none" />
    <path
       d="m 309.75,33.2 -0.6,2.05 -0.8,1.55 -0.1,0.1 -0.2,0.25 -1,1 Q 304.65,40 300.35,40 H 240 v -3 h 59.15 q 6.4,0.35 8.5,-1.7 l 2.1,-2.1"
       id="path18"
       inkscape:connector-curvature="0"
       style="fill:#e1d7bf;stroke:none" />
    <path
       d="M 310,9.65 V 10.3 L 309.85,9.65 H 310"
       id="path20"
       inkscape:connector-curvature="0"
       style="fill:#93db24;stroke:none" />
  </g>
  <g
     id="g1431"
     transform="translate(0,29.999993)">
    <path
       d="M 0,9.65 V 9.2 Q 0.05,7.45 0.4,6.05 V 6 Q 2.05,0 9.65,0 H 70 V 2 H 9.65 Q 3.4,2 1.2,6.05 v 0.1 Q 0.4,7.6 0.15,9.65 H 0"
       id="path22"
       inkscape:connector-curvature="0"
       style="fill:#ef975c;stroke:none" />
    <path
       d="M 1.2,6.15 V 6.05 Q 3.4,2 9.65,2 H 70 V 6 H 69.7 Q 66.5,6 64.25,8.25 62,10.5 62,13.7 q 0,3.2 2.25,5.45 2.25,2.25 5.45,2.25 H 70 V 37 H 10.85 q -6.4,0.35 -8.5,-1.7 L 0.25,33.2 0.2,33 0,30.9 V 21.4 Q 3,21.3 5.15,19.15 7.4,16.9 7.4,13.7 7.4,10.5 5.15,8.25 3.45,6.55 1.2,6.15 m 20.65,16 Q 20.65,21 19,21 17.3,21 16.2,22.15 15,23.35 15,25 15,26.7 16.2,27.85 17.3,29 19,29 20.65,29 21.85,27.85 23,26.7 23,25 23,23.35 21.85,22.15 M 42.45,7.55 Q 40.8,6 38.5,6 36.2,6 34.6,7.55 33,9.2 33,11.5 q 0,2.3 1.6,3.9 1.6,1.6 3.9,1.6 2.3,0 3.95,-1.6 Q 44,13.8 44,11.5 44,9.2 42.45,7.55 M 56,29.5 Q 56,27.25 54.4,25.6 52.75,24 50.5,24 q -2.3,0 -3.9,1.6 -1.6,1.65 -1.6,3.9 0,2.3 1.6,3.9 1.6,1.6 3.9,1.6 2.25,0 3.9,-1.6 1.6,-1.6 1.6,-3.9"
       id="path24"
       inkscape:connector-curvature="0"
       style="fill:#e86a17;stroke:none" />
    <path
       d="m 56,29.5 q 0,2.3 -1.6,3.9 Q 52.75,35 50.5,35 48.2,35 46.6,33.4 45,31.8 45,29.5 q 0,-2.25 1.6,-3.9 1.6,-1.6 3.9,-1.6 2.25,0 3.9,1.6 1.6,1.65 1.6,3.9 M 0.15,9.65 Q 0.4,7.6 1.2,6.15 3.45,6.55 5.15,8.25 7.4,10.5 7.4,13.7 7.4,16.9 5.15,19.15 3,21.3 0,21.4 V 10.3 Q 0,10 0.15,9.65 M 70,6 v 15.4 h -0.3 q -3.2,0 -5.45,-2.25 Q 62,16.9 62,13.7 62,10.5 64.25,8.25 66.5,6 69.7,6 H 70 M 42.45,7.55 Q 44,9.2 44,11.5 44,13.8 42.45,15.4 40.8,17 38.5,17 36.2,17 34.6,15.4 33,13.8 33,11.5 33,9.2 34.6,7.55 36.2,6 38.5,6 q 2.3,0 3.95,1.55 m -20.6,14.6 Q 23,23.35 23,25 23,26.7 21.85,27.85 20.65,29 19,29 17.3,29 16.2,27.85 15,26.7 15,25 15,23.35 16.2,22.15 17.3,21 19,21 q 1.65,0 2.85,1.15"
       id="path26"
       inkscape:connector-curvature="0"
       style="fill:#fca66c;stroke:none" />
    <path
       d="M 0,9.65 H 0.15 Q 0,10 0,10.3 V 9.65"
       id="path28"
       inkscape:connector-curvature="0"
       style="fill:#93db24;stroke:none" />
    <path
       d="m 70,37 v 3 H 9.65 q -4.3,0 -6.7,-1.85 l -1,-1 -0.2,-0.25 -0.1,-0.1 -0.8,-1.55 -0.6,-2.05 2.1,2.1 q 2.1,2.05 8.5,1.7 H 70"
       id="path30"
       inkscape:connector-curvature="0"
       style="fill:#e1d7bf;stroke:none" />
  </g>
  <g
     id="g1437"
     transform="translate(0,29.999993)">
    <path
       d="M 80,2 V 0 h 70 V 2 H 80"
       id="path32"
       inkscape:connector-curvature="0"
       style="fill:#ef975c;stroke:none" />
    <path
       d="m 80,2 h 70 v 4 h -0.3 q -3.2,0 -5.45,2.25 -2.25,2.25 -2.25,5.45 0,3.2 2.25,5.45 2.25,2.25 5.45,2.25 H 150 V 37 H 80 V 21.4 Q 83,21.3 85.15,19.15 87.4,16.9 87.4,13.7 87.4,10.5 85.15,8.25 83,6.1 80,6 V 2 m 19,27 q 1.65,0 2.85,-1.15 Q 103,26.7 103,25 103,23.35 101.85,22.15 100.65,21 99,21 97.3,21 96.2,22.15 95,23.35 95,25 95,26.7 96.2,27.85 97.3,29 99,29 m 27.6,-3.4 q -1.6,1.65 -1.6,3.9 0,2.3 1.6,3.9 1.6,1.6 3.9,1.6 2.25,0 3.9,-1.6 1.6,-1.6 1.6,-3.9 0,-2.25 -1.6,-3.9 -1.65,-1.6 -3.9,-1.6 -2.3,0 -3.9,1.6 M 122.45,15.4 Q 124,13.8 124,11.5 124,9.2 122.45,7.55 120.8,6 118.5,6 116.2,6 114.6,7.55 113,9.2 113,11.5 q 0,2.3 1.6,3.9 1.6,1.6 3.9,1.6 2.3,0 3.95,-1.6"
       id="path34"
       inkscape:connector-curvature="0"
       style="fill:#e86a17;stroke:none" />
    <path
       d="M 122.45,15.4 Q 120.8,17 118.5,17 116.2,17 114.6,15.4 113,13.8 113,11.5 113,9.2 114.6,7.55 116.2,6 118.5,6 q 2.3,0 3.95,1.55 1.55,1.65 1.55,3.95 0,2.3 -1.55,3.9 M 150,6 v 15.4 h -0.3 q -3.2,0 -5.45,-2.25 Q 142,16.9 142,13.7 142,10.5 144.25,8.25 146.5,6 149.7,6 H 150 M 80,21.4 V 6 q 3,0.1 5.15,2.25 2.25,2.25 2.25,5.45 0,3.2 -2.25,5.45 Q 83,21.3 80,21.4 m 46.6,4.2 q 1.6,-1.6 3.9,-1.6 2.25,0 3.9,1.6 1.6,1.65 1.6,3.9 0,2.3 -1.6,3.9 -1.65,1.6 -3.9,1.6 -2.3,0 -3.9,-1.6 -1.6,-1.6 -1.6,-3.9 0,-2.25 1.6,-3.9 M 99,29 Q 97.3,29 96.2,27.85 95,26.7 95,25 95,23.35 96.2,22.15 97.3,21 99,21 q 1.65,0 2.85,1.15 1.15,1.2 1.15,2.85 0,1.7 -1.15,2.85 Q 100.65,29 99,29"
       id="path36"
       inkscape:connector-curvature="0"
       style="fill:#fca66c;stroke:none" />
    <path
       d="m 150,37 v 3 H 80 v -3 h 70"
       id="path38"
       inkscape:connector-curvature="0"
       style="fill:#e1d7bf;stroke:none" />
  </g>
  <g
     id="g1463"
     transform="translate(0,29.999993)">
    <path
       d="m 80,86 v -4 h 70 v 4 h -0.3 q -3.2,0 -5.45,2.25 -2.25,2.25 -2.25,5.45 0,3.2 2.25,5.45 2.25,2.25 5.45,2.25 H 150 V 113 h -15.2 q 1.2,-1.5 1.2,-3.5 0,-2.25 -1.6,-3.9 -1.65,-1.6 -3.9,-1.6 -2.3,0 -3.9,1.6 -1.6,1.65 -1.6,3.9 0,2 1.25,3.5 H 80 v -11.6 q 3,-0.1 5.15,-2.25 2.25,-2.25 2.25,-5.45 0,-3.2 -2.25,-5.45 Q 83,86.1 80,86 m 34.6,1.55 q -1.6,1.65 -1.6,3.95 0,2.3 1.6,3.9 1.6,1.6 3.9,1.6 2.3,0 3.95,-1.6 1.55,-1.6 1.55,-3.9 0,-2.3 -1.55,-3.95 Q 120.8,86 118.5,86 q -2.3,0 -3.9,1.55 M 99,101 q -1.7,0 -2.8,1.15 -1.2,1.2 -1.2,2.85 0,1.7 1.2,2.85 1.1,1.15 2.8,1.15 1.65,0 2.85,-1.15 1.15,-1.15 1.15,-2.85 0,-1.65 -1.15,-2.85 Q 100.65,101 99,101"
       id="path40"
       inkscape:connector-curvature="0"
       style="fill:#e86a17;stroke:none" />
    <path
       d="m 99,101 q 1.65,0 2.85,1.15 1.15,1.2 1.15,2.85 0,1.7 -1.15,2.85 Q 100.65,109 99,109 97.3,109 96.2,107.85 95,106.7 95,105 95,103.35 96.2,102.15 97.3,101 99,101 m -19,0.4 V 86 q 3,0.1 5.15,2.25 2.25,2.25 2.25,5.45 0,3.2 -2.25,5.45 Q 83,101.3 80,101.4 M 150,86 v 15.4 h -0.3 q -3.2,0 -5.45,-2.25 Q 142,96.9 142,93.7 142,90.5 144.25,88.25 146.5,86 149.7,86 h 0.3 m -35.4,1.55 q 1.6,-1.55 3.9,-1.55 2.3,0 3.95,1.55 1.55,1.65 1.55,3.95 0,2.3 -1.55,3.9 -1.65,1.6 -3.95,1.6 -2.3,0 -3.9,-1.6 -1.6,-1.6 -1.6,-3.9 0,-2.3 1.6,-3.95 M 126.25,113 q -1.25,-1.5 -1.25,-3.5 0,-2.25 1.6,-3.9 1.6,-1.6 3.9,-1.6 2.25,0 3.9,1.6 1.6,1.65 1.6,3.9 0,2 -1.2,3.5 h -8.55"
       id="path42"
       inkscape:connector-curvature="0"
       style="fill:#fca66c;stroke:none" />
    <path
       d="m 80,82 v -2 h 70 v 2 H 80"
       id="path44"
       inkscape:connector-curvature="0"
       style="fill:#ef975c;stroke:none" />
    <path
       d="m 150,113 v 7 H 80 v -7 h 46.25 8.55 15.2"
       id="path46"
       inkscape:connector-curvature="0"
       style="fill:#e1d7bf;stroke:none" />
  </g>
  <g
     id="g1477"
     transform="translate(0,29.999993)">
    <path
       d="m 240,86 v -4 h 60.35 q 6.25,0 8.45,4.05 -2.65,0.3 -4.55,2.2 -2.25,2.25 -2.25,5.4 0,3.2 2.25,5.45 2.25,2.25 5.45,2.25 h 0.3 v 9.55 l -0.2,2.1 -0.05,0.2 -0.6,2.05 -0.8,1.55 -0.1,0.1 -0.2,0.25 -1,1 -0.5,0.35 -0.65,0.4 -14.4,-2 -1.05,-0.1 -7,-1.05 Q 269.6,113.05 240,113 v -11.65 q 3,-0.1 5.15,-2.25 2.25,-2.25 2.25,-5.45 0,-3.15 -2.25,-5.4 Q 243,86.1 240,86 m 33,5.5 q 0,2.25 1.6,3.85 1.6,1.6 3.9,1.6 2.3,0 3.95,-1.6 1.55,-1.6 1.55,-3.85 0,-2.3 -1.55,-3.95 Q 280.8,86 278.5,86 q -2.3,0 -3.9,1.55 -1.6,1.65 -1.6,3.95 m -14,9.45 q -1.7,0 -2.8,1.15 -1.2,1.2 -1.2,2.85 0,1.65 1.2,2.8 1.1,1.15 2.8,1.15 1.65,0 2.85,-1.15 1.15,-1.15 1.15,-2.8 0,-1.65 -1.15,-2.85 -1.2,-1.15 -2.85,-1.15 m 37,8.45 q 0,-2.25 -1.6,-3.85 -1.65,-1.6 -3.9,-1.6 -2.3,0 -3.9,1.6 -1.6,1.6 -1.6,3.85 0,2.3 1.6,3.9 1.6,1.6 3.9,1.6 2.25,0 3.9,-1.6 1.6,-1.6 1.6,-3.9"
       id="path48"
       inkscape:connector-curvature="0"
       style="fill:#e86a17;stroke:none" />
    <path
       d="m 296,109.4 q 0,2.3 -1.6,3.9 -1.65,1.6 -3.9,1.6 -2.3,0 -3.9,-1.6 -1.6,-1.6 -1.6,-3.9 0,-2.25 1.6,-3.85 1.6,-1.6 3.9,-1.6 2.25,0 3.9,1.6 1.6,1.6 1.6,3.85 m -56,-8.05 V 86 q 3,0.1 5.15,2.25 2.25,2.25 2.25,5.4 0,3.2 -2.25,5.45 -2.15,2.15 -5.15,2.25 M 310,90.3 v 11.05 h -0.3 q -3.2,0 -5.45,-2.25 -2.25,-2.25 -2.25,-5.45 0,-3.15 2.25,-5.4 1.9,-1.9 4.55,-2.2 0.8,1.5 1.05,3.6 L 310,90.3 m -51,10.65 q 1.65,0 2.85,1.15 1.15,1.2 1.15,2.85 0,1.65 -1.15,2.8 -1.2,1.15 -2.85,1.15 -1.7,0 -2.8,-1.15 -1.2,-1.15 -1.2,-2.8 0,-1.65 1.2,-2.85 1.1,-1.15 2.8,-1.15 m 14,-9.45 q 0,-2.3 1.6,-3.95 1.6,-1.55 3.9,-1.55 2.3,0 3.95,1.55 1.55,1.65 1.55,3.95 0,2.25 -1.55,3.85 -1.65,1.6 -3.95,1.6 -2.3,0 -3.9,-1.6 -1.6,-1.6 -1.6,-3.85"
       id="path50"
       inkscape:connector-curvature="0"
       style="fill:#fca66c;stroke:none" />
    <path
       d="m 240,82 v -2 h 60.35 q 7.6,0 9.25,6 l 0.4,3.2 v 0.45 h -0.15 Q 309.6,87.55 308.8,86.05 306.6,82 300.35,82 H 240"
       id="path52"
       inkscape:connector-curvature="0"
       style="fill:#ef975c;stroke:none" />
    <path
       d="m 310,89.65 v 0.65 l -0.15,-0.65 H 310"
       id="path54"
       inkscape:connector-curvature="0"
       style="fill:#93db24;stroke:none" />
    <path
       d="m 305.9,118.9 q -2.2,1.1 -5.55,1.1 H 240 v -7 q 29.6,0.05 43.45,2.75 l 7,1.05 1.05,0.1 14.4,2"
       id="path56"
       inkscape:connector-curvature="0"
       style="fill:#e1d7bf;stroke:none" />
  </g>
  <g
     id="g1457"
     transform="translate(0,29.999993)">
    <path
       d="m 0,90.3 q 0,-0.3 0.15,-0.65 0.25,-2.05 1,-3.5 2.3,0.4 4,2.1 2.25,2.25 2.25,5.45 0,3.2 -2.25,5.45 Q 3,101.3 0,101.4 V 90.3 M 70,86 v 15.4 h -0.3 q -3.2,0 -5.45,-2.25 Q 62,96.9 62,93.7 62,90.5 64.25,88.25 66.5,86 69.7,86 H 70 m -48.15,16.15 q 1.15,1.2 1.15,2.85 0,1.7 -1.15,2.85 Q 20.65,109 19,109 17.3,109 16.2,107.85 15,106.7 15,105 q 0,-1.65 1.2,-2.85 1.1,-1.15 2.8,-1.15 1.65,0 2.85,1.15 M 33,91.5 Q 33,89.2 34.6,87.55 36.2,86 38.5,86 40.8,86 42.45,87.55 44,89.2 44,91.5 44,93.8 42.45,95.4 40.8,97 38.5,97 36.2,97 34.6,95.4 33,93.8 33,91.5 m 13.8,22.1 -0.2,-0.2 q -1.6,-1.6 -1.6,-3.9 0,-2.25 1.6,-3.9 1.6,-1.6 3.9,-1.6 2.25,0 3.9,1.6 1.6,1.65 1.6,3.9 0,2.2 -1.45,3.75 l -7.75,0.35"
       id="path58"
       inkscape:connector-curvature="0"
       style="fill:#fca66c;stroke:none" />
    <path
       d="M 0.15,89.65 Q 0,90 0,90.3 v -0.65 h 0.15"
       id="path60"
       inkscape:connector-curvature="0"
       style="fill:#93db24;stroke:none" />
    <path
       d="M 0.15,89.65 H 0 V 89.2 Q 0.05,87.45 0.4,86.05 V 86 Q 2.05,80 9.65,80 H 70 v 2 H 9.65 Q 3.4,82 1.2,86.05 l -0.05,0.1 q -0.75,1.45 -1,3.5"
       id="path62"
       inkscape:connector-curvature="0"
       style="fill:#ef975c;stroke:none" />
    <path
       d="M 0,101.4 Q 3,101.3 5.15,99.15 7.4,96.9 7.4,93.7 q 0,-3.2 -2.25,-5.45 -1.7,-1.7 -4,-2.1 L 1.2,86.05 Q 3.4,82 9.65,82 H 70 v 4 H 69.7 Q 66.5,86 64.25,88.25 62,90.5 62,93.7 q 0,3.2 2.25,5.45 2.25,2.25 5.45,2.25 H 70 V 113 q -8.35,0 -15.45,0.25 1.45,-1.55 1.45,-3.75 0,-2.25 -1.6,-3.9 -1.65,-1.6 -3.9,-1.6 -2.3,0 -3.9,1.6 -1.6,1.65 -1.6,3.9 0,2.3 1.6,3.9 l 0.2,0.2 q -12.55,0.65 -20.25,2.15 l -7,1.05 -1.05,0.1 -14.4,2 -0.65,-0.4 -0.5,-0.35 -1,-1 -0.2,-0.25 -0.1,-0.1 -0.8,-1.55 L 0.25,113.2 0.2,113 0,110.9 v -9.5 m 33,-9.9 q 0,2.3 1.6,3.9 1.6,1.6 3.9,1.6 2.3,0 3.95,-1.6 Q 44,93.8 44,91.5 44,89.2 42.45,87.55 40.8,86 38.5,86 36.2,86 34.6,87.55 33,89.2 33,91.5 M 21.85,102.15 Q 20.65,101 19,101 q -1.7,0 -2.8,1.15 -1.2,1.2 -1.2,2.85 0,1.7 1.2,2.85 1.1,1.15 2.8,1.15 1.65,0 2.85,-1.15 Q 23,106.7 23,105 q 0,-1.65 -1.15,-2.85"
       id="path64"
       inkscape:connector-curvature="0"
       style="fill:#e86a17;stroke:none" />
    <path
       d="m 70,113 v 7 H 9.65 Q 6.3,120 4.1,118.9 l 14.4,-2 1.05,-0.1 7,-1.05 q 7.7,-1.5 20.25,-2.15 l 7.75,-0.35 Q 61.65,113 70,113"
       id="path66"
       inkscape:connector-curvature="0"
       style="fill:#e1d7bf;stroke:none" />
  </g>
  <g
     id="g1470"
     transform="translate(0,29.999993)">
    <path
       d="m 230,82 h -70 v -2 h 70 v 2"
       id="path68"
       inkscape:connector-curvature="0"
       style="fill:#ef975c;stroke:none" />
    <path
       d="m 160,86 q 3,0.1 5.15,2.25 2.25,2.25 2.25,5.45 0,3.2 -2.25,5.45 Q 163,101.3 160,101.4 V 86 m 46.25,27 q -1.25,-1.5 -1.25,-3.5 0,-2.25 1.6,-3.9 1.6,-1.6 3.9,-1.6 2.25,0 3.9,1.6 1.6,1.65 1.6,3.9 0,2 -1.2,3.5 h -8.55 M 230,101.4 h -0.3 q -3.2,0 -5.45,-2.25 Q 222,96.9 222,93.7 222,90.5 224.25,88.25 226.5,86 229.7,86 h 0.3 v 15.4 m -48.15,0.75 q 1.15,1.2 1.15,2.85 0,1.7 -1.15,2.85 -1.2,1.15 -2.85,1.15 -1.7,0 -2.8,-1.15 -1.2,-1.15 -1.2,-2.85 0,-1.65 1.2,-2.85 1.1,-1.15 2.8,-1.15 1.65,0 2.85,1.15 m 12.75,-14.6 q 1.6,-1.55 3.9,-1.55 2.3,0 3.95,1.55 1.55,1.65 1.55,3.95 0,2.3 -1.55,3.9 -1.65,1.6 -3.95,1.6 -2.3,0 -3.9,-1.6 -1.6,-1.6 -1.6,-3.9 0,-2.3 1.6,-3.95"
       id="path70"
       inkscape:connector-curvature="0"
       style="fill:#fca66c;stroke:none" />
    <path
       d="m 194.6,87.55 q -1.6,1.65 -1.6,3.95 0,2.3 1.6,3.9 1.6,1.6 3.9,1.6 2.3,0 3.95,-1.6 1.55,-1.6 1.55,-3.9 0,-2.3 -1.55,-3.95 Q 200.8,86 198.5,86 q -2.3,0 -3.9,1.55 M 160,101.4 q 3,-0.1 5.15,-2.25 2.25,-2.25 2.25,-5.45 0,-3.2 -2.25,-5.45 Q 163,86.1 160,86 v -4 h 70 v 4 h -0.3 q -3.2,0 -5.45,2.25 -2.25,2.25 -2.25,5.45 0,3.2 2.25,5.45 2.25,2.25 5.45,2.25 H 230 V 113 h -15.2 q 1.2,-1.5 1.2,-3.5 0,-2.25 -1.6,-3.9 -1.65,-1.6 -3.9,-1.6 -2.3,0 -3.9,1.6 -1.6,1.65 -1.6,3.9 0,2 1.25,3.5 H 160 v -11.6 m 21.85,0.75 Q 180.65,101 179,101 q -1.7,0 -2.8,1.15 -1.2,1.2 -1.2,2.85 0,1.7 1.2,2.85 1.1,1.15 2.8,1.15 1.65,0 2.85,-1.15 1.15,-1.15 1.15,-2.85 0,-1.65 -1.15,-2.85"
       id="path72"
       inkscape:connector-curvature="0"
       style="fill:#e86a17;stroke:none" />
    <path
       d="m 160,113 h 46.25 8.55 15.2 v 7 q -31.75,-7.2 -70,0 v -7"
       id="path74"
       inkscape:connector-curvature="0"
       style="fill:#e1d7bf;stroke:none" />
    <path
       d="m 230,120 h -70 q 38.25,-7.2 70,0"
       id="path76"
       inkscape:connector-curvature="0"
       style="fill:#cdc2a6;stroke:none" />
  </g>
  <g
     id="g1483"
     transform="matrix(1.0007148,0,0,1,-0.22869907,29.999993)"
     style="stroke-width:0.99964279">
    <path
       d="m 319.95,101.05 v -1 -0.05 q 0,-1.75 0.25,-3.4 1,-6.15 5.5,-10.75 2.4,-2.45 5.25,-3.85 3.75,-1.85 8.2,-2 h 50.75 v 2 h -50.75 q -4.45,0.15 -8.2,2 -2.85,1.4 -5.25,3.85 -4.15,4.2 -5.3,9.7 -0.35,1.7 -0.45,3.5"
       id="path78"
       inkscape:connector-curvature="0"
       style="fill:#cfa67c;stroke:none;stroke-width:0.99964279" />
    <path
       d="m 320.4,97.55 q 1.15,-5.5 5.3,-9.7 2.4,-2.45 5.25,-3.85 3.75,-1.85 8.2,-2 h 50.75 v 31 h -50.7 q -7.9,-0.2 -13.5,-5.8 -4.15,-4.2 -5.3,-9.65 m 26.05,1.95 q -1.3,-1.3 -3.15,-1.3 -1.85,0 -3.25,1.3 -1.3,1.4 -1.3,3.25 0,1.85 1.3,3.2 1.4,1.35 3.25,1.35 1.85,0 3.15,-1.35 1.4,-1.35 1.4,-3.2 0,-1.85 -1.4,-3.25 M 335,95.3 q 0,1 0.7,1.7 0.7,0.7 1.7,0.7 1,0 1.7,-0.7 0.7,-0.7 0.7,-1.7 0,-1 -0.7,-1.7 -0.7,-0.7 -1.7,-0.7 -1,0 -1.7,0.7 -0.7,0.7 -0.7,1.7 m 10.9,-5.15 q -1.4,0 -2.4,1 -1,1 -1,2.4 0,1.4 1,2.4 1,1 2.4,1 1.4,0 2.4,-1 1,-1 1,-2.4 0,-1.4 -1,-2.4 -1,-1 -2.4,-1"
       id="path80"
       inkscape:connector-curvature="0"
       style="fill:#c58f5c;stroke:none;stroke-width:0.99964279" />
    <path
       d="m 319.95,101.05 q 0.1,-1.8 0.45,-3.5 1.15,5.45 5.3,9.65 5.6,5.6 13.5,5.8 h 50.7 v 7 h -50.7 q -7.9,-0.2 -13.5,-5.8 -5.4,-5.5 -5.75,-13.15"
       id="path82"
       inkscape:connector-curvature="0"
       style="fill:#b18459;stroke:none;stroke-width:0.99964279" />
    <path
       d="m 345.9,90.15 q 1.4,0 2.4,1 1,1 1,2.4 0,1.4 -1,2.4 -1,1 -2.4,1 -1.4,0 -2.4,-1 -1,-1 -1,-2.4 0,-1.4 1,-2.4 1,-1 2.4,-1 M 335,95.3 q 0,-1 0.7,-1.7 0.7,-0.7 1.7,-0.7 1,0 1.7,0.7 0.7,0.7 0.7,1.7 0,1 -0.7,1.7 -0.7,0.7 -1.7,0.7 -1,0 -1.7,-0.7 -0.7,-0.7 -0.7,-1.7 m 11.45,4.2 q 1.4,1.4 1.4,3.25 0,1.85 -1.4,3.2 -1.3,1.35 -3.15,1.35 -1.85,0 -3.25,-1.35 -1.3,-1.35 -1.3,-3.2 0,-1.85 1.3,-3.25 1.4,-1.3 3.25,-1.3 1.85,0 3.15,1.3"
       id="path84"
       inkscape:connector-curvature="0"
       style="fill:#b88351;stroke:none;stroke-width:0.99964279" />
  </g>
  <g
     id="g1489"
     transform="translate(0,29.999993)">
    <path
       d="m 400,82 v -2 h 70 v 2 h -70"
       id="path86"
       inkscape:connector-curvature="0"
       style="fill:#cfa67c;stroke:none" />
    <path
       d="m 400,82 h 70 v 31 H 400 V 82 m 44.55,14.45 q -1.85,0 -3.25,1.3 -1.3,1.4 -1.3,3.25 0,1.85 1.3,3.2 1.4,1.35 3.25,1.35 1.85,0 3.15,-1.35 1.4,-1.35 1.4,-3.2 0,-1.85 -1.4,-3.25 -1.3,-1.3 -3.15,-1.3 m -8.3,-2.9 q 0,1 0.7,1.7 0.7,0.7 1.7,0.7 1,0 1.7,-0.7 0.7,-0.7 0.7,-1.7 0,-1 -0.7,-1.7 -0.7,-0.7 -1.7,-0.7 -1,0 -1.7,0.7 -0.7,0.7 -0.7,1.7 m 13.3,-4.15 q -1,-1 -2.4,-1 -1.4,0 -2.4,1 -1,1 -1,2.4 0,1.4 1,2.4 1,1 2.4,1 1.4,0 2.4,-1 1,-1 1,-2.4 0,-1.4 -1,-2.4"
       id="path88"
       inkscape:connector-curvature="0"
       style="fill:#c58f5c;stroke:none" />
    <path
       d="m 449.55,89.4 q 1,1 1,2.4 0,1.4 -1,2.4 -1,1 -2.4,1 -1.4,0 -2.4,-1 -1,-1 -1,-2.4 0,-1.4 1,-2.4 1,-1 2.4,-1 1.4,0 2.4,1 m -13.3,4.15 q 0,-1 0.7,-1.7 0.7,-0.7 1.7,-0.7 1,0 1.7,0.7 0.7,0.7 0.7,1.7 0,1 -0.7,1.7 -0.7,0.7 -1.7,0.7 -1,0 -1.7,-0.7 -0.7,-0.7 -0.7,-1.7 m 8.3,2.9 q 1.85,0 3.15,1.3 1.4,1.4 1.4,3.25 0,1.85 -1.4,3.2 -1.3,1.35 -3.15,1.35 -1.85,0 -3.25,-1.35 -1.3,-1.35 -1.3,-3.2 0,-1.85 1.3,-3.25 1.4,-1.3 3.25,-1.3"
       id="path90"
       inkscape:connector-curvature="0"
       style="fill:#b88351;stroke:none" />
    <path
       d="m 470,113 v 7 h -70 v -7 h 70"
       id="path92"
       inkscape:connector-curvature="0"
       style="fill:#b18459;stroke:none" />
  </g>
  <g
     id="g1496"
     transform="translate(0,29.999993)">
    <path
       d="m 480,82 v -2 h 70 v 2 h -70"
       id="path94"
       inkscape:connector-curvature="0"
       style="fill:#cfa67c;stroke:none" />
    <path
       d="m 480,82 h 70 v 31 q -35.3,-9.45 -70,0 V 82 m 17.55,13.5 q -1.3,1.4 -1.3,3.25 0,1.85 1.3,3.2 1.4,1.35 3.25,1.35 1.85,0 3.15,-1.35 1.4,-1.35 1.4,-3.2 0,-1.85 -1.4,-3.25 -1.3,-1.3 -3.15,-1.3 -1.85,0 -3.25,1.3 m -0.25,-4.2 q 0,-1 -0.7,-1.7 -0.7,-0.7 -1.7,-0.7 -1,0 -1.7,0.7 -0.7,0.7 -0.7,1.7 0,1 0.7,1.7 0.7,0.7 1.7,0.7 1,0 1.7,-0.7 0.7,-0.7 0.7,-1.7 m 9.5,-1.75 q 0,-1.4 -1,-2.4 -1,-1 -2.4,-1 -1.4,0 -2.4,1 -1,1 -1,2.4 0,1.4 1,2.4 1,1 2.4,1 1.4,0 2.4,-1 1,-1 1,-2.4"
       id="path96"
       inkscape:connector-curvature="0"
       style="fill:#c58f5c;stroke:none" />
    <path
       d="m 506.8,89.55 q 0,1.4 -1,2.4 -1,1 -2.4,1 -1.4,0 -2.4,-1 -1,-1 -1,-2.4 0,-1.4 1,-2.4 1,-1 2.4,-1 1.4,0 2.4,1 1,1 1,2.4 m -9.5,1.75 q 0,1 -0.7,1.7 -0.7,0.7 -1.7,0.7 -1,0 -1.7,-0.7 -0.7,-0.7 -0.7,-1.7 0,-1 0.7,-1.7 0.7,-0.7 1.7,-0.7 1,0 1.7,0.7 0.7,0.7 0.7,1.7 m 0.25,4.2 q 1.4,-1.3 3.25,-1.3 1.85,0 3.15,1.3 1.4,1.4 1.4,3.25 0,1.85 -1.4,3.2 -1.3,1.35 -3.15,1.35 -1.85,0 -3.25,-1.35 -1.3,-1.35 -1.3,-3.2 0,-1.85 1.3,-3.25"
       id="path98"
       inkscape:connector-curvature="0"
       style="fill:#b88351;stroke:none" />
    <path
       d="m 550,113 v 7 q -35.3,-9.45 -70,0 v -7 q 34.7,-9.45 70,0"
       id="path100"
       inkscape:connector-curvature="0"
       style="fill:#b18459;stroke:none" />
    <path
       d="m 550,120 h -70 q 34.7,-9.45 70,0"
       id="path102"
       inkscape:connector-curvature="0"
       style="fill:#cdc2a6;stroke:none" />
  </g>
  <g
     id="g1502"
     transform="matrix(1.0007148,0,0,1,-0.40028592,29.999993)"
     style="stroke-width:0.99964279">
    <path
       d="m 560,82 v -2 h 50.75 q 4.45,0.15 8.2,2 2.85,1.4 5.25,3.85 4.5,4.6 5.5,10.75 l 0.25,3.4 v 0.05 1 l -0.45,-3.5 q -1.15,-5.5 -5.3,-9.7 -2.4,-2.45 -5.25,-3.85 -3.75,-1.85 -8.2,-2 H 560"
       id="path104"
       inkscape:connector-curvature="0"
       style="fill:#cfa67c;stroke:none;stroke-width:0.99964279" />
    <path
       d="m 560,82 h 50.75 q 4.45,0.15 8.2,2 2.85,1.4 5.25,3.85 4.15,4.2 5.3,9.7 -1.15,5.45 -5.3,9.65 -5.6,5.6 -13.5,5.8 H 560 V 82 m 51.85,19.75 q 0,-1.85 -1.4,-3.25 -1.3,-1.3 -3.15,-1.3 -1.85,0 -3.25,1.3 -1.3,1.4 -1.3,3.25 0,1.85 1.3,3.2 1.4,1.35 3.25,1.35 1.85,0 3.15,-1.35 1.4,-1.35 1.4,-3.2 M 599.7,92.6 q -0.7,0.7 -0.7,1.7 0,1 0.7,1.7 0.7,0.7 1.7,0.7 1,0 1.7,-0.7 0.7,-0.7 0.7,-1.7 0,-1 -0.7,-1.7 -0.7,-0.7 -1.7,-0.7 -1,0 -1.7,0.7 m 12.6,-2.45 q -1,-1 -2.4,-1 -1.4,0 -2.4,1 -1,1 -1,2.4 0,1.4 1,2.4 1,1 2.4,1 1.4,0 2.4,-1 1,-1 1,-2.4 0,-1.4 -1,-2.4"
       id="path106"
       inkscape:connector-curvature="0"
       style="fill:#c58f5c;stroke:none;stroke-width:0.99964279" />
    <path
       d="m 612.3,90.15 q 1,1 1,2.4 0,1.4 -1,2.4 -1,1 -2.4,1 -1.4,0 -2.4,-1 -1,-1 -1,-2.4 0,-1.4 1,-2.4 1,-1 2.4,-1 1.4,0 2.4,1 m -12.6,2.45 q 0.7,-0.7 1.7,-0.7 1,0 1.7,0.7 0.7,0.7 0.7,1.7 0,1 -0.7,1.7 -0.7,0.7 -1.7,0.7 -1,0 -1.7,-0.7 -0.7,-0.7 -0.7,-1.7 0,-1 0.7,-1.7 m 12.15,9.15 q 0,1.85 -1.4,3.2 -1.3,1.35 -3.15,1.35 -1.85,0 -3.25,-1.35 -1.3,-1.35 -1.3,-3.2 0,-1.85 1.3,-3.25 1.4,-1.3 3.25,-1.3 1.85,0 3.15,1.3 1.4,1.4 1.4,3.25"
       id="path108"
       inkscape:connector-curvature="0"
       style="fill:#b88351;stroke:none;stroke-width:0.99964279" />
    <path
       d="m 629.95,101.05 q -0.35,7.65 -5.75,13.15 -5.6,5.6 -13.5,5.8 H 560 v -7 h 50.7 q 7.9,-0.2 13.5,-5.8 4.15,-4.2 5.3,-9.65 l 0.45,3.5"
       id="path110"
       inkscape:connector-curvature="0"
       style="fill:#b18459;stroke:none;stroke-width:0.99964279" />
  </g>
  <g
     id="g1424"
     transform="matrix(1.0007148,0,0,1,-0.22869907,29.999993)"
     style="stroke-width:0.99964279">
    <g
       id="g1417"
       style="stroke-width:0.99964279">
      <path
         style="fill:#cfa67c;stroke:none;stroke-width:0.99964279"
         inkscape:connector-curvature="0"
         id="path112"
         d="m 319.95,21.05 v -1 V 20 q 0,-1.75 0.25,-3.4 1,-6.15 5.5,-10.75 2.4,-2.45 5.25,-3.85 3.75,-1.85 8.2,-2 h 50.75 v 2 h -50.75 q -4.45,0.15 -8.2,2 -2.85,1.4 -5.25,3.85 -4.15,4.2 -5.3,9.7 -0.35,1.7 -0.45,3.5" />
      <path
         style="fill:#c58f5c;stroke:none;stroke-width:0.99964279"
         inkscape:connector-curvature="0"
         id="path114"
         d="m 320.4,17.55 q 1.15,-5.5 5.3,-9.7 2.4,-2.45 5.25,-3.85 3.75,-1.85 8.2,-2 h 50.75 v 31 h -50.7 q -7.9,-0.2 -13.5,-5.8 -4.15,-4.2 -5.3,-9.65 m 19.65,8.4 q 1.25,1.2 2.9,1.35 h 0.35 q 1.85,0 3.15,-1.35 1.4,-1.35 1.4,-3.2 0,-1.85 -1.4,-3.25 -1.3,-1.3 -3.15,-1.3 h -0.35 q -1.65,0.1 -2.9,1.3 -1.3,1.4 -1.3,3.25 0,1.85 1.3,3.2 M 339.1,13.6 q -0.7,-0.7 -1.7,-0.7 -1,0 -1.7,0.7 -0.7,0.7 -0.7,1.7 0,1 0.7,1.7 0.7,0.7 1.7,0.7 1,0 1.7,-0.7 0.7,-0.7 0.7,-1.7 0,-1 -0.7,-1.7 m 9.2,-2.45 q -1,-1 -2.4,-1 -1.4,0 -2.4,1 l -0.55,0.7 q -0.45,0.75 -0.45,1.7 0,0.95 0.45,1.7 l 0.55,0.7 q 1,1 2.4,1 1.4,0 2.4,-1 1,-1 1,-2.4 0,-1.4 -1,-2.4" />
      <path
         style="fill:#b88351;stroke:none;stroke-width:0.99964279"
         inkscape:connector-curvature="0"
         id="path116"
         d="m 348.3,11.15 q 1,1 1,2.4 0,1.4 -1,2.4 -1,1 -2.4,1 -1.4,0 -2.4,-1 l -0.55,-0.7 q -0.45,-0.75 -0.45,-1.7 0,-0.95 0.45,-1.7 l 0.55,-0.7 q 1,-1 2.4,-1 1.4,0 2.4,1 m -9.2,2.45 q 0.7,0.7 0.7,1.7 0,1 -0.7,1.7 -0.7,0.7 -1.7,0.7 -1,0 -1.7,-0.7 -0.7,-0.7 -0.7,-1.7 0,-1 0.7,-1.7 0.7,-0.7 1.7,-0.7 1,0 1.7,0.7 m 0.95,12.35 q -1.3,-1.35 -1.3,-3.2 0,-1.85 1.3,-3.25 1.25,-1.2 2.9,-1.3 h 0.35 q 1.85,0 3.15,1.3 1.4,1.4 1.4,3.25 0,1.85 -1.4,3.2 -1.3,1.35 -3.15,1.35 h -0.35 q -1.65,-0.15 -2.9,-1.35" />
      <path
         style="fill:#e1d7bf;stroke:none;stroke-width:0.99964279"
         inkscape:connector-curvature="0"
         id="path118"
         d="m 319.95,21.05 q 0.1,-1.8 0.45,-3.5 1.15,5.45 5.3,9.65 5.6,5.6 13.5,5.8 h 50.7 v 7 h -50.7 q -7.9,-0.2 -13.5,-5.8 -5.4,-5.5 -5.75,-13.15" />
    </g>
  </g>
  <g
     id="g1411"
     transform="translate(0,29.999993)">
    <path
       d="M 400,2 V 0 h 70 v 2 h -70"
       id="path120"
       inkscape:connector-curvature="0"
       style="fill:#cfa67c;stroke:none" />
    <path
       d="m 470,33 v 7 h -70 v -7 h 70"
       id="path122"
       inkscape:connector-curvature="0"
       style="fill:#e1d7bf;stroke:none" />
    <path
       d="M 470,33 H 400 V 2 h 70 v 31 m -22.3,-8.8 q 1.4,-1.35 1.4,-3.2 0,-1.85 -1.4,-3.25 -1.3,-1.3 -3.15,-1.3 -1.85,0 -3.25,1.3 -1.3,1.4 -1.3,3.25 0,1.85 1.3,3.2 1.4,1.35 3.25,1.35 1.85,0 3.15,-1.35 m -9.05,-13.05 q -1,0 -1.7,0.7 -0.7,0.7 -0.7,1.7 0,1 0.7,1.7 0.7,0.7 1.7,0.7 1,0 1.7,-0.7 0.7,-0.7 0.7,-1.7 0,-1 -0.7,-1.7 -0.7,-0.7 -1.7,-0.7 m 8.5,4.05 q 1.4,0 2.4,-1 1,-1 1,-2.4 0,-1.4 -1,-2.4 -1,-1 -2.4,-1 -1.4,0 -2.4,1 -1,1 -1,2.4 0,1.4 1,2.4 1,1 2.4,1"
       id="path124"
       inkscape:connector-curvature="0"
       style="fill:#c58f5c;stroke:none" />
    <path
       d="m 447.15,15.2 q -1.4,0 -2.4,-1 -1,-1 -1,-2.4 0,-1.4 1,-2.4 1,-1 2.4,-1 1.4,0 2.4,1 1,1 1,2.4 0,1.4 -1,2.4 -1,1 -2.4,1 m -8.5,-4.05 q 1,0 1.7,0.7 0.7,0.7 0.7,1.7 0,1 -0.7,1.7 -0.7,0.7 -1.7,0.7 -1,0 -1.7,-0.7 -0.7,-0.7 -0.7,-1.7 0,-1 0.7,-1.7 0.7,-0.7 1.7,-0.7 m 9.05,13.05 q -1.3,1.35 -3.15,1.35 -1.85,0 -3.25,-1.35 -1.3,-1.35 -1.3,-3.2 0,-1.85 1.3,-3.25 1.4,-1.3 3.25,-1.3 1.85,0 3.15,1.3 1.4,1.4 1.4,3.25 0,1.85 -1.4,3.2"
       id="path126"
       inkscape:connector-curvature="0"
       style="fill:#b88351;stroke:none" />
  </g>
  <g
     id="g1405"
     transform="translate(0,29.999993)">
    <path
       d="M 480,2 V 0 h 70 v 2 h -70"
       id="path128"
       inkscape:connector-curvature="0"
       style="fill:#cfa67c;stroke:none" />
    <path
       d="m 480,2 h 70 v 31 q -35.3,-9.45 -70,0 V 2 m 20.8,12.2 q -1.85,0 -3.25,1.3 -1.3,1.4 -1.3,3.25 0,1.85 1.3,3.2 1.4,1.35 3.25,1.35 1.85,0 3.15,-1.35 1.4,-1.35 1.4,-3.2 0,-1.85 -1.4,-3.25 -1.3,-1.3 -3.15,-1.3 m -5.9,-5.3 q -1,0 -1.7,0.7 -0.7,0.7 -0.7,1.7 0,1 0.7,1.7 0.7,0.7 1.7,0.7 1,0 1.7,-0.7 0.7,-0.7 0.7,-1.7 0,-1 -0.7,-1.7 -0.7,-0.7 -1.7,-0.7 m 11.9,0.65 q 0,-1.4 -1,-2.4 -1,-1 -2.4,-1 -1.4,0 -2.4,1 -1,1 -1,2.4 0,1.4 1,2.4 1,1 2.4,1 1.4,0 2.4,-1 1,-1 1,-2.4"
       id="path130"
       inkscape:connector-curvature="0"
       style="fill:#c58f5c;stroke:none" />
    <path
       d="m 506.8,9.55 q 0,1.4 -1,2.4 -1,1 -2.4,1 -1.4,0 -2.4,-1 -1,-1 -1,-2.4 0,-1.4 1,-2.4 1,-1 2.4,-1 1.4,0 2.4,1 1,1 1,2.4 M 494.9,8.9 q 1,0 1.7,0.7 0.7,0.7 0.7,1.7 0,1 -0.7,1.7 -0.7,0.7 -1.7,0.7 -1,0 -1.7,-0.7 -0.7,-0.7 -0.7,-1.7 0,-1 0.7,-1.7 0.7,-0.7 1.7,-0.7 m 5.9,5.3 q 1.85,0 3.15,1.3 1.4,1.4 1.4,3.25 0,1.85 -1.4,3.2 -1.3,1.35 -3.15,1.35 -1.85,0 -3.25,-1.35 -1.3,-1.35 -1.3,-3.2 0,-1.85 1.3,-3.25 1.4,-1.3 3.25,-1.3"
       id="path132"
       inkscape:connector-curvature="0"
       style="fill:#b88351;stroke:none" />
    <path
       d="m 550,33 v 7 q -35.3,-9.45 -70,0 v -7 q 34.7,-9.45 70,0"
       id="path134"
       inkscape:connector-curvature="0"
       style="fill:#e1d7bf;stroke:none" />
    <path
       d="m 550,40 h -70 q 34.7,-9.45 70,0"
       id="path136"
       inkscape:connector-curvature="0"
       style="fill:#cdc2a6;stroke:none" />
  </g>
  <g
     id="g1398"
     transform="matrix(1.0007148,0,0,1,-0.40028592,29.999993)"
     style="stroke-width:0.99964279">
    <path
       d="M 560,2 V 0 h 50.75 q 4.45,0.15 8.2,2 2.85,1.4 5.25,3.85 4.5,4.6 5.5,10.75 l 0.25,3.4 v 0.05 1 l -0.45,-3.5 q -1.15,-5.5 -5.3,-9.7 Q 621.8,5.4 618.95,4 615.2,2.15 610.75,2 H 560"
       id="path138"
       inkscape:connector-curvature="0"
       style="fill:#cfa67c;stroke:none;stroke-width:0.99964279" />
    <path
       d="m 560,2 h 50.75 q 4.45,0.15 8.2,2 2.85,1.4 5.25,3.85 4.15,4.2 5.3,9.7 -1.15,5.45 -5.3,9.65 -5.6,5.6 -13.5,5.8 H 560 V 2 m 50.45,22.95 q 1.4,-1.35 1.4,-3.2 0,-1.85 -1.4,-3.25 -1.3,-1.3 -3.15,-1.3 -1.85,0 -3.25,1.3 -1.3,1.4 -1.3,3.25 0,1.85 1.3,3.2 1.4,1.35 3.25,1.35 1.85,0 3.15,-1.35 M 603.1,16 q 0.7,-0.7 0.7,-1.7 0,-1 -0.7,-1.7 -0.7,-0.7 -1.7,-0.7 -1,0 -1.7,0.7 -0.7,0.7 -0.7,1.7 0,1 0.7,1.7 0.7,0.7 1.7,0.7 1,0 1.7,-0.7 m 4.4,-1.05 q 1,1 2.4,1 1.4,0 2.4,-1 1,-1 1,-2.4 0,-1.4 -1,-2.4 -1,-1 -2.4,-1 -1.4,0 -2.4,1 -1,1 -1,2.4 0,1.4 1,2.4"
       id="path140"
       inkscape:connector-curvature="0"
       style="fill:#c58f5c;stroke:none;stroke-width:0.99964279" />
    <path
       d="m 607.5,14.95 q -1,-1 -1,-2.4 0,-1.4 1,-2.4 1,-1 2.4,-1 1.4,0 2.4,1 1,1 1,2.4 0,1.4 -1,2.4 -1,1 -2.4,1 -1.4,0 -2.4,-1 M 603.1,16 q -0.7,0.7 -1.7,0.7 -1,0 -1.7,-0.7 -0.7,-0.7 -0.7,-1.7 0,-1 0.7,-1.7 0.7,-0.7 1.7,-0.7 1,0 1.7,0.7 0.7,0.7 0.7,1.7 0,1 -0.7,1.7 m 7.35,8.95 q -1.3,1.35 -3.15,1.35 -1.85,0 -3.25,-1.35 -1.3,-1.35 -1.3,-3.2 0,-1.85 1.3,-3.25 1.4,-1.3 3.25,-1.3 1.85,0 3.15,1.3 1.4,1.4 1.4,3.25 0,1.85 -1.4,3.2"
       id="path142"
       inkscape:connector-curvature="0"
       style="fill:#b88351;stroke:none;stroke-width:0.99964279" />
    <path
       d="M 629.95,21.05 Q 629.6,28.7 624.2,34.2 618.6,39.8 610.7,40 H 560 v -7 h 50.7 q 7.9,-0.2 13.5,-5.8 4.15,-4.2 5.3,-9.65 l 0.45,3.5"
       id="path144"
       inkscape:connector-curvature="0"
       style="fill:#e1d7bf;stroke:none;stroke-width:0.99964279" />
  </g>
  <g
     id="g1652">
    <path
       d="m 338.25,296.65 v -0.05 q 1.2,-1.15 1.2,-2.85 0,-1.7 -1.2,-2.9 -0.95,-0.95 -2.35,-1.1 1.4,-2.1 3.85,-3.9 5.75,-4.1 13.8,-4.1 8.1,0 13.8,4.1 4.95,3.6 5.6,8.5 -0.35,0.85 -2.05,1.6 0.35,-0.75 0.35,-1.65 0,-1.6 -1.15,-2.75 -1.15,-1.15 -2.75,-1.15 -1.6,0 -2.75,1.15 -1.15,1.15 -1.15,2.75 0,1.6 1.15,2.75 l 0.5,0.4 -5.45,0.65 -6.1,0.2 -6.1,-0.2 -7.7,-1.1 -1.5,-0.35 m 8.6,-9.75 q -1.6,0 -2.75,1.15 -1.15,1.15 -1.15,2.75 0,1.6 1.15,2.75 1.15,1.15 2.75,1.15 1.6,0 2.75,-1.15 1.15,-1.15 1.15,-2.75 0,-1.6 -1.15,-2.75 -1.15,-1.15 -2.75,-1.15 m 11.2,-3.15 q -1,0 -1.75,0.7 -0.7,0.75 -0.7,1.75 0,1 0.7,1.7 0.75,0.75 1.75,0.75 1,0 1.7,-0.75 0.75,-0.7 0.75,-1.7 0,-1 -0.75,-1.75 -0.7,-0.7 -1.7,-0.7"
       id="path146"
       inkscape:connector-curvature="0"
       style="fill:#e86a17;stroke:none" />
    <path
       d="m 358.05,283.75 q 1,0 1.7,0.7 0.75,0.75 0.75,1.75 0,1 -0.75,1.7 -0.7,0.75 -1.7,0.75 -1,0 -1.75,-0.75 -0.7,-0.7 -0.7,-1.7 0,-1 0.7,-1.75 0.75,-0.7 1.75,-0.7 m -11.2,3.15 q 1.6,0 2.75,1.15 1.15,1.15 1.15,2.75 0,1.6 -1.15,2.75 -1.15,1.15 -2.75,1.15 -1.6,0 -2.75,-1.15 -1.15,-1.15 -1.15,-2.75 0,-1.6 1.15,-2.75 1.15,-1.15 2.75,-1.15 m -10.95,2.85 q 1.4,0.15 2.35,1.1 1.2,1.2 1.2,2.9 0,1.7 -1.2,2.85 v 0.05 q -3.55,-1 -4.1,-2.3 l -0.1,-0.5 v -0.05 q 0.05,-2.15 0.9,-4.05 l 0.45,-0.05 0.5,0.05 m 29.2,7.7 -0.5,-0.4 q -1.15,-1.15 -1.15,-2.75 0,-1.6 1.15,-2.75 1.15,-1.15 2.75,-1.15 1.6,0 2.75,1.15 1.15,1.15 1.15,2.75 0,0.9 -0.35,1.65 l -3.55,1.05 -2.25,0.45"
       id="path148"
       inkscape:connector-curvature="0"
       style="fill:#fca66c;stroke:none" />
    <path
       d="m 372.95,294.35 q -0.65,-4.9 -5.6,-8.5 -5.7,-4.1 -13.8,-4.1 -8.05,0 -13.8,4.1 -2.45,1.8 -3.85,3.9 l -0.5,-0.05 -0.45,0.05 q 1.35,-3.15 4.8,-5.65 5.75,-4.1 13.8,-4.1 8.1,0 13.8,4.1 5.55,4.05 5.7,9.7 v 0.05 l -0.1,0.5"
       id="path150"
       inkscape:connector-curvature="0"
       style="fill:#ef975c;stroke:none" />
    <path
       d="m 347.45,298.1 6.1,0.2 6.1,-0.2 v 2.55 l -6.1,0.2 -6.1,-0.2 v -2.55"
       id="path152"
       inkscape:connector-curvature="0"
       style="fill:#e1d7bf;stroke:none" />
    <path
       d="M 359.65,300.65 V 310 h -12.2 v -9.35 l 6.1,0.2 6.1,-0.2"
       id="path154"
       inkscape:connector-curvature="0"
       style="fill:#efebdc;stroke:none" />
  </g>
  <g
     id="g1392"
     transform="translate(0,29.999993)">
    <path
       d="m 639.95,21.05 v -1 V 20 q 0,-1.75 0.25,-3.4 1,-6.15 5.5,-10.75 2.4,-2.45 5.25,-3.85 3.75,-1.85 8.2,-2 h 50.8 v 2 h -50.8 q -4.45,0.15 -8.2,2 -2.85,1.4 -5.25,3.85 -4.15,4.2 -5.3,9.7 -0.35,1.7 -0.45,3.5"
       id="path156"
       inkscape:connector-curvature="0"
       style="fill:#cfa67c;stroke:none" />
    <path
       d="m 640.4,17.55 q 1.15,-5.5 5.3,-9.7 2.4,-2.45 5.25,-3.85 3.75,-1.85 8.2,-2 h 50.8 V 33 H 659.2 q -7.9,-0.2 -13.5,-5.8 -4.15,-4.2 -5.3,-9.65"
       id="path158"
       inkscape:connector-curvature="0"
       style="fill:#c58f5c;stroke:none" />
    <path
       d="m 640.4,17.55 q 1.15,5.45 5.3,9.65 5.6,5.6 13.5,5.8 h 50.75 v 7 H 659.2 q -7.9,-0.2 -13.5,-5.8 -5.4,-5.5 -5.75,-13.15 0.1,-1.8 0.45,-3.5"
       id="path160"
       inkscape:connector-curvature="0"
       style="fill:#e1d7bf;stroke:none" />
  </g>
  <g
     id="g1387"
     transform="translate(0,29.999993)">
    <path
       d="M 720,2 V 0 h 70 v 2 h -70"
       id="path162"
       inkscape:connector-curvature="0"
       style="fill:#cfa67c;stroke:none" />
    <path
       d="m 790,33 v 7 h -70 v -7 h 70"
       id="path164"
       inkscape:connector-curvature="0"
       style="fill:#e1d7bf;stroke:none" />
    <path
       d="M 790,33 H 720 V 2 h 70 v 31"
       id="path166"
       inkscape:connector-curvature="0"
       style="fill:#c58f5c;stroke:none" />
  </g>
  <g
     id="g1382"
     transform="translate(0,29.999993)">
    <path
       d="M 800,2 V 0 h 70 v 2 h -70"
       id="path168"
       inkscape:connector-curvature="0"
       style="fill:#cfa67c;stroke:none" />
    <path
       d="m 870,33 v 7 q -35.3,-9.45 -70,0 v -7 q 34.7,-9.45 70,0"
       id="path170"
       inkscape:connector-curvature="0"
       style="fill:#e1d7bf;stroke:none" />
    <path
       d="m 870,33 q -35.3,-9.45 -70,0 V 2 h 70 v 31"
       id="path172"
       inkscape:connector-curvature="0"
       style="fill:#c58f5c;stroke:none" />
    <path
       d="m 870,40 h -70 q 34.7,-9.45 70,0"
       id="path174"
       inkscape:connector-curvature="0"
       style="fill:#cdc2a6;stroke:none" />
  </g>
  <g
     id="g1376"
     transform="translate(0,29.999993)">
    <path
       d="M 880,2 V 0 h 50.8 q 4.45,0.15 8.2,2 2.85,1.4 5.25,3.85 4.5,4.6 5.5,10.75 L 950,20 v 0.05 1 l -0.45,-3.5 q -1.15,-5.5 -5.3,-9.7 Q 941.85,5.4 939,4 935.25,2.15 930.8,2 H 880"
       id="path176"
       inkscape:connector-curvature="0"
       style="fill:#cfa67c;stroke:none" />
    <path
       d="m 880,2 h 50.8 q 4.45,0.15 8.2,2 2.85,1.4 5.25,3.85 4.15,4.2 5.3,9.7 -1.15,5.45 -5.3,9.65 -5.6,5.6 -13.5,5.8 H 880 V 2"
       id="path178"
       inkscape:connector-curvature="0"
       style="fill:#c58f5c;stroke:none" />
    <path
       d="m 950,21.05 q -0.35,7.65 -5.75,13.15 -5.6,5.6 -13.5,5.8 H 880 v -7 h 50.75 q 7.9,-0.2 13.5,-5.8 4.15,-4.2 5.3,-9.65 l 0.45,3.5"
       id="path180"
       inkscape:connector-curvature="0"
       style="fill:#e1d7bf;stroke:none" />
  </g>
  <g
     id="g1507"
     transform="translate(0,29.999993)">
    <path
       d="m 880,82 v -2 h 50.8 q 4.45,0.15 8.2,2 2.85,1.4 5.25,3.85 4.5,4.6 5.5,10.75 L 950,100 v 0.05 1 l -0.45,-3.5 q -1.15,-5.5 -5.3,-9.7 Q 941.85,85.4 939,84 935.25,82.15 930.8,82 H 880"
       id="path182"
       inkscape:connector-curvature="0"
       style="fill:#cfa67c;stroke:none" />
    <path
       d="m 880,82 h 50.8 q 4.45,0.15 8.2,2 2.85,1.4 5.25,3.85 4.15,4.2 5.3,9.7 -1.15,5.45 -5.3,9.65 -5.6,5.6 -13.5,5.8 H 880 V 82"
       id="path184"
       inkscape:connector-curvature="0"
       style="fill:#c58f5c;stroke:none" />
    <path
       d="m 950,101.05 q -0.35,7.65 -5.75,13.15 -5.6,5.6 -13.5,5.8 H 880 v -7 h 50.75 q 7.9,-0.2 13.5,-5.8 4.15,-4.2 5.3,-9.65 l 0.45,3.5"
       id="path186"
       inkscape:connector-curvature="0"
       style="fill:#b18459;stroke:none" />
  </g>
  <g
     id="g1513"
     transform="translate(0,29.999993)">
    <path
       d="m 800,82 v -2 h 70 v 2 h -70"
       id="path188"
       inkscape:connector-curvature="0"
       style="fill:#cfa67c;stroke:none" />
    <path
       d="m 800,82 h 70 v 31 q -35.3,-9.45 -70,0 V 82"
       id="path190"
       inkscape:connector-curvature="0"
       style="fill:#c58f5c;stroke:none" />
    <path
       d="m 870,113 v 7 q -35.3,-9.45 -70,0 v -7 q 34.7,-9.45 70,0"
       id="path192"
       inkscape:connector-curvature="0"
       style="fill:#b18459;stroke:none" />
    <path
       d="m 870,120 h -70 q 34.7,-9.45 70,0"
       id="path194"
       inkscape:connector-curvature="0"
       style="fill:#cdc2a6;stroke:none" />
  </g>
  <g
     id="g1518"
     transform="translate(0,29.999993)">
    <path
       d="m 720,82 v -2 h 70 v 2 h -70"
       id="path196"
       inkscape:connector-curvature="0"
       style="fill:#cfa67c;stroke:none" />
    <path
       d="m 720,82 h 70 v 31 H 720 V 82"
       id="path198"
       inkscape:connector-curvature="0"
       style="fill:#c58f5c;stroke:none" />
    <path
       d="m 790,113 v 7 h -70 v -7 h 70"
       id="path200"
       inkscape:connector-curvature="0"
       style="fill:#b18459;stroke:none" />
  </g>
  <g
     id="g1523"
     transform="translate(0,29.999993)">
    <path
       d="m 639.95,101.05 v -1 -0.05 q 0,-1.75 0.25,-3.4 1,-6.15 5.5,-10.75 2.4,-2.45 5.25,-3.85 3.75,-1.85 8.2,-2 h 50.8 v 2 h -50.8 q -4.45,0.15 -8.2,2 -2.85,1.4 -5.25,3.85 -4.15,4.2 -5.3,9.7 -0.35,1.7 -0.45,3.5"
       id="path202"
       inkscape:connector-curvature="0"
       style="fill:#cfa67c;stroke:none" />
    <path
       d="m 640.4,97.55 q 1.15,-5.5 5.3,-9.7 2.4,-2.45 5.25,-3.85 3.75,-1.85 8.2,-2 h 50.8 v 31 H 659.2 q -7.9,-0.2 -13.5,-5.8 -4.15,-4.2 -5.3,-9.65"
       id="path204"
       inkscape:connector-curvature="0"
       style="fill:#c58f5c;stroke:none" />
    <path
       d="m 640.4,97.55 q 1.15,5.45 5.3,9.65 5.6,5.6 13.5,5.8 h 50.75 v 7 H 659.2 q -7.9,-0.2 -13.5,-5.8 -5.4,-5.5 -5.75,-13.15 0.1,-1.8 0.45,-3.5"
       id="path206"
       inkscape:connector-curvature="0"
       style="fill:#b18459;stroke:none" />
  </g>
  <g
     id="g1551">
    <path
       d="m 619.55,163.55 q -24.15,2.85 -48.3,0.05 -4.5,-2.55 -11.25,-3.6 h 70 q -6.3,1.05 -10.45,3.55"
       id="path208"
       inkscape:connector-curvature="0"
       style="fill:#cdc2a6;stroke:none" />
    <path
       d="m 619.55,163.55 q -1.2,0.65 -2.2,1.45 -5.65,4.4 -6.35,12.2 V 230 h -31 v -52.8 q -0.7,-7.8 -6.6,-12.2 l -2.15,-1.4 q 24.15,2.8 48.3,-0.05 m -33.3,49.9 q 0.55,0.55 1.3,0.55 0.7,0 1.2,-0.55 0.55,-0.45 0.55,-1.2 0,-0.75 -0.55,-1.3 -0.5,-0.4 -1.2,-0.4 -0.75,0 -1.3,0.4 -0.5,0.55 -0.5,1.3 0,0.75 0.5,1.2 m 11.1,8.75 q 0,-1.2 -0.9,-2.15 -0.8,-0.8 -2,-0.8 -1.25,0 -2.2,0.8 -0.8,0.95 -0.8,2.15 0,1.25 0.8,2.05 0.95,0.85 2.2,0.85 1.2,0 2,-0.85 0.9,-0.8 0.9,-2.05 m -2.5,-29.3 q 0,1.25 0.95,2.2 0.85,0.9 2.15,0.9 1.3,0 2.25,-0.9 0.85,-0.95 0.85,-2.2 0,-1.3 -0.85,-2.2 -0.95,-0.95 -2.25,-0.95 -1.3,0 -2.15,0.95 -0.95,0.9 -0.95,2.2"
       id="path210"
       inkscape:connector-curvature="0"
       style="fill:#e1d7bf;stroke:none" />
    <path
       d="m 594.85,192.9 q 0,-1.3 0.95,-2.2 0.85,-0.95 2.15,-0.95 1.3,0 2.25,0.95 0.85,0.9 0.85,2.2 0,1.25 -0.85,2.2 -0.95,0.9 -2.25,0.9 -1.3,0 -2.15,-0.9 -0.95,-0.95 -0.95,-2.2 m 2.5,29.3 q 0,1.25 -0.9,2.05 -0.8,0.85 -2,0.85 -1.25,0 -2.2,-0.85 -0.8,-0.8 -0.8,-2.05 0,-1.2 0.8,-2.15 0.95,-0.8 2.2,-0.8 1.2,0 2,0.8 0.9,0.95 0.9,2.15 m -11.1,-8.75 q -0.5,-0.45 -0.5,-1.2 0,-0.75 0.5,-1.3 0.55,-0.4 1.3,-0.4 0.7,0 1.2,0.4 0.55,0.55 0.55,1.3 0,0.75 -0.55,1.2 -0.5,0.55 -1.2,0.55 -0.75,0 -1.3,-0.55"
       id="path212"
       inkscape:connector-curvature="0"
       style="fill:#d6cdb3;stroke:none" />
  </g>
  <g
     id="g1559">
    <path
       d="m 447.45,183.5 q 0,-1.5 -1.05,-2.6 -1.05,-1 -2.55,-1 -1.5,0 -2.6,1 -1,1.1 -1,2.6 0,1.5 1,2.55 1.1,1.05 2.6,1.05 1.5,0 2.55,-1.05 1.05,-1.05 1.05,-2.55 m -18.4,13.15 q 0,2 1.45,3.45 1.45,1.45 3.45,1.45 2.05,0 3.5,-1.45 1.4,-1.45 1.4,-3.45 0,-2.05 -1.4,-3.5 -1.45,-1.4 -3.5,-1.4 -2,0 -3.45,1.4 -1.45,1.45 -1.45,3.5 m 6.5,-18.9 q 0,-1.05 -0.8,-1.8 -0.7,-0.75 -1.7,-0.75 -1.05,0 -1.85,0.75 -0.7,0.75 -0.7,1.8 0,1 0.7,1.7 0.8,0.8 1.85,0.8 1,0 1.7,-0.8 0.8,-0.7 0.8,-1.7 M 420,160 h 31 v 36.1 0.55 q 0.45,17.75 12.7,30.75 v 2.6 h -56.4 v -2.6 q 12.25,-13 12.7,-30.75 V 160"
       id="path214"
       inkscape:connector-curvature="0"
       style="fill:#e1d7bf;stroke:none" />
    <path
       d="m 435.55,177.75 q 0,1 -0.8,1.7 -0.7,0.8 -1.7,0.8 -1.05,0 -1.85,-0.8 -0.7,-0.7 -0.7,-1.7 0,-1.05 0.7,-1.8 0.8,-0.75 1.85,-0.75 1,0 1.7,0.75 0.8,0.75 0.8,1.8 m -6.5,18.9 q 0,-2.05 1.45,-3.5 1.45,-1.4 3.45,-1.4 2.05,0 3.5,1.4 1.4,1.45 1.4,3.5 0,2 -1.4,3.45 -1.45,1.45 -3.5,1.45 -2,0 -3.45,-1.45 -1.45,-1.45 -1.45,-3.45 m 18.4,-13.15 q 0,1.5 -1.05,2.55 -1.05,1.05 -2.55,1.05 -1.5,0 -2.6,-1.05 -1,-1.05 -1,-2.55 0,-1.5 1,-2.6 1.1,-1 2.6,-1 1.5,0 2.55,1 1.05,1.1 1.05,2.6"
       id="path216"
       inkscape:connector-curvature="0"
       style="fill:#d6cdb3;stroke:none" />
  </g>
  <g
     id="g1546">
    <path
       d="m 676.6,195.5 q -1.1,0 -1.95,0.75 -0.75,0.8 -0.75,1.95 0,1.15 0.75,1.9 0.85,0.85 1.95,0.85 1.15,0 1.9,-0.85 0.85,-0.75 0.85,-1.9 0,-1.15 -0.85,-1.95 -0.75,-0.75 -1.9,-0.75 m -6.4,-24.6 q 0,-0.7 -0.5,-1.25 -0.45,-0.4 -1.15,-0.4 -0.7,0 -1.2,0.4 -0.45,0.55 -0.45,1.25 0,0.65 0.45,1.1 0.5,0.5 1.2,0.5 0.7,0 1.15,-0.5 0.5,-0.45 0.5,-1.1 m 11.8,0.8 q -1.4,0 -2.4,0.95 -0.95,1 -0.95,2.4 0,1.4 0.95,2.35 1,1 2.4,1 1.4,0 2.35,-1 1,-0.95 1,-2.35 0,-1.4 -1,-2.4 Q 683.4,171.7 682,171.7 M 660,160 h 31 v 70 h -31 v -70 m 6.9,47.35 q 0,1.45 1.05,2.5 1.05,1.05 2.5,1.05 1.45,0 2.5,-1.05 1.05,-1.05 1.05,-2.5 0,-1.45 -1.05,-2.55 -1.05,-1 -2.5,-1 -1.45,0 -2.5,1 -1.05,1.1 -1.05,2.55"
       id="path218"
       inkscape:connector-curvature="0"
       style="fill:#e1d7bf;stroke:none" />
    <path
       d="m 666.9,207.35 q 0,-1.45 1.05,-2.55 1.05,-1 2.5,-1 1.45,0 2.5,1 1.05,1.1 1.05,2.55 0,1.45 -1.05,2.5 -1.05,1.05 -2.5,1.05 -1.45,0 -2.5,-1.05 -1.05,-1.05 -1.05,-2.5 M 682,171.7 q 1.4,0 2.35,0.95 1,1 1,2.4 0,1.4 -1,2.35 -0.95,1 -2.35,1 -1.4,0 -2.4,-1 -0.95,-0.95 -0.95,-2.35 0,-1.4 0.95,-2.4 1,-0.95 2.4,-0.95 m -11.8,-0.8 q 0,0.65 -0.5,1.1 -0.45,0.5 -1.15,0.5 -0.7,0 -1.2,-0.5 -0.45,-0.45 -0.45,-1.1 0,-0.7 0.45,-1.25 0.5,-0.4 1.2,-0.4 0.7,0 1.15,0.4 0.5,0.55 0.5,1.25 m 6.4,24.6 q 1.15,0 1.9,0.75 0.85,0.8 0.85,1.95 0,1.15 -0.85,1.9 -0.75,0.85 -1.9,0.85 -1.1,0 -1.95,-0.85 -0.75,-0.75 -0.75,-1.9 0,-1.15 0.75,-1.95 0.85,-0.75 1.95,-0.75"
       id="path220"
       inkscape:connector-curvature="0"
       style="fill:#d6cdb3;stroke:none" />
  </g>
  <g
     id="g1542">
    <path
       d="m 771,199.55 q -5.4,1.25 -10.95,1.6 l -3.85,0.1 h -0.8 q -7.85,0.1 -15.4,-1.65 V 160 h 31 v 39.55 m -9.4,-23.5 q 0,-1.4 -1,-2.45 -0.95,-0.95 -2.35,-0.95 -1.4,0 -2.4,0.95 -1,1.05 -1,2.45 0,1.35 1,2.3 1,1.05 2.4,1.05 1.4,0 2.35,-1.05 1,-0.95 1,-2.3 m 4.3,-10.55 -0.55,-0.45 -1.25,-0.3 -1.3,0.3 -0.6,0.45 q -0.7,0.8 -0.7,1.85 0,1.1 0.7,1.8 0.8,0.8 1.9,0.8 1.05,0 1.8,-0.8 0.75,-0.7 0.75,-1.8 0,-1.05 -0.75,-1.85 M 740,208.05 q 7.65,2.25 15.4,2.15 7.85,0.1 15.6,-2.2 v 22 h -31 v -21.95 m 1.5,10.55 q 0.5,0.5 1.15,0.5 0.65,0 1.05,-0.5 0.5,-0.45 0.5,-1.1 0,-0.65 -0.5,-1.15 -0.4,-0.4 -1.05,-0.4 -0.65,0 -1.15,0.4 -0.4,0.5 -0.4,1.15 0,0.65 0.4,1.1 m 16.15,0.6 q -0.95,-0.9 -2.25,-0.9 -1.3,0 -2.3,0.9 -0.9,0.95 -0.9,2.3 0,1.3 0.9,2.2 1,0.95 2.3,0.95 1.3,0 2.25,-0.95 0.95,-0.9 0.95,-2.2 0,-1.35 -0.95,-2.3"
       id="path222"
       inkscape:connector-curvature="0"
       style="fill:#e1d7bf;stroke:none" />
    <path
       d="m 757.65,219.2 q 0.95,0.95 0.95,2.3 0,1.3 -0.95,2.2 -0.95,0.95 -2.25,0.95 -1.3,0 -2.3,-0.95 -0.9,-0.9 -0.9,-2.2 0,-1.35 0.9,-2.3 1,-0.9 2.3,-0.9 1.3,0 2.25,0.9 m 8.25,-53.7 q 0.75,0.8 0.75,1.85 0,1.1 -0.75,1.8 -0.75,0.8 -1.8,0.8 -1.1,0 -1.9,-0.8 -0.7,-0.7 -0.7,-1.8 0,-1.05 0.7,-1.85 l 0.6,-0.45 1.3,-0.3 1.25,0.3 0.55,0.45 m -4.3,10.55 q 0,1.35 -1,2.3 -0.95,1.05 -2.35,1.05 -1.4,0 -2.4,-1.05 -1,-0.95 -1,-2.3 0,-1.4 1,-2.45 1,-0.95 2.4,-0.95 1.4,0 2.35,0.95 1,1.05 1,2.45 M 740,199.6 q 7.55,1.75 15.4,1.65 h 0.8 l 3.85,-0.1 q 5.55,-0.35 10.95,-1.6 V 208 q -7.75,2.3 -15.6,2.2 -7.75,0.1 -15.4,-2.15 v -8.45 m 1.5,19 q -0.4,-0.45 -0.4,-1.1 0,-0.65 0.4,-1.15 0.5,-0.4 1.15,-0.4 0.65,0 1.05,0.4 0.5,0.5 0.5,1.15 0,0.65 -0.5,1.1 -0.4,0.5 -1.05,0.5 -0.65,0 -1.15,-0.5"
       id="path224"
       inkscape:connector-curvature="0"
       style="fill:#d6cdb3;stroke:none" />
    <path
       d="m 720,194.3 v -0.25 q 0.2,-1.45 3.9,-3 l 15.95,-5.45 q 5.3,2.4 15.1,2.3 9.85,0.1 16.2,-2.1 l 14.85,5.25 q 3.85,1.55 3.95,3.05 v 0.05 l -0.2,0.75 q -0.75,1.15 -3.75,2.35 -15.3,5.6 -31.05,5.5 -15.7,0.1 -31.05,-5.5 -3,-1.2 -3.65,-2.35 L 720,194.3"
       id="path226"
       inkscape:connector-curvature="0"
       style="fill:#d6cdb3;stroke:none" />
    <path
       d="m 720,194.3 0.25,0.6 q 0.65,1.15 3.65,2.35 15.35,5.6 31.05,5.5 15.75,0.1 31.05,-5.5 3,-1.2 3.75,-2.35 l 0.2,-0.75 0.05,1.6 h -0.05 q 0,1.85 -3.95,3.7 -15.3,6.75 -31.05,6.55 -15.7,0.2 -31.05,-6.55 -3.7,-1.75 -3.9,-3.55 v -0.3 -1.3"
       id="path228"
       inkscape:connector-curvature="0"
       style="fill:#c6bda0;stroke:none" />
  </g>
  <g
     id="g1527">
    <path
       d="m 913.9,198.2 q 0,1.15 0.75,1.9 0.85,0.85 1.95,0.85 1.15,0 1.9,-0.85 0.85,-0.75 0.85,-1.9 0,-1.15 -0.85,-1.95 -0.75,-0.75 -1.9,-0.75 -1.1,0 -1.95,0.75 -0.75,0.8 -0.75,1.95 M 900,190 q 15.3,1.95 31,0 v 40 h -31 v -40 m 10.45,20.9 q 1.45,0 2.5,-1.05 1.05,-1.05 1.05,-2.5 0,-1.45 -1.05,-2.55 -1.05,-1 -2.5,-1 -1.45,0 -2.5,1 -1.05,1.1 -1.05,2.55 0,1.45 1.05,2.5 1.05,1.05 2.5,1.05"
       id="path234"
       inkscape:connector-curvature="0"
       style="fill:#e1d7bf;stroke:none" />
    <path
       d="m 910.45,210.9 q -1.45,0 -2.5,-1.05 -1.05,-1.05 -1.05,-2.5 0,-1.45 1.05,-2.55 1.05,-1 2.5,-1 1.45,0 2.5,1 1.05,1.1 1.05,2.55 0,1.45 -1.05,2.5 -1.05,1.05 -2.5,1.05 m 3.45,-12.7 q 0,-1.15 0.75,-1.95 0.85,-0.75 1.95,-0.75 1.15,0 1.9,0.75 0.85,0.8 0.85,1.95 0,1.15 -0.85,1.9 -0.75,0.85 -1.9,0.85 -1.1,0 -1.95,-0.85 -0.75,-0.75 -0.75,-1.9 M 931,190 q -15.7,1.95 -31,0 v -30 h 31 v 30"
       id="path236"
       inkscape:connector-curvature="0"
       style="fill:#d6cdb3;stroke:none" />
  </g>
  <g
     id="g1536">
    <path
       d="m 834.65,196.25 q -0.75,0.8 -0.75,1.95 0,1.15 0.75,1.9 0.85,0.85 1.95,0.85 1.15,0 1.9,-0.85 0.85,-0.75 0.85,-1.9 0,-1.15 -0.85,-1.95 -0.75,-0.75 -1.9,-0.75 -1.1,0 -1.95,0.75 M 830.2,170.9 q 0,-0.7 -0.5,-1.25 -0.45,-0.4 -1.15,-0.4 -0.7,0 -1.2,0.4 -0.45,0.55 -0.45,1.25 0,0.65 0.45,1.1 0.5,0.5 1.2,0.5 0.7,0 1.15,-0.5 0.5,-0.45 0.5,-1.1 m 14.15,1.75 q -0.95,-0.95 -2.35,-0.95 -1.4,0 -2.4,0.95 -0.95,1 -0.95,2.4 0,1.4 0.95,2.35 1,1 2.4,1 1.4,0 2.35,-1 1,-0.95 1,-2.35 0,-1.4 -1,-2.4 M 820,160 h 31 v 70 h -31 v -70 m 12.95,49.85 q 1.05,-1.05 1.05,-2.5 0,-1.45 -1.05,-2.55 -1.05,-1 -2.5,-1 -1.45,0 -2.5,1 -1.05,1.1 -1.05,2.55 0,1.45 1.05,2.5 1.05,1.05 2.5,1.05 1.45,0 2.5,-1.05"
       id="path230"
       inkscape:connector-curvature="0"
       style="fill:#e1d7bf;stroke:none" />
    <path
       d="m 832.95,209.85 q -1.05,1.05 -2.5,1.05 -1.45,0 -2.5,-1.05 -1.05,-1.05 -1.05,-2.5 0,-1.45 1.05,-2.55 1.05,-1 2.5,-1 1.45,0 2.5,1 1.05,1.1 1.05,2.55 0,1.45 -1.05,2.5 m 11.4,-37.2 q 1,1 1,2.4 0,1.4 -1,2.35 -0.95,1 -2.35,1 -1.4,0 -2.4,-1 -0.95,-0.95 -0.95,-2.35 0,-1.4 0.95,-2.4 1,-0.95 2.4,-0.95 1.4,0 2.35,0.95 M 830.2,170.9 q 0,0.65 -0.5,1.1 -0.45,0.5 -1.15,0.5 -0.7,0 -1.2,-0.5 -0.45,-0.45 -0.45,-1.1 0,-0.7 0.45,-1.25 0.5,-0.4 1.2,-0.4 0.7,0 1.15,0.4 0.5,0.55 0.5,1.25 m 4.45,25.35 q 0.85,-0.75 1.95,-0.75 1.15,0 1.9,0.75 0.85,0.8 0.85,1.95 0,1.15 -0.85,1.9 -0.75,0.85 -1.9,0.85 -1.1,0 -1.95,-0.85 -0.75,-0.75 -0.75,-1.9 0,-1.15 0.75,-1.95"
       id="path232"
       inkscape:connector-curvature="0"
       style="fill:#d6cdb3;stroke:none" />
    <path
       d="m 850.15,177.95 0.8,-0.05 v 7.55 l -1.05,4.3 -1.55,3.15 q 1.2,-0.7 2.6,-0.6 v 14.1 q -2.75,-1.15 -6.2,-1.25 L 844,204.9 h -0.15 l -0.15,-0.05 q -1.15,-0.5 -1.9,-1.6 l -5.4,6.15 0.3,0.2 q 1.65,1.1 2.05,3.05 0.3,2 -0.8,3.65 -0.8,1.15 -1.95,1.65 l -0.15,0.05 h -0.15 l -0.75,0.25 q -7.05,0.2 -11.05,4.8 -0.6,-1.85 -0.8,-3.8 l -3.05,1.5 v -6.45 l 3.45,-1.9 0.7,-2.85 0.05,-0.1 v -0.05 q 0.15,-1 0.8,-1.9 1.1,-1.65 3.1,-2.05 1.95,-0.35 3.6,0.75 l 0.05,0.05 q 10.9,-10 17.5,-27.2 l 0.6,-0.85 0.25,-0.25"
       id="path238"
       inkscape:connector-curvature="0"
       style="fill:#000000;fill-opacity:0.10196078;stroke:none" />
    <path
       d="m 817.65,215.8 v -1 q -0.05,-0.7 0.05,-1.3 l 0.6,-1.1 0.85,-0.7 q 20.05,-9.45 30.15,-35.65 l 0.6,-0.85 0.25,-0.25 0.8,-0.05 q 0.4,0.3 0.6,1.05 l 0.1,1.45 v 1 l -0.1,-0.45 q -0.2,-0.75 -0.6,-1.05 l -0.8,0.05 -0.25,0.25 -0.6,0.85 q -10.1,26.2 -30.15,35.65 l -0.85,0.7 -0.6,1.1 -0.05,0.3"
       id="path240"
       inkscape:connector-curvature="0"
       style="fill:#90d228;stroke:none" />
    <path
       d="m 817.65,215.8 0.05,-0.3 0.6,-1.1 0.85,-0.7 q 20.05,-9.45 30.15,-35.65 l 0.6,-0.85 0.25,-0.25 0.8,-0.05 q 0.4,0.3 0.6,1.05 l 0.1,0.45 -0.05,1.1 -1.7,7.25 q -11,22.95 -30.7,31.35 h -0.05 q -0.4,0.3 -0.85,0 -0.4,-0.3 -0.6,-1.05 l -0.05,-1.25"
       id="path242"
       inkscape:connector-curvature="0"
       style="fill:#80be1f;stroke:none" />
    <path
       d="m 847.95,190.1 q 1.65,-1.1 3.6,-0.75 2,0.4 3.1,2.05 0.65,0.9 0.8,1.9 v 0.05 l 0.05,0.1 q 2.25,7.5 0.3,13.5 -4,-4.6 -11.05,-4.8 L 844,201.9 h -0.15 l -0.15,-0.05 q -1.15,-0.5 -1.95,-1.65 -1.1,-1.65 -0.8,-3.65 0.4,-1.95 2.05,-3.05 1.45,-1 3.1,-0.85 0.4,-1.55 1.85,-2.55"
       id="path244"
       inkscape:connector-curvature="0"
       style="fill:#90d228;stroke:none" />
    <path
       d="m 838.75,209.65 q 0.3,2 -0.8,3.65 -0.8,1.15 -1.95,1.65 l -0.15,0.05 h -0.15 l -0.75,0.25 q -7.05,0.2 -11.05,4.8 -1.95,-6 0.3,-13.5 l 0.05,-0.1 v -0.05 q 0.15,-1 0.8,-1.9 1.1,-1.65 3.1,-2.05 1.95,-0.35 3.6,0.75 1.45,1 1.85,2.55 1.65,-0.15 3.1,0.85 1.65,1.1 2.05,3.05"
       id="path246"
       inkscape:connector-curvature="0"
       style="fill:#90d228;stroke:none" />
  </g>
  <g
     id="g1563">
    <path
       d="m 371,196.1 v 0.55 q 0.35,13.1 6.6,23.45 6.25,10.3 -5.5,9.9 h -33.2 q -11.75,0.4 -5.5,-9.9 6.25,-10.35 6.6,-23.45 V 160 h 31 v 36.1 m -28.1,10.8 q 0,2 1.45,3.45 1.45,1.45 3.45,1.45 2.05,0 3.5,-1.45 1.4,-1.45 1.4,-3.45 0,-2.05 -1.4,-3.5 -1.45,-1.4 -3.5,-1.4 -2,0 -3.45,1.4 -1.45,1.45 -1.45,3.5 m 14.8,-16.75 q -1.5,0 -2.6,1 -1,1.1 -1,2.6 0,1.5 1,2.55 1.1,1.05 2.6,1.05 1.5,0 2.55,-1.05 1.05,-1.05 1.05,-2.55 0,-1.5 -1.05,-2.6 -1.05,-1 -2.55,-1 m -10.8,0.35 q 1,0 1.7,-0.8 0.8,-0.7 0.8,-1.7 0,-1.05 -0.8,-1.8 -0.7,-0.75 -1.7,-0.75 -1.05,0 -1.85,0.75 -0.7,0.75 -0.7,1.8 0,1 0.7,1.7 0.8,0.8 1.85,0.8"
       id="path248"
       inkscape:connector-curvature="0"
       style="fill:#e1d7bf;stroke:none" />
    <path
       d="m 346.9,190.5 q -1.05,0 -1.85,-0.8 -0.7,-0.7 -0.7,-1.7 0,-1.05 0.7,-1.8 0.8,-0.75 1.85,-0.75 1,0 1.7,0.75 0.8,0.75 0.8,1.8 0,1 -0.8,1.7 -0.7,0.8 -1.7,0.8 m 10.8,-0.35 q 1.5,0 2.55,1 1.05,1.1 1.05,2.6 0,1.5 -1.05,2.55 -1.05,1.05 -2.55,1.05 -1.5,0 -2.6,-1.05 -1,-1.05 -1,-2.55 0,-1.5 1,-2.6 1.1,-1 2.6,-1 m -14.8,16.75 q 0,-2.05 1.45,-3.5 1.45,-1.4 3.45,-1.4 2.05,0 3.5,1.4 1.4,1.45 1.4,3.5 0,2 -1.4,3.45 -1.45,1.45 -3.5,1.45 -2,0 -3.45,-1.45 -1.45,-1.45 -1.45,-3.45"
       id="path250"
       inkscape:connector-curvature="0"
       style="fill:#d6cdb3;stroke:none" />
  </g>
  <g
     id="g1596"
     transform="translate(0,29.999993)">
    <path
       d="m 38.5,246 q -2.3,0 -3.9,1.55 -1.6,1.65 -1.6,3.95 0,2.3 1.6,3.9 1.6,1.6 3.9,1.6 2.3,0 3.95,-1.6 1.55,-1.6 1.55,-3.9 0,-2.3 -1.55,-3.95 Q 40.8,246 38.5,246 m -37.35,0.15 0.05,-0.1 Q 3.4,242 9.65,242 H 70 v 4 h -0.3 q -3.2,0 -5.45,2.25 -2.25,2.25 -2.25,5.45 0,3.2 2.25,5.45 2.25,2.25 5.45,2.25 H 70 V 273 q -8.35,0 -15.45,0.25 1.45,-1.55 1.45,-3.75 0,-2.25 -1.6,-3.9 -1.65,-1.6 -3.9,-1.6 -2.3,0 -3.9,1.6 -1.6,1.65 -1.6,3.9 0,2.3 1.6,3.9 l 0.2,0.2 q -12.55,0.65 -20.25,2.15 l -7,1.05 -1.05,0.1 -14.4,2 -0.65,-0.4 -0.5,-0.35 -1,-1 -0.2,-0.25 -0.1,-0.1 -0.8,-1.55 L 0.25,273.2 0.2,273 0,270.9 v -9.5 q 3,-0.1 5.15,-2.25 2.25,-2.25 2.25,-5.45 0,-3.2 -2.25,-5.45 -1.7,-1.7 -4,-2.1 m 20.7,16 Q 20.65,261 19,261 q -1.7,0 -2.8,1.15 -1.2,1.2 -1.2,2.85 0,1.7 1.2,2.85 1.1,1.15 2.8,1.15 1.65,0 2.85,-1.15 Q 23,266.7 23,265 q 0,-1.65 -1.15,-2.85"
       id="path252"
       inkscape:connector-curvature="0"
       style="fill:#e1d7bf;stroke:none" />
    <path
       d="m 21.85,262.15 q 1.15,1.2 1.15,2.85 0,1.7 -1.15,2.85 Q 20.65,269 19,269 17.3,269 16.2,267.85 15,266.7 15,265 q 0,-1.65 1.2,-2.85 1.1,-1.15 2.8,-1.15 1.65,0 2.85,1.15 M 38.5,246 q 2.3,0 3.95,1.55 1.55,1.65 1.55,3.95 0,2.3 -1.55,3.9 -1.65,1.6 -3.95,1.6 -2.3,0 -3.9,-1.6 -1.6,-1.6 -1.6,-3.9 0,-2.3 1.6,-3.95 1.6,-1.55 3.9,-1.55 m -37.35,0.15 q 2.3,0.4 4,2.1 2.25,2.25 2.25,5.45 0,3.2 -2.25,5.45 Q 3,261.3 0,261.4 v -11.1 q 0,-0.3 0.15,-0.65 0.25,-2.05 1,-3.5 m 45.65,27.45 -0.2,-0.2 q -1.6,-1.6 -1.6,-3.9 0,-2.25 1.6,-3.9 1.6,-1.6 3.9,-1.6 2.25,0 3.9,1.6 1.6,1.65 1.6,3.9 0,2.2 -1.45,3.75 L 46.8,273.6 M 70,261.4 h -0.3 q -3.2,0 -5.45,-2.25 Q 62,256.9 62,253.7 62,250.5 64.25,248.25 66.5,246 69.7,246 H 70 v 15.4"
       id="path254"
       inkscape:connector-curvature="0"
       style="fill:#d6cdb3;stroke:none" />
    <path
       d="M 70,242 H 9.65 q -6.25,0 -8.45,4.05 l -0.05,0.1 q -0.75,1.45 -1,3.5 H 0 v -0.45 q 0.05,-1.75 0.4,-3.15 V 246 q 1.65,-6 9.25,-6 H 70 v 2"
       id="path256"
       inkscape:connector-curvature="0"
       style="fill:#f3ecdc;stroke:none" />
    <path
       d="M 0,249.65 H 0.15 Q 0,250 0,250.3 v -0.65"
       id="path258"
       inkscape:connector-curvature="0"
       style="fill:#93db24;stroke:none" />
    <path
       d="m 4.1,278.9 14.4,-2 1.05,-0.1 7,-1.05 q 7.7,-1.5 20.25,-2.15 l 7.75,-0.35 Q 61.65,273 70,273 v 7 H 9.65 Q 6.3,280 4.1,278.9"
       id="path260"
       inkscape:connector-curvature="0"
       style="fill:#c58f5c;stroke:none" />
  </g>
  <g
     id="g1602"
     transform="translate(0,29.999993)">
    <path
       d="M 150,242 H 80 v -2 h 70 v 2"
       id="path262"
       inkscape:connector-curvature="0"
       style="fill:#f3ecdc;stroke:none" />
    <path
       d="m 150,242 v 4 h -0.3 q -3.2,0 -5.45,2.25 -2.25,2.25 -2.25,5.45 0,3.2 2.25,5.45 2.25,2.25 5.45,2.25 H 150 V 273 h -15.2 q 1.2,-1.5 1.2,-3.5 0,-2.25 -1.6,-3.9 -1.65,-1.6 -3.9,-1.6 -2.3,0 -3.9,1.6 -1.6,1.65 -1.6,3.9 0,2 1.25,3.5 H 80 v -11.6 q 3,-0.1 5.15,-2.25 2.25,-2.25 2.25,-5.45 0,-3.2 -2.25,-5.45 Q 83,246.1 80,246 v -4 h 70 m -47,23 q 0,-1.65 -1.15,-2.85 Q 100.65,261 99,261 q -1.7,0 -2.8,1.15 -1.2,1.2 -1.2,2.85 0,1.7 1.2,2.85 1.1,1.15 2.8,1.15 1.65,0 2.85,-1.15 Q 103,266.7 103,265 m 15.5,-19 q -2.3,0 -3.9,1.55 -1.6,1.65 -1.6,3.95 0,2.3 1.6,3.9 1.6,1.6 3.9,1.6 2.3,0 3.95,-1.6 1.55,-1.6 1.55,-3.9 0,-2.3 -1.55,-3.95 Q 120.8,246 118.5,246"
       id="path264"
       inkscape:connector-curvature="0"
       style="fill:#e1d7bf;stroke:none" />
    <path
       d="m 118.5,246 q 2.3,0 3.95,1.55 1.55,1.65 1.55,3.95 0,2.3 -1.55,3.9 -1.65,1.6 -3.95,1.6 -2.3,0 -3.9,-1.6 -1.6,-1.6 -1.6,-3.9 0,-2.3 1.6,-3.95 1.6,-1.55 3.9,-1.55 m 31.5,15.4 h -0.3 q -3.2,0 -5.45,-2.25 -2.25,-2.25 -2.25,-5.45 0,-3.2 2.25,-5.45 2.25,-2.25 5.45,-2.25 h 0.3 v 15.4 M 80,246 q 3,0.1 5.15,2.25 2.25,2.25 2.25,5.45 0,3.2 -2.25,5.45 Q 83,261.3 80,261.4 V 246 m 46.25,27 q -1.25,-1.5 -1.25,-3.5 0,-2.25 1.6,-3.9 1.6,-1.6 3.9,-1.6 2.25,0 3.9,1.6 1.6,1.65 1.6,3.9 0,2 -1.2,3.5 h -8.55 M 103,265 q 0,1.7 -1.15,2.85 Q 100.65,269 99,269 97.3,269 96.2,267.85 95,266.7 95,265 q 0,-1.65 1.2,-2.85 1.1,-1.15 2.8,-1.15 1.65,0 2.85,1.15 1.15,1.2 1.15,2.85"
       id="path266"
       inkscape:connector-curvature="0"
       style="fill:#d6cdb3;stroke:none" />
    <path
       d="m 80,273 h 46.25 8.55 15.2 v 7 H 80 v -7"
       id="path268"
       inkscape:connector-curvature="0"
       style="fill:#c58f5c;stroke:none" />
  </g>
  <g
     id="g1609"
     transform="translate(0,29.999993)">
    <path
       d="m 194.6,247.55 q -1.6,1.65 -1.6,3.95 0,2.3 1.6,3.9 1.6,1.6 3.9,1.6 2.3,0 3.95,-1.6 1.55,-1.6 1.55,-3.9 0,-2.3 -1.55,-3.95 -1.65,-1.55 -3.95,-1.55 -2.3,0 -3.9,1.55 M 160,246 v -4 h 70 v 4 h -0.3 q -3.2,0 -5.45,2.25 -2.25,2.25 -2.25,5.45 0,3.2 2.25,5.45 2.25,2.25 5.45,2.25 H 230 V 273 h -15.2 q 1.2,-1.5 1.2,-3.5 0,-2.25 -1.6,-3.9 -1.65,-1.6 -3.9,-1.6 -2.3,0 -3.9,1.6 -1.6,1.65 -1.6,3.9 0,2 1.25,3.5 H 160 v -11.6 q 3,-0.1 5.15,-2.25 2.25,-2.25 2.25,-5.45 0,-3.2 -2.25,-5.45 Q 163,246.1 160,246 m 23,19 q 0,-1.65 -1.15,-2.85 -1.2,-1.15 -2.85,-1.15 -1.7,0 -2.8,1.15 -1.2,1.2 -1.2,2.85 0,1.7 1.2,2.85 1.1,1.15 2.8,1.15 1.65,0 2.85,-1.15 Q 183,266.7 183,265"
       id="path270"
       inkscape:connector-curvature="0"
       style="fill:#e1d7bf;stroke:none" />
    <path
       d="m 183,265 q 0,1.7 -1.15,2.85 -1.2,1.15 -2.85,1.15 -1.7,0 -2.8,-1.15 -1.2,-1.15 -1.2,-2.85 0,-1.65 1.2,-2.85 1.1,-1.15 2.8,-1.15 1.65,0 2.85,1.15 1.15,1.2 1.15,2.85 m 11.6,-17.45 q 1.6,-1.55 3.9,-1.55 2.3,0 3.95,1.55 1.55,1.65 1.55,3.95 0,2.3 -1.55,3.9 -1.65,1.6 -3.95,1.6 -2.3,0 -3.9,-1.6 -1.6,-1.6 -1.6,-3.9 0,-2.3 1.6,-3.95 M 160,246 q 3,0.1 5.15,2.25 2.25,2.25 2.25,5.45 0,3.2 -2.25,5.45 Q 163,261.3 160,261.4 V 246 m 46.25,27 q -1.25,-1.5 -1.25,-3.5 0,-2.25 1.6,-3.9 1.6,-1.6 3.9,-1.6 2.25,0 3.9,1.6 1.6,1.65 1.6,3.9 0,2 -1.2,3.5 h -8.55 M 230,261.4 h -0.3 q -3.2,0 -5.45,-2.25 -2.25,-2.25 -2.25,-5.45 0,-3.2 2.25,-5.45 2.25,-2.25 5.45,-2.25 h 0.3 v 15.4"
       id="path272"
       inkscape:connector-curvature="0"
       style="fill:#d6cdb3;stroke:none" />
    <path
       d="m 230,242 h -70 v -2 h 70 v 2"
       id="path274"
       inkscape:connector-curvature="0"
       style="fill:#f3ecdc;stroke:none" />
    <path
       d="m 160,273 h 46.25 8.55 15.2 v 7 q -31.75,-7.2 -70,0 v -7"
       id="path276"
       inkscape:connector-curvature="0"
       style="fill:#c58f5c;stroke:none" />
    <path
       d="m 230,280 h -70 q 38.25,-7.2 70,0"
       id="path278"
       inkscape:connector-curvature="0"
       style="fill:#b18459;stroke:none" />
  </g>
  <g
     id="g1616"
     transform="translate(0,29.999993)">
    <path
       d="m 310,261.35 h -0.3 q -3.2,0 -5.45,-2.25 -2.25,-2.25 -2.25,-5.45 0,-3.15 2.25,-5.4 1.9,-1.9 4.55,-2.2 0.8,1.5 1.05,3.6 l 0.15,0.65 v 11.05 M 240,246 q 3,0.1 5.15,2.25 2.25,2.25 2.25,5.4 0,3.2 -2.25,5.45 -2.15,2.15 -5.15,2.25 V 246 m 56,23.4 q 0,2.3 -1.6,3.9 -1.65,1.6 -3.9,1.6 -2.3,0 -3.9,-1.6 -1.6,-1.6 -1.6,-3.9 0,-2.25 1.6,-3.85 1.6,-1.6 3.9,-1.6 2.25,0 3.9,1.6 1.6,1.6 1.6,3.85 m -12,-17.9 q 0,2.25 -1.55,3.85 -1.65,1.6 -3.95,1.6 -2.3,0 -3.9,-1.6 -1.6,-1.6 -1.6,-3.85 0,-2.3 1.6,-3.95 1.6,-1.55 3.9,-1.55 2.3,0 3.95,1.55 1.55,1.65 1.55,3.95 m -21,13.45 q 0,1.65 -1.15,2.8 -1.2,1.15 -2.85,1.15 -1.7,0 -2.8,-1.15 -1.2,-1.15 -1.2,-2.8 0,-1.65 1.2,-2.85 1.1,-1.15 2.8,-1.15 1.65,0 2.85,1.15 1.15,1.2 1.15,2.85"
       id="path280"
       inkscape:connector-curvature="0"
       style="fill:#d6cdb3;stroke:none" />
    <path
       d="m 263,264.95 q 0,-1.65 -1.15,-2.85 -1.2,-1.15 -2.85,-1.15 -1.7,0 -2.8,1.15 -1.2,1.2 -1.2,2.85 0,1.65 1.2,2.8 1.1,1.15 2.8,1.15 1.65,0 2.85,-1.15 1.15,-1.15 1.15,-2.8 m 45.8,-18.9 q -2.65,0.3 -4.55,2.2 -2.25,2.25 -2.25,5.4 0,3.2 2.25,5.45 2.25,2.25 5.45,2.25 h 0.3 v 9.55 l -0.2,2.1 -0.05,0.2 -0.6,2.05 -0.8,1.55 -0.1,0.1 -0.2,0.25 -1,1 -0.5,0.35 -0.65,0.4 -14.4,-2 -1.05,-0.1 -7,-1.05 Q 269.6,273.05 240,273 v -11.65 q 3,-0.1 5.15,-2.25 2.25,-2.25 2.25,-5.45 0,-3.15 -2.25,-5.4 Q 243,246.1 240,246 v -4 h 60.35 q 6.25,0 8.45,4.05 M 296,269.4 q 0,-2.25 -1.6,-3.85 -1.65,-1.6 -3.9,-1.6 -2.3,0 -3.9,1.6 -1.6,1.6 -1.6,3.85 0,2.3 1.6,3.9 1.6,1.6 3.9,1.6 2.25,0 3.9,-1.6 1.6,-1.6 1.6,-3.9 m -12,-17.9 q 0,-2.3 -1.55,-3.95 -1.65,-1.55 -3.95,-1.55 -2.3,0 -3.9,1.55 -1.6,1.65 -1.6,3.95 0,2.25 1.6,3.85 1.6,1.6 3.9,1.6 2.3,0 3.95,-1.6 1.55,-1.6 1.55,-3.85"
       id="path282"
       inkscape:connector-curvature="0"
       style="fill:#e1d7bf;stroke:none" />
    <path
       d="m 309.85,249.65 q -0.25,-2.1 -1.05,-3.6 Q 306.6,242 300.35,242 H 240 v -2 h 60.35 q 7.6,0 9.25,6 l 0.4,3.2 v 0.45 h -0.15"
       id="path284"
       inkscape:connector-curvature="0"
       style="fill:#f3ecdc;stroke:none" />
    <path
       d="M 309.85,249.65 H 310 v 0.65 l -0.15,-0.65"
       id="path286"
       inkscape:connector-curvature="0"
       style="fill:#93db24;stroke:none" />
    <path
       d="m 240,273 q 29.6,0.05 43.45,2.75 l 7,1.05 1.05,0.1 14.4,2 q -2.2,1.1 -5.55,1.1 H 240 v -7"
       id="path288"
       inkscape:connector-curvature="0"
       style="fill:#c58f5c;stroke:none" />
  </g>
  <g
     id="g1570"
     transform="translate(0,29.999993)">
    <path
       d="m 0,169.65 v -0.45 q 0.05,-1.75 0.4,-3.15 V 166 q 1.65,-6 9.25,-6 H 70 v 2 H 9.65 q -6.25,0 -8.45,4.05 v 0.1 q -0.8,1.45 -1.05,3.5 H 0"
       id="path290"
       inkscape:connector-curvature="0"
       style="fill:#f3ecdc;stroke:none" />
    <path
       d="m 1.2,166.15 v -0.1 Q 3.4,162 9.65,162 H 70 v 4 h -0.3 q -3.2,0 -5.45,2.25 -2.25,2.25 -2.25,5.45 0,3.2 2.25,5.45 2.25,2.25 5.45,2.25 H 70 V 197 H 10.85 q -6.4,0.35 -8.5,-1.7 L 0.25,193.2 0.2,193 0,190.9 v -9.5 q 3,-0.1 5.15,-2.25 2.25,-2.25 2.25,-5.45 0,-3.2 -2.25,-5.45 -1.7,-1.7 -3.95,-2.1 m 53.2,19.45 q -1.65,-1.6 -3.9,-1.6 -2.3,0 -3.9,1.6 -1.6,1.65 -1.6,3.9 0,2.3 1.6,3.9 1.6,1.6 3.9,1.6 2.25,0 3.9,-1.6 1.6,-1.6 1.6,-3.9 0,-2.25 -1.6,-3.9 m -38.2,-3.45 q -1.2,1.2 -1.2,2.85 0,1.7 1.2,2.85 1.1,1.15 2.8,1.15 1.65,0 2.85,-1.15 Q 23,186.7 23,185 23,183.35 21.85,182.15 20.65,181 19,181 q -1.7,0 -2.8,1.15 M 38.5,166 q -2.3,0 -3.9,1.55 -1.6,1.65 -1.6,3.95 0,2.3 1.6,3.9 1.6,1.6 3.9,1.6 2.3,0 3.95,-1.6 1.55,-1.6 1.55,-3.9 0,-2.3 -1.55,-3.95 Q 40.8,166 38.5,166"
       id="path292"
       inkscape:connector-curvature="0"
       style="fill:#e1d7bf;stroke:none" />
    <path
       d="m 38.5,166 q 2.3,0 3.95,1.55 1.55,1.65 1.55,3.95 0,2.3 -1.55,3.9 -1.65,1.6 -3.95,1.6 -2.3,0 -3.9,-1.6 -1.6,-1.6 -1.6,-3.9 0,-2.3 1.6,-3.95 1.6,-1.55 3.9,-1.55 m -38.35,3.65 q 0.25,-2.05 1.05,-3.5 2.25,0.4 3.95,2.1 2.25,2.25 2.25,5.45 0,3.2 -2.25,5.45 Q 3,181.3 0,181.4 V 170.3 Q 0,170 0.15,169.65 M 70,166 v 15.4 h -0.3 q -3.2,0 -5.45,-2.25 Q 62,176.9 62,173.7 62,170.5 64.25,168.25 66.5,166 69.7,166 H 70 m -15.6,19.6 q 1.6,1.65 1.6,3.9 0,2.3 -1.6,3.9 -1.65,1.6 -3.9,1.6 -2.3,0 -3.9,-1.6 -1.6,-1.6 -1.6,-3.9 0,-2.25 1.6,-3.9 1.6,-1.6 3.9,-1.6 2.25,0 3.9,1.6 M 16.2,182.15 Q 17.3,181 19,181 q 1.65,0 2.85,1.15 1.15,1.2 1.15,2.85 0,1.7 -1.15,2.85 Q 20.65,189 19,189 17.3,189 16.2,187.85 15,186.7 15,185 q 0,-1.65 1.2,-2.85"
       id="path294"
       inkscape:connector-curvature="0"
       style="fill:#d6cdb3;stroke:none" />
    <path
       d="m 70,197 v 3 H 9.65 q -4.3,0 -6.7,-1.85 l -1,-1 -0.2,-0.25 -0.1,-0.1 -0.8,-1.55 -0.6,-2.05 2.1,2.1 q 2.1,2.05 8.5,1.7 H 70"
       id="path296"
       inkscape:connector-curvature="0"
       style="fill:#c58f5c;stroke:none" />
    <path
       d="M 0,169.65 H 0.15 Q 0,170 0,170.3 v -0.65"
       id="path298"
       inkscape:connector-curvature="0"
       style="fill:#93db24;stroke:none" />
  </g>
  <g
     id="g1576"
     transform="translate(0,29.999993)">
    <path
       d="m 150,166 h -0.3 q -3.2,0 -5.45,2.25 -2.25,2.25 -2.25,5.45 0,3.2 2.25,5.45 2.25,2.25 5.45,2.25 H 150 V 197 H 80 v -15.6 q 3,-0.1 5.15,-2.25 2.25,-2.25 2.25,-5.45 0,-3.2 -2.25,-5.45 Q 83,166.1 80,166 v -4 h 70 v 4 m -15.6,19.6 q -1.65,-1.6 -3.9,-1.6 -2.3,0 -3.9,1.6 -1.6,1.65 -1.6,3.9 0,2.3 1.6,3.9 1.6,1.6 3.9,1.6 2.25,0 3.9,-1.6 1.6,-1.6 1.6,-3.9 0,-2.25 -1.6,-3.9 m -38.2,-3.45 q -1.2,1.2 -1.2,2.85 0,1.7 1.2,2.85 1.1,1.15 2.8,1.15 1.65,0 2.85,-1.15 1.15,-1.15 1.15,-2.85 0,-1.65 -1.15,-2.85 Q 100.65,181 99,181 q -1.7,0 -2.8,1.15 m 26.25,-14.6 Q 120.8,166 118.5,166 q -2.3,0 -3.9,1.55 -1.6,1.65 -1.6,3.95 0,2.3 1.6,3.9 1.6,1.6 3.9,1.6 2.3,0 3.95,-1.6 1.55,-1.6 1.55,-3.9 0,-2.3 -1.55,-3.95"
       id="path300"
       inkscape:connector-curvature="0"
       style="fill:#e1d7bf;stroke:none" />
    <path
       d="m 122.45,167.55 q 1.55,1.65 1.55,3.95 0,2.3 -1.55,3.9 -1.65,1.6 -3.95,1.6 -2.3,0 -3.9,-1.6 -1.6,-1.6 -1.6,-3.9 0,-2.3 1.6,-3.95 1.6,-1.55 3.9,-1.55 2.3,0 3.95,1.55 M 150,181.4 h -0.3 q -3.2,0 -5.45,-2.25 -2.25,-2.25 -2.25,-5.45 0,-3.2 2.25,-5.45 2.25,-2.25 5.45,-2.25 h 0.3 v 15.4 M 80,166 q 3,0.1 5.15,2.25 2.25,2.25 2.25,5.45 0,3.2 -2.25,5.45 Q 83,181.3 80,181.4 V 166 m 54.4,19.6 q 1.6,1.65 1.6,3.9 0,2.3 -1.6,3.9 -1.65,1.6 -3.9,1.6 -2.3,0 -3.9,-1.6 -1.6,-1.6 -1.6,-3.9 0,-2.25 1.6,-3.9 1.6,-1.6 3.9,-1.6 2.25,0 3.9,1.6 M 96.2,182.15 Q 97.3,181 99,181 q 1.65,0 2.85,1.15 1.15,1.2 1.15,2.85 0,1.7 -1.15,2.85 Q 100.65,189 99,189 97.3,189 96.2,187.85 95,186.7 95,185 q 0,-1.65 1.2,-2.85"
       id="path302"
       inkscape:connector-curvature="0"
       style="fill:#d6cdb3;stroke:none" />
    <path
       d="M 150,162 H 80 v -2 h 70 v 2"
       id="path304"
       inkscape:connector-curvature="0"
       style="fill:#f3ecdc;stroke:none" />
    <path
       d="m 80,197 h 70 v 3 H 80 v -3"
       id="path306"
       inkscape:connector-curvature="0"
       style="fill:#c58f5c;stroke:none" />
  </g>
  <g
     id="g1582"
     transform="translate(0,29.999993)">
    <path
       d="m 160,162 v -2 h 70 v 2 h -70"
       id="path308"
       inkscape:connector-curvature="0"
       style="fill:#f3ecdc;stroke:none" />
    <path
       d="m 160,162 h 70 v 4 h -0.3 q -3.2,0 -5.45,2.25 -2.25,2.25 -2.25,5.45 0,3.2 2.25,5.45 2.25,2.25 5.45,2.25 H 230 V 197 q -8.45,-1.75 -16.8,-2.65 l 1.2,-0.95 q 1.6,-1.6 1.6,-3.9 0,-2.25 -1.6,-3.9 -1.65,-1.6 -3.9,-1.6 -2.3,0 -3.9,1.6 -1.6,1.65 -1.6,3.9 0,2.3 1.6,3.9 l 0.4,0.35 Q 183.2,192 160,197 v -15.6 q 3,-0.1 5.15,-2.25 2.25,-2.25 2.25,-5.45 0,-3.2 -2.25,-5.45 Q 163,166.1 160,166 v -4 m 16.2,20.15 q -1.2,1.2 -1.2,2.85 0,1.7 1.2,2.85 1.1,1.15 2.8,1.15 1.65,0 2.85,-1.15 1.15,-1.15 1.15,-2.85 0,-1.65 -1.15,-2.85 -1.2,-1.15 -2.85,-1.15 -1.7,0 -2.8,1.15 m 26.25,-14.6 Q 200.8,166 198.5,166 q -2.3,0 -3.9,1.55 -1.6,1.65 -1.6,3.95 0,2.3 1.6,3.9 1.6,1.6 3.9,1.6 2.3,0 3.95,-1.6 1.55,-1.6 1.55,-3.9 0,-2.3 -1.55,-3.95"
       id="path310"
       inkscape:connector-curvature="0"
       style="fill:#e1d7bf;stroke:none" />
    <path
       d="m 202.45,167.55 q 1.55,1.65 1.55,3.95 0,2.3 -1.55,3.9 -1.65,1.6 -3.95,1.6 -2.3,0 -3.9,-1.6 -1.6,-1.6 -1.6,-3.9 0,-2.3 1.6,-3.95 1.6,-1.55 3.9,-1.55 2.3,0 3.95,1.55 M 230,166 v 15.4 h -0.3 q -3.2,0 -5.45,-2.25 -2.25,-2.25 -2.25,-5.45 0,-3.2 2.25,-5.45 2.25,-2.25 5.45,-2.25 h 0.3 m -70,15.4 V 166 q 3,0.1 5.15,2.25 2.25,2.25 2.25,5.45 0,3.2 -2.25,5.45 -2.15,2.15 -5.15,2.25 m 47,12.35 -0.4,-0.35 q -1.6,-1.6 -1.6,-3.9 0,-2.25 1.6,-3.9 1.6,-1.6 3.9,-1.6 2.25,0 3.9,1.6 1.6,1.65 1.6,3.9 0,2.3 -1.6,3.9 l -1.2,0.95 -6.2,-0.6 m -30.8,-11.6 q 1.1,-1.15 2.8,-1.15 1.65,0 2.85,1.15 1.15,1.2 1.15,2.85 0,1.7 -1.15,2.85 -1.2,1.15 -2.85,1.15 -1.7,0 -2.8,-1.15 -1.2,-1.15 -1.2,-2.85 0,-1.65 1.2,-2.85"
       id="path312"
       inkscape:connector-curvature="0"
       style="fill:#d6cdb3;stroke:none" />
    <path
       d="m 230,197 v 3 h -70 v -3 q 23.2,-5 47,-3.25 l 6.2,0.6 q 8.35,0.9 16.8,2.65"
       id="path314"
       inkscape:connector-curvature="0"
       style="fill:#c58f5c;stroke:none" />
  </g>
  <g
     id="g1589"
     transform="translate(0,29.999993)">
    <path
       d="m 310,170.3 -0.15,-0.65 H 310 v 0.65"
       id="path316"
       inkscape:connector-curvature="0"
       style="fill:#93db24;stroke:none" />
    <path
       d="m 310,170.3 v 11.05 h -0.3 q -3.2,0 -5.45,-2.25 -2.25,-2.25 -2.25,-5.45 0,-3.15 2.25,-5.4 1.9,-1.9 4.55,-2.2 0.8,1.5 1.05,3.6 L 310,170.3 M 240,166 q 3,0.1 5.15,2.25 2.25,2.25 2.25,5.4 0,3.2 -2.25,5.45 -2.15,2.15 -5.15,2.25 V 166 m 54.4,19.55 q 1.6,1.6 1.6,3.85 0,2.3 -1.6,3.9 -1.65,1.6 -3.9,1.6 -2.3,0 -3.9,-1.6 -1.6,-1.6 -1.6,-3.9 0,-2.25 1.6,-3.85 1.6,-1.6 3.9,-1.6 2.25,0 3.9,1.6 m -15.9,-8.6 q -2.3,0 -3.9,-1.6 -1.6,-1.6 -1.6,-3.85 0,-2.3 1.6,-3.95 1.6,-1.55 3.9,-1.55 2.3,0 3.95,1.55 1.55,1.65 1.55,3.95 0,2.25 -1.55,3.85 -1.65,1.6 -3.95,1.6 m -22.3,5.15 q 1.1,-1.15 2.8,-1.15 1.65,0 2.85,1.15 1.15,1.2 1.15,2.85 0,1.65 -1.15,2.8 -1.2,1.15 -2.85,1.15 -1.7,0 -2.8,-1.15 -1.2,-1.15 -1.2,-2.8 0,-1.65 1.2,-2.85"
       id="path318"
       inkscape:connector-curvature="0"
       style="fill:#d6cdb3;stroke:none" />
    <path
       d="m 310,169.65 h -0.15 q -0.25,-2.1 -1.05,-3.6 Q 306.6,162 300.35,162 H 240 v -2 h 60.35 q 7.6,0 9.25,6 l 0.4,3.2 v 0.45"
       id="path320"
       inkscape:connector-curvature="0"
       style="fill:#f3ecdc;stroke:none" />
    <path
       d="m 308.8,166.05 q -2.65,0.3 -4.55,2.2 -2.25,2.25 -2.25,5.4 0,3.2 2.25,5.45 2.25,2.25 5.45,2.25 h 0.3 v 9.55 l -0.2,2.1 -0.05,0.2 -2.1,2.1 q -2.1,2.05 -8.5,1.7 H 240 v -15.65 q 3,-0.1 5.15,-2.25 2.25,-2.25 2.25,-5.45 0,-3.15 -2.25,-5.4 Q 243,166.1 240,166 v -4 h 60.35 q 6.25,0 8.45,4.05 m -14.4,19.5 q -1.65,-1.6 -3.9,-1.6 -2.3,0 -3.9,1.6 -1.6,1.6 -1.6,3.85 0,2.3 1.6,3.9 1.6,1.6 3.9,1.6 2.25,0 3.9,-1.6 1.6,-1.6 1.6,-3.9 0,-2.25 -1.6,-3.85 m -38.2,-3.45 q -1.2,1.2 -1.2,2.85 0,1.65 1.2,2.8 1.1,1.15 2.8,1.15 1.65,0 2.85,-1.15 1.15,-1.15 1.15,-2.8 0,-1.65 -1.15,-2.85 -1.2,-1.15 -2.85,-1.15 -1.7,0 -2.8,1.15 m 22.3,-5.15 q 2.3,0 3.95,-1.6 1.55,-1.6 1.55,-3.85 0,-2.3 -1.55,-3.95 -1.65,-1.55 -3.95,-1.55 -2.3,0 -3.9,1.55 -1.6,1.65 -1.6,3.95 0,2.25 1.6,3.85 1.6,1.6 3.9,1.6"
       id="path322"
       inkscape:connector-curvature="0"
       style="fill:#e1d7bf;stroke:none" />
    <path
       d="m 240,197 h 59.15 q 6.4,0.35 8.5,-1.7 l 2.1,-2.1 -0.6,2.05 -0.8,1.55 -0.1,0.1 -0.2,0.25 -1,1 q -2.4,1.85 -6.7,1.85 H 240 v -3"
       id="path324"
       inkscape:connector-curvature="0"
       style="fill:#c58f5c;stroke:none" />
  </g>
  <g
     id="g1555">
    <path
       d="m 540.8,160 q 1.6,4.4 -3.35,5.1 -5.75,4.4 -6.45,12.1 V 230 h -31 v -52.8 q -0.7,-7.7 -6.45,-12.1 -4.95,-0.7 -3.35,-5.1 h 50.6 m -20.65,38.75 q -1.25,0 -2.2,0.8 -0.8,0.95 -0.8,2.15 0,1.25 0.8,2.05 0.95,0.85 2.2,0.85 1.2,0 2,-0.85 0.9,-0.8 0.9,-2.05 0,-1.2 -0.9,-2.15 -0.8,-0.8 -2,-0.8 m -6.9,-8.7 q -0.75,0 -1.3,0.4 -0.5,0.55 -0.5,1.3 0,0.75 0.5,1.2 0.55,0.55 1.3,0.55 0.7,0 1.2,-0.55 0.55,-0.45 0.55,-1.2 0,-0.75 -0.55,-1.3 -0.5,-0.4 -1.2,-0.4 M 525.9,174.6 q 0.85,-0.95 0.85,-2.2 0,-1.3 -0.85,-2.2 -0.95,-0.95 -2.25,-0.95 -1.3,0 -2.15,0.95 -0.95,0.9 -0.95,2.2 0,1.25 0.95,2.2 0.85,0.9 2.15,0.9 1.3,0 2.25,-0.9"
       id="path326"
       inkscape:connector-curvature="0"
       style="fill:#e1d7bf;stroke:none" />
    <path
       d="m 525.9,174.6 q -0.95,0.9 -2.25,0.9 -1.3,0 -2.15,-0.9 -0.95,-0.95 -0.95,-2.2 0,-1.3 0.95,-2.2 0.85,-0.95 2.15,-0.95 1.3,0 2.25,0.95 0.85,0.9 0.85,2.2 0,1.25 -0.85,2.2 m -12.65,15.45 q 0.7,0 1.2,0.4 0.55,0.55 0.55,1.3 0,0.75 -0.55,1.2 -0.5,0.55 -1.2,0.55 -0.75,0 -1.3,-0.55 -0.5,-0.45 -0.5,-1.2 0,-0.75 0.5,-1.3 0.55,-0.4 1.3,-0.4 m 6.9,8.7 q 1.2,0 2,0.8 0.9,0.95 0.9,2.15 0,1.25 -0.9,2.05 -0.8,0.85 -2,0.85 -1.25,0 -2.2,-0.85 -0.8,-0.8 -0.8,-2.05 0,-1.2 0.8,-2.15 0.95,-0.8 2.2,-0.8"
       id="path328"
       inkscape:connector-curvature="0"
       style="fill:#d6cdb3;stroke:none" />
  </g>
  <g
     id="g1645">
    <path
       d="m 427.45,300.65 v -2.55 l 6.1,0.2 6.1,-0.2 v 2.55 l -6.1,0.2 -6.1,-0.2"
       id="path330"
       inkscape:connector-curvature="0"
       style="fill:#e1d7bf;stroke:none" />
    <path
       d="m 414.15,294.35 -0.1,-0.5 v -0.05 q 0.15,-5.65 5.7,-9.7 5.75,-4.1 13.8,-4.1 8.1,0 13.8,4.1 5.55,4.05 5.7,9.7 v 0.05 l -0.1,0.5 q -0.65,-4.9 -5.6,-8.5 -5.7,-4.1 -13.8,-4.1 -8.05,0 -13.8,4.1 -4.95,3.6 -5.6,8.5"
       id="path332"
       inkscape:connector-curvature="0"
       style="fill:#bd8853;stroke:none" />
    <path
       d="m 414.15,294.35 q 0.65,-4.9 5.6,-8.5 5.75,-4.1 13.8,-4.1 8.1,0 13.8,4.1 4.95,3.6 5.6,8.5 -0.65,1.55 -5.6,2.65 l -7.7,1.1 -6.1,0.2 -6.1,-0.2 -7.7,-1.1 q -4.95,-1.1 -5.6,-2.65"
       id="path334"
       inkscape:connector-curvature="0"
       style="fill:#a06d3d;stroke:none" />
    <path
       d="M 439.65,300.65 V 310 h -12.2 v -9.35 l 6.1,0.2 6.1,-0.2"
       id="path336"
       inkscape:connector-curvature="0"
       style="fill:#efebdc;stroke:none" />
  </g>
  <g
     id="g1627">
    <path
       d="m 652.8,279.75 -0.15,-0.2 -0.1,-0.4 q 0.15,-4.15 6.25,-7.15 6.3,-3 15.15,-3 8.9,0 15.15,3 6.1,3 6.3,7.15 l -0.15,0.4 -0.1,0.2 q -1.1,-3.2 -6.05,-5.65 -6.25,-3 -15.15,-3 -8.85,0 -15.15,3 -4.95,2.45 -6,5.65"
       id="path338"
       inkscape:connector-curvature="0"
       style="fill:#bd8853;stroke:none" />
    <path
       d="m 652.8,279.75 q 1.05,-3.2 6,-5.65 6.3,-3 15.15,-3 8.9,0 15.15,3 4.95,2.45 6.05,5.65 -1,0.95 -6.05,1.75 l -8.45,0.8 -2.6,0.1 -4.1,0.05 -4.95,-0.05 -1.75,-0.1 -8.45,-0.8 q -4.95,-0.75 -6,-1.75"
       id="path340"
       inkscape:connector-curvature="0"
       style="fill:#a06d3d;stroke:none" />
    <path
       d="m 678.15,284.9 1.5,25.1 h -12.2 l 1.45,-25.35 v 0.25 l 3.4,0.3 h 1.25 1.2 l 3.4,-0.3"
       id="path342"
       inkscape:connector-curvature="0"
       style="fill:#efebdc;stroke:none" />
    <path
       d="m 678.15,284.9 -3.4,0.3 h -1.2 -1.25 l -3.4,-0.3 v -0.25 l 0.1,-2.25 4.95,0.05 4.1,-0.05 0.1,2.5"
       id="path344"
       inkscape:connector-curvature="0"
       style="fill:#e1d7bf;stroke:none" />
  </g>
  <g
     id="g1621">
    <path
       d="m 732.8,279.75 -0.15,-0.2 -0.1,-0.4 q 0.15,-4.15 6.25,-7.15 6.3,-3 15.15,-3 8.9,0 15.15,3 6.1,3 6.3,7.15 l -0.15,0.4 -0.1,0.2 q -1.1,-3.2 -6.05,-5.65 -6.25,-3 -15.15,-3 -8.85,0 -15.15,3 -4.95,2.45 -6,5.65 m 25.25,2.65 0.1,2.5 -3.4,0.3 h -1.2 -1.25 l -3.35,-0.3 h -0.05 l 0.1,-2.5 4.95,0.05 4.1,-0.05"
       id="path346"
       inkscape:connector-curvature="0"
       style="fill:#e1d7bf;stroke:none" />
    <path
       d="m 758.05,282.4 -4.1,0.05 -4.95,-0.05 -1.75,-0.1 -8.45,-0.8 q -4.95,-0.75 -6,-1.75 1.05,-3.2 6,-5.65 6.3,-3 15.15,-3 8.9,0 15.15,3 4.95,2.45 6.05,5.65 -1,0.95 -6.05,1.75 l -8.45,0.8 -2.6,0.1"
       id="path348"
       inkscape:connector-curvature="0"
       style="fill:#d6cdb3;stroke:none" />
    <path
       d="m 758.15,284.9 q -2.4,13.5 1.5,25.1 h -12.2 q 3.4,-11.65 1.5,-25.1 l 3.35,0.3 h 1.25 1.2 l 3.4,-0.3"
       id="path350"
       inkscape:connector-curvature="0"
       style="fill:#efebdc;stroke:none" />
  </g>
  <g
     id="g1634">
    <path
       d="m 572.8,279.75 -0.15,-0.2 -0.1,-0.4 q 0.15,-4.15 6.25,-7.15 6.3,-3 15.15,-3 8.9,0 15.15,3 6.1,3 6.3,7.15 l -0.15,0.4 -0.1,0.2 q -1.1,-3.2 -6.05,-5.65 -4.2,-2 -9.6,-2.65 l -5.55,-0.35 h -0.1 q -8.8,0 -15.05,3 l -1.05,0.6 q -2.15,1.15 -3.4,2.5 -1.1,1.2 -1.55,2.55"
       id="path352"
       inkscape:connector-curvature="0"
       style="fill:#ef975c;stroke:none" />
    <path
       d="m 572.8,279.75 q 0.45,-1.35 1.55,-2.55 0.1,0.85 0.7,1.45 0.75,0.75 1.75,0.75 1,0 1.7,-0.75 0.75,-0.7 0.75,-1.7 0,-1 -0.75,-1.75 l -0.75,-0.5 1.05,-0.6 q 6.25,-3 15.05,-3 l -0.05,0.05 q -1.1,1.15 -1.1,2.75 0,1.6 1.1,2.7 1.15,1.15 2.75,1.15 1.6,0 2.7,-1.15 1.15,-1.1 1.15,-2.7 0,-1.4 -0.9,-2.45 5.4,0.65 9.6,2.65 4.95,2.45 6.05,5.65 -0.85,0.8 -4.7,1.55 0.4,-0.6 0.4,-1.35 0,-1 -0.75,-1.75 -0.7,-0.7 -1.7,-0.7 -1,0 -1.75,0.7 -0.7,0.75 -0.7,1.75 0,1 0.7,1.7 l 0.15,0.15 -6.15,0.5 -2.6,0.1 -4.1,0.05 -4.95,-0.05 -1.75,-0.1 -8.45,-0.8 q -4.95,-0.75 -6,-1.75 m 14.25,-4.4 q -1.15,0 -1.95,0.8 -0.8,0.8 -0.8,1.95 0,1.15 0.8,1.95 0.8,0.8 1.95,0.8 1.15,0 1.95,-0.8 0.8,-0.8 0.8,-1.95 0,-1.15 -0.8,-1.95 -0.8,-0.8 -1.95,-0.8"
       id="path354"
       inkscape:connector-curvature="0"
       style="fill:#e86a17;stroke:none" />
    <path
       d="m 587.05,275.35 q 1.15,0 1.95,0.8 0.8,0.8 0.8,1.95 0,1.15 -0.8,1.95 -0.8,0.8 -1.95,0.8 -1.15,0 -1.95,-0.8 -0.8,-0.8 -0.8,-1.95 0,-1.15 0.8,-1.95 0.8,-0.8 1.95,-0.8 m 23.4,5.95 -1.35,0.2 -2.3,0.3 -0.15,-0.15 q -0.7,-0.7 -0.7,-1.7 0,-1 0.7,-1.75 0.75,-0.7 1.75,-0.7 1,0 1.7,0.7 0.75,0.75 0.75,1.75 0,0.75 -0.4,1.35 m -36.1,-4.1 q 1.25,-1.35 3.4,-2.5 l 0.75,0.5 q 0.75,0.75 0.75,1.75 0,1 -0.75,1.7 -0.7,0.75 -1.7,0.75 -1,0 -1.75,-0.75 -0.6,-0.6 -0.7,-1.45 m 19.5,-6.1 h 0.1 l 5.55,0.35 q 0.9,1.05 0.9,2.45 0,1.6 -1.15,2.7 -1.1,1.15 -2.7,1.15 -1.6,0 -2.75,-1.15 -1.1,-1.1 -1.1,-2.7 0,-1.6 1.1,-2.75 l 0.05,-0.05"
       id="path356"
       inkscape:connector-curvature="0"
       style="fill:#fca66c;stroke:none" />
    <path
       d="m 598.15,284.9 1.5,25.1 h -12.2 l 1.45,-25.35 v 0.25 l 3.4,0.3 h 1.25 1.2 l 3.4,-0.3"
       id="path358"
       inkscape:connector-curvature="0"
       style="fill:#efebdc;stroke:none" />
    <path
       d="m 598.15,284.9 -3.4,0.3 h -1.2 -1.25 l -3.4,-0.3 v -0.25 l 0.1,-2.25 4.95,0.05 4.1,-0.05 0.1,2.5"
       id="path360"
       inkscape:connector-curvature="0"
       style="fill:#e1d7bf;stroke:none" />
  </g>
  <g
     id="g1639">
    <path
       d="m 494.15,294.35 -0.1,-0.5 v -0.05 q 0.15,-5.65 5.7,-9.7 5.75,-4.1 13.8,-4.1 8.1,0 13.8,4.1 3.2,2.35 4.6,5.2 1.05,2.1 1.1,4.5 v 0.05 l -0.1,0.5 q -0.25,-1.75 -1,-3.3 -1.4,-2.85 -4.6,-5.2 -5.7,-4.1 -13.8,-4.1 -8.05,0 -13.8,4.1 -4.95,3.6 -5.6,8.5 m 25.5,3.75 v 2.55 l -6.1,0.2 -6.1,-0.2 v -2.55 l 6.1,0.2 6.1,-0.2"
       id="path362"
       inkscape:connector-curvature="0"
       style="fill:#e1d7bf;stroke:none" />
    <path
       d="m 519.65,298.1 -6.1,0.2 -6.1,-0.2 -7.7,-1.1 q -4.95,-1.1 -5.6,-2.65 0.65,-4.9 5.6,-8.5 5.75,-4.1 13.8,-4.1 8.1,0 13.8,4.1 3.2,2.35 4.6,5.2 0.75,1.55 1,3.3 l -1,1.05 q -1.4,0.9 -4.6,1.6 l -7.7,1.1"
       id="path364"
       inkscape:connector-curvature="0"
       style="fill:#d6cdb3;stroke:none" />
    <path
       d="M 519.65,300.65 V 310 h -12.2 v -9.35 l 6.1,0.2 6.1,-0.2"
       id="path366"
       inkscape:connector-curvature="0"
       style="fill:#efebdc;stroke:none" />
  </g>
</svg>
